{
copyright = "Original Roman version created by Raph Levien using his own tools and FontForge. Copyright 2006 Raph Levien. Hellenisation of the Roman font, by Dimosthenis Kaponis, using FontForge. Hellenic glyphs Copyright 2010-2012 Dimosthenis Kaponis. Released under the SIL Open Font License, http://scripts.sil.org/OFL.\012\012Cyrillic glyphs added by MihailJP, using FontForge. Cyrillic glyphs Copyright 2012 MihailJP. Released under the SIL Open Font License, http://scripts.sil.org/OFL.\012\012Some glyphs modified by Greg Omelaenko, using FontForge.\012\012Metrics tweaks by Gleb Dolgich.";
customParameters = (
{
name = vendorID;
value = PfEd;
},
{
name = glyphOrder;
value = (
    ".notdef",
    space,
    exclam,
    quotedbl,
    numbersign,
    dollar,
    percent,
    ampersand,
    quotesingle,
    parenleft,
    parenright,
    asterisk,
    plus,
    comma,
    hyphen,
    period,
    slash,
    zero,
    one,
    two,
    three,
    four,
    five,
    six,
    seven,
    eight,
    nine,
    colon,
    semicolon,
    less,
    equal,
    greater,
    question,
    at,
    A,
    B,
    C,
    D,
    E,
    F,
    G,
    H,
    I,
    J,
    K,
    L,
    M,
    N,
    O,
    P,
    Q,
    R,
    S,
    T,
    U,
    V,
    W,
    X,
    Y,
    Z,
    bracketleft,
    backslash,
    bracketright,
    asciicircum,
    underscore,
    grave,
    a,
    b,
    c,
    d,
    e,
    f,
    g,
    h,
    i,
    j,
    k,
    l,
    m,
    n,
    o,
    p,
    q,
    r,
    s,
    t,
    u,
    v,
    w,
    x,
    y,
    z,
    braceleft,
    bar,
    braceright,
    asciitilde,
    nonbreakingspace,
    exclamdown,
    cent,
    sterling,
    currency,
    yen,
    brokenbar,
    section,
    dieresis,
    copyright,
    ordfeminine,
    guillemotleft,
    logicalnot,
    softhyphen,
    registered,
    macron,
    degree,
    plusminus,
    uni00B2,
    uni00B3,
    acute,
    micro,
    paragraph,
    periodcentered,
    cedilla,
    uni00B9,

glyphs = (
{
glyphname = exclam;
lastChange = "2016-10-27 22:44:17 +0000";
layers = (
{
layerId = "0945ADEB-DFBA-48BC-A89F-108FA066EBC6";
name = Regular;
paths = (
{
closed = 1;
nodes = (
"365 96 OFFCURVE",
"333 127 OFFCURVE",
"294 127 CURVE SMOOTH",
"255 127 OFFCURVE",
"224 96 OFFCURVE",
"224 57 CURVE SMOOTH",
"224 18 OFFCURVE",
"255 -13 OFFCURVE",
"294 -13 CURVE SMOOTH",
"333 -13 OFFCURVE",
"365 18 OFFCURVE",
"365 57 CURVE SMOOTH"
);
},
{
closed = 1;
nodes = (
"274 793 OFFCURVE",
"255 781 OFFCURVE",
"244 755 CURVE SMOOTH",
"239 742 OFFCURVE",
"236 725 OFFCURVE",
"236 703 CURVE SMOOTH",
"236 665 OFFCURVE",
"244 636 OFFCURVE",
"248 558 CURVE SMOOTH",
"265 230 LINE",
"325 230 LINE",
"346 558 LINE SMOOTH",
"349 603 OFFCURVE",
"357 649 OFFCURVE",
"357 694 CURVE SMOOTH",
"357 722 OFFCURVE",
"355 735 OFFCURVE",
"353 742 CURVE SMOOTH",
"344 778 OFFCURVE",
"318 793 OFFCURVE",
"296 793 CURVE SMOOTH"
);
}
);
width = 613;
},
{
layerId = "BAF923F9-5AD6-4831-8548-4755EA67E8F3";
name = Italic;
paths = (
{
closed = 1;
nodes = (
"382 96 OFFCURVE",
"356 127 OFFCURVE",
"317 127 CURVE SMOOTH",
"278 127 OFFCURVE",
"241 96 OFFCURVE",
"234 57 CURVE SMOOTH",
"227 18 OFFCURVE",
"253 -13 OFFCURVE",
"292 -13 CURVE SMOOTH",
"331 -13 OFFCURVE",
"368 18 OFFCURVE",
"375 57 CURVE SMOOTH"
);
},
{
closed = 1;
nodes = (
"415 793 OFFCURVE",
"392 781 OFFCURVE",
"377 755 CURVE SMOOTH",
"369 742 OFFCURVE",
"364 725 OFFCURVE",
"360 703 CURVE SMOOTH",
"353 665 OFFCURVE",
"356 636 OFFCURVE",
"346 558 CURVE SMOOTH",
"306 230 LINE",
"365 230 LINE",
"445 558 LINE SMOOTH",
"456 603 OFFCURVE",
"471 649 OFFCURVE",
"479 694 CURVE SMOOTH",
"484 722 OFFCURVE",
"484 735 OFFCURVE",
"483 742 CURVE",
"480 778 OFFCURVE",
"458 793 OFFCURVE",
"436 793 CURVE SMOOTH"
);
}
);
width = 613;
},
{
layerId = "C881373A-603B-4244-9A15-33852008E0AB";
name = Bold;
paths = (
{
closed = 1;
nodes = (
"247 158 OFFCURVE",
"209 119 OFFCURVE",
"209 72 CURVE SMOOTH",
"209 25 OFFCURVE",
"247 -13 OFFCURVE",
"294 -13 CURVE SMOOTH",
"341 -13 OFFCURVE",
"380 25 OFFCURVE",
"380 72 CURVE SMOOTH",
"380 119 OFFCURVE",
"341 158 OFFCURVE",
"294 158 CURVE SMOOTH"
);
},
{
closed = 1;
nodes = (
"223 729 OFFCURVE",
"221 711 OFFCURVE",
"221 688 CURVE SMOOTH",
"221 647 OFFCURVE",
"228 619 OFFCURVE",
"232 542 CURVE SMOOTH",
"251 247 LINE",
"339 247 LINE",
"361 542 LINE SMOOTH",
"364 586 OFFCURVE",
"372 631 OFFCURVE",
"372 678 CURVE SMOOTH",
"372 707 OFFCURVE",
"369 722 OFFCURVE",
"367 730 CURVE SMOOTH",
"356 772 OFFCURVE",
"326 793 OFFCURVE",
"296 793 CURVE SMOOTH",
"269 793 OFFCURVE",
"243 776 OFFCURVE",
"230 745 CURVE SMOOTH"
);
}
);
width = 613;
},
{
layerId = "99972075-B5E0-48DB-B31E-BE77C67EF09D";
name = "Bold Italic";
paths = (
{
closed = 1;
nodes = (
"275 158 OFFCURVE",
"230 119 OFFCURVE",
"222 72 CURVE SMOOTH",
"214 25 OFFCURVE",
"245 -13 OFFCURVE",
"292 -13 CURVE SMOOTH",
"339 -13 OFFCURVE",
"385 25 OFFCURVE",
"393 72 CURVE SMOOTH",
"401 119 OFFCURVE",
"369 158 OFFCURVE",
"322 158 CURVE SMOOTH"
);
},
{
closed = 1;
nodes = (
"352 729 OFFCURVE",
"346 711 OFFCURVE",
"342 688 CURVE SMOOTH",
"335 647 OFFCURVE",
"337 619 OFFCURVE",
"328 542 CURVE SMOOTH",
"294 247 LINE",
"383 247 LINE",
"457 542 LINE SMOOTH",
"468 586 OFFCURVE",
"484 631 OFFCURVE",
"492 678 CURVE SMOOTH",
"497 707 OFFCURVE",
"497 722 OFFCURVE",
"496 730 CURVE",
"493 772 OFFCURVE",
"466 793 OFFCURVE",
"436 793 CURVE SMOOTH",
"409 793 OFFCURVE",
"379 776 OFFCURVE",
"361 745 CURVE SMOOTH"
);
}
);
width = 613;
}
);
note = exclam;
unicode = 0021;
},
{
glyphname = quotedbl;
lastChange = "2016-10-27 22:44:17 +0000";
layers = (
{
layerId = "0945ADEB-DFBA-48BC-A89F-108FA066EBC6";
name = Regular;
paths = (
{
closed = 1;
nodes = (
"467 723 LINE SMOOTH",
"467 777 OFFCURVE",
"449 791 OFFCURVE",
"430 791 CURVE SMOOTH",
"411 791 OFFCURVE",
"383 770 OFFCURVE",
"383 723 CURVE SMOOTH",
"383 664 LINE SMOOTH",
"383 641 OFFCURVE",
"390 626 OFFCURVE",
"385 606 CURVE",
"387 555 OFFCURVE",
"383 555 OFFCURVE",
"386 504 CURVE",
"469 504 LINE",
"467 610 LINE"
);
},
{
closed = 1;
nodes = (
"260 723 LINE SMOOTH",
"260 777 OFFCURVE",
"242 791 OFFCURVE",
"223 791 CURVE SMOOTH",
"204 791 OFFCURVE",
"176 770 OFFCURVE",
"176 723 CURVE SMOOTH",
"176 664 LINE SMOOTH",
"176 641 OFFCURVE",
"183 626 OFFCURVE",
"178 606 CURVE",
"180 555 OFFCURVE",
"176 555 OFFCURVE",
"179 504 CURVE",
"262 504 LINE",
"260 610 LINE"
);
}
);
width = 613;
},
{
layerId = "BAF923F9-5AD6-4831-8548-4755EA67E8F3";
name = Italic;
paths = (
{
closed = 1;
nodes = (
"594 723 LINE SMOOTH",
"603 777 OFFCURVE",
"588 791 OFFCURVE",
"569 791 CURVE SMOOTH",
"550 791 OFFCURVE",
"518 770 OFFCURVE",
"510 723 CURVE SMOOTH",
"500 664 LINE SMOOTH",
"496 641 OFFCURVE",
"501 626 OFFCURVE",
"492 606 CURVE",
"485 555 OFFCURVE",
"481 555 OFFCURVE",
"475 504 CURVE",
"557 504 LINE",
"575 610 LINE"
);
},
{
closed = 1;
nodes = (
"388 723 LINE SMOOTH",
"397 777 OFFCURVE",
"381 791 OFFCURVE",
"362 791 CURVE SMOOTH",
"343 791 OFFCURVE",
"312 770 OFFCURVE",
"304 723 CURVE SMOOTH",
"293 664 LINE SMOOTH",
"289 641 OFFCURVE",
"294 626 OFFCURVE",
"285 606 CURVE",
"278 555 OFFCURVE",
"274 555 OFFCURVE",
"268 504 CURVE",
"351 504 LINE",
"368 610 LINE"
);
}
);
width = 613;
},
{
layerId = "C881373A-603B-4244-9A15-33852008E0AB";
name = Bold;
paths = (
{
closed = 1;
nodes = (
"400 791 OFFCURVE",
"368 763 OFFCURVE",
"368 716 CURVE SMOOTH",
"368 663 LINE SMOOTH",
"368 638 OFFCURVE",
"374 628 OFFCURVE",
"370 615 CURVE",
"369 613 LINE",
"369 611 LINE",
"371 566 OFFCURVE",
"368 565 OFFCURVE",
"371 518 CURVE",
"372 473 LINE",
"484 473 LINE",
"482 595 LINE",
"482 708 LINE SMOOTH",
"482 764 OFFCURVE",
"461 791 OFFCURVE",
"430 791 CURVE SMOOTH"
);
},
{
closed = 1;
nodes = (
"193 791 OFFCURVE",
"161 763 OFFCURVE",
"161 716 CURVE SMOOTH",
"161 663 LINE SMOOTH",
"161 638 OFFCURVE",
"167 628 OFFCURVE",
"163 615 CURVE",
"162 613 LINE",
"162 611 LINE",
"164 566 OFFCURVE",
"161 565 OFFCURVE",
"164 518 CURVE",
"165 473 LINE",
"277 473 LINE",
"275 595 LINE",
"275 708 LINE SMOOTH",
"275 764 OFFCURVE",
"254 791 OFFCURVE",
"223 791 CURVE SMOOTH"
);
}
);
width = 613;
},
{
layerId = "99972075-B5E0-48DB-B31E-BE77C67EF09D";
name = "Bold Italic";
paths = (
{
closed = 1;
nodes = (
"539 791 OFFCURVE",
"502 763 OFFCURVE",
"494 716 CURVE SMOOTH",
"484 663 LINE SMOOTH",
"480 638 OFFCURVE",
"484 628 OFFCURVE",
"478 615 CURVE SMOOTH",
"477 613 LINE",
"477 611 LINE",
"471 566 OFFCURVE",
"467 565 OFFCURVE",
"462 518 CURVE",
"455 473 LINE",
"568 473 LINE",
"587 595 LINE",
"607 708 LINE SMOOTH",
"617 764 OFFCURVE",
"600 791 OFFCURVE",
"569 791 CURVE SMOOTH"
);
},
{
closed = 1;
nodes = (
"332 791 OFFCURVE",
"295 763 OFFCURVE",
"287 716 CURVE SMOOTH",
"278 663 LINE SMOOTH",
"274 638 OFFCURVE",
"277 628 OFFCURVE",
"271 615 CURVE SMOOTH",
"270 613 LINE",
"270 611 LINE",
"264 566 OFFCURVE",
"261 565 OFFCURVE",
"256 518 CURVE",
"249 473 LINE",
"361 473 LINE",
"380 595 LINE",
"400 708 LINE SMOOTH",
"410 764 OFFCURVE",
"393 791 OFFCURVE",
"362 791 CURVE SMOOTH"
);
}
);
width = 613;
}
);
note = quotedbl;
unicode = 0022;
},
{
glyphname = numbersign;
lastChange = "2016-10-27 22:44:17 +0000";
layers = (
{
layerId = "0945ADEB-DFBA-48BC-A89F-108FA066EBC6";
name = Regular;
paths = (
{
closed = 1;
nodes = (
"216 740 LINE",
"193 539 LINE",
"60 538 LINE",
"56 481 LINE",
"186 483 LINE",
"162 281 LINE",
"45 279 LINE",
"40 224 LINE",
"155 226 LINE",
"130 13 LINE",
"200 16 LINE",
"225 227 LINE",
"357 229 LINE",
"331 12 LINE",
"402 16 LINE",
"429 231 LINE",
"547 232 LINE",
"553 288 LINE",
"435 286 LINE",
"460 485 LINE",
"568 486 LINE",
"574 544 LINE",
"467 542 LINE",
"490 737 LINE",
"417 734 LINE",
"394 542 LINE",
"263 540 LINE",
"288 743 LINE"
);
},
{
closed = 1;
nodes = (
"256 483 LINE",
"387 485 LINE",
"362 284 LINE",
"232 282 LINE"
);
}
);
width = 613;
},
{
layerId = "BAF923F9-5AD6-4831-8548-4755EA67E8F3";
name = Italic;
paths = (
{
closed = 1;
nodes = (
"347 740 LINE",
"287 539 LINE",
"155 538 LINE",
"141 481 LINE",
"271 483 LINE",
"211 281 LINE",
"94 279 LINE",
"79 224 LINE",
"195 226 LINE",
"132 13 LINE",
"203 16 LINE",
"265 227 LINE",
"397 229 LINE",
"333 12 LINE",
"405 16 LINE",
"469 231 LINE",
"588 232 LINE",
"604 288 LINE",
"486 286 LINE",
"545 485 LINE",
"654 486 LINE",
"670 544 LINE",
"562 542 LINE",
"620 737 LINE",
"546 734 LINE",
"489 542 LINE",
"358 540 LINE",
"419 743 LINE"
);
},
{
closed = 1;
nodes = (
"341 483 LINE",
"472 485 LINE",
"413 284 LINE",
"282 282 LINE"
);
}
);
width = 613;
},
{
layerId = "C881373A-603B-4244-9A15-33852008E0AB";
name = Bold;
paths = (
{
closed = 1;
nodes = (
"179 539 LINE",
"46 537 LINE",
"40 450 LINE",
"168 452 LINE",
"148 280 LINE",
"31 278 LINE",
"23 193 LINE",
"138 195 LINE",
"113 -18 LINE",
"213 -14 LINE",
"239 197 LINE",
"339 198 LINE",
"313 -19 LINE",
"416 -14 LINE",
"442 200 LINE",
"561 202 LINE",
"570 288 LINE",
"453 286 LINE",
"473 455 LINE",
"582 456 LINE",
"592 544 LINE",
"484 543 LINE",
"508 738 LINE",
"403 734 LINE",
"380 541 LINE",
"280 540 LINE",
"305 744 LINE",
"202 740 LINE"
);
},
{
closed = 1;
nodes = (
"370 469 LINE",
"349 299 LINE",
"249 298 LINE",
"270 468 LINE"
);
}
);
width = 613;
},
{
layerId = "99972075-B5E0-48DB-B31E-BE77C67EF09D";
name = "Bold Italic";
paths = (
{
closed = 1;
nodes = (
"274 539 LINE",
"141 537 LINE",
"119 450 LINE",
"248 452 LINE",
"197 280 LINE",
"80 278 LINE",
"57 193 LINE",
"172 195 LINE",
"109 -18 LINE",
"211 -14 LINE",
"274 197 LINE",
"374 198 LINE",
"310 -19 LINE",
"414 -14 LINE",
"477 200 LINE",
"596 202 LINE",
"621 288 LINE",
"503 286 LINE",
"554 455 LINE",
"663 456 LINE",
"687 544 LINE",
"580 543 LINE",
"638 738 LINE",
"532 734 LINE",
"476 541 LINE",
"376 540 LINE",
"436 744 LINE",
"333 740 LINE"
);
},
{
closed = 1;
nodes = (
"452 469 LINE",
"402 299 LINE",
"302 298 LINE",
"352 468 LINE"
);
}
);
width = 613;
}
);
note = numbersign;
unicode = 0023;
},
{
glyphname = dollar;
lastChange = "2016-10-27 22:44:17 +0000";
layers = (
{
layerId = "0945ADEB-DFBA-48BC-A89F-108FA066EBC6";
name = Regular;
paths = (
{
closed = 1;
nodes = (
"289 772 LINE",
"289 701 LINE",
"180 687 OFFCURVE",
"104 614 OFFCURVE",
"104 529 CURVE SMOOTH",
"104 486 OFFCURVE",
"124 419 OFFCURVE",
"224 372 CURVE SMOOTH",
"246 362 OFFCURVE",
"267 353 OFFCURVE",
"289 346 CURVE",
"289 85 LINE",
"227 92 OFFCURVE",
"174 123 OFFCURVE",
"141 158 CURVE SMOOTH",
"136 163 OFFCURVE",
"137 166 OFFCURVE",
"137 171 CURVE SMOOTH",
"137 172 OFFCURVE",
"138 179 OFFCURVE",
"132 182 CURVE",
"81 112 LINE",
"134 55 OFFCURVE",
"207 22 OFFCURVE",
"289 17 CURVE",
"289 -55 LINE",
"358 -55 LINE",
"358 19 LINE",
"492 37 OFFCURVE",
"556 130 OFFCURVE",
"556 215 CURVE SMOOTH",
"556 323 OFFCURVE",
"462 364 OFFCURVE",
"437 375 CURVE SMOOTH",
"412 386 OFFCURVE",
"385 394 OFFCURVE",
"358 403 CURVE",
"358 632 LINE",
"409 624 OFFCURVE",
"446 602 OFFCURVE",
"471 572 CURVE",
"475 568 OFFCURVE",
"475 566 OFFCURVE",
"476 565 CURVE",
"478 561 OFFCURVE",
"477 558 OFFCURVE",
"477 555 CURVE SMOOTH",
"477 550 OFFCURVE",
"480 548 OFFCURVE",
"483 547 CURVE",
"535 611 LINE",
"491 663 OFFCURVE",
"428 695 OFFCURVE",
"358 702 CURVE",
"358 748 LINE SMOOTH",
"358 759 OFFCURVE",
"366 759 OFFCURVE",
"366 768 CURVE SMOOTH",
"366 769 OFFCURVE",
"367 771 OFFCURVE",
"366 772 CURVE"
);
},
{
closed = 1;
nodes = (
"358 324 LINE",
"382 317 OFFCURVE",
"403 310 OFFCURVE",
"419 301 CURVE SMOOTH",
"469 274 OFFCURVE",
"478 234 OFFCURVE",
"478 210 CURVE SMOOTH",
"478 156 OFFCURVE",
"434 103 OFFCURVE",
"358 88 CURVE"
);
},
{
closed = 1;
nodes = (
"289 428 LINE",
"274 434 OFFCURVE",
"259 442 OFFCURVE",
"247 449 CURVE SMOOTH",
"195 479 OFFCURVE",
"183 513 OFFCURVE",
"183 539 CURVE SMOOTH",
"183 580 OFFCURVE",
"214 624 OFFCURVE",
"289 633 CURVE"
);
}
);
width = 613;
},
{
layerId = "BAF923F9-5AD6-4831-8548-4755EA67E8F3";
name = Italic;
paths = (
{
closed = 1;
nodes = (
"425 772 LINE",
"412 701 LINE",
"300 687 OFFCURVE",
"213 614 OFFCURVE",
"198 529 CURVE SMOOTH",
"190 486 OFFCURVE",
"198 419 OFFCURVE",
"289 372 CURVE SMOOTH",
"309 362 OFFCURVE",
"330 353 OFFCURVE",
"350 346 CURVE",
"304 85 LINE",
"243 92 OFFCURVE",
"196 123 OFFCURVE",
"169 158 CURVE SMOOTH",
"165 163 OFFCURVE",
"167 166 OFFCURVE",
"168 171 CURVE",
"168 172 OFFCURVE",
"169 179 OFFCURVE",
"164 182 CURVE",
"101 112 LINE",
"144 55 OFFCURVE",
"211 22 OFFCURVE",
"292 17 CURVE",
"279 -55 LINE",
"349 -55 LINE",
"362 19 LINE",
"499 37 OFFCURVE",
"579 130 OFFCURVE",
"594 215 CURVE SMOOTH",
"613 323 OFFCURVE",
"526 364 OFFCURVE",
"503 375 CURVE SMOOTH",
"480 386 OFFCURVE",
"455 394 OFFCURVE",
"430 403 CURVE",
"470 632 LINE",
"520 624 OFFCURVE",
"553 602 OFFCURVE",
"572 572 CURVE",
"575 568 OFFCURVE",
"576 566 OFFCURVE",
"576 565 CURVE",
"577 561 OFFCURVE",
"575 558 OFFCURVE",
"575 555 CURVE",
"574 550 OFFCURVE",
"578 548 OFFCURVE",
"580 547 CURVE",
"642 611 LINE",
"608 663 OFFCURVE",
"551 695 OFFCURVE",
"482 702 CURVE",
"490 748 LINE SMOOTH",
"492 759 OFFCURVE",
"500 759 OFFCURVE",
"502 768 CURVE",
"502 772 LINE"
);
},
{
closed = 1;
nodes = (
"416 324 LINE",
"438 317 OFFCURVE",
"457 310 OFFCURVE",
"472 301 CURVE SMOOTH",
"517 274 OFFCURVE",
"519 234 OFFCURVE",
"515 210 CURVE SMOOTH",
"506 156 OFFCURVE",
"453 103 OFFCURVE",
"374 88 CURVE"
);
},
{
closed = 1;
nodes = (
"364 428 LINE",
"350 434 OFFCURVE",
"337 441 OFFCURVE",
"326 448 CURVE SMOOTH",
"279 478 OFFCURVE",
"273 513 OFFCURVE",
"278 539 CURVE SMOOTH",
"285 580 OFFCURVE",
"324 624 OFFCURVE",
"400 633 CURVE"
);
}
);
width = 613;
},
{
layerId = "C881373A-603B-4244-9A15-33852008E0AB";
name = Bold;
paths = (
{
closed = 1;
nodes = (
"273 701 LINE",
"167 683 OFFCURVE",
"89 612 OFFCURVE",
"89 523 CURVE SMOOTH",
"89 476 OFFCURVE",
"112 406 OFFCURVE",
"217 358 CURVE SMOOTH",
"236 349 OFFCURVE",
"254 342 OFFCURVE",
"273 336 CURVE",
"273 112 LINE",
"223 121 OFFCURVE",
"181 146 OFFCURVE",
"153 175 CURVE",
"153 177 LINE",
"153 177 OFFCURVE",
"155 195 OFFCURVE",
"138 202 CURVE",
"127 207 LINE",
"61 119 LINE",
"70 110 LINE SMOOTH",
"123 55 OFFCURVE",
"193 24 OFFCURVE",
"273 16 CURVE",
"273 -55 LINE",
"374 -55 LINE",
"374 19 LINE",
"505 41 OFFCURVE",
"571 133 OFFCURVE",
"571 220 CURVE SMOOTH",
"571 335 OFFCURVE",
"468 377 OFFCURVE",
"443 387 CURVE SMOOTH",
"421 396 OFFCURVE",
"399 404 OFFCURVE",
"374 412 CURVE",
"374 604 LINE",
"412 595 OFFCURVE",
"440 578 OFFCURVE",
"459 555 CURVE",
"460 554 OFFCURVE",
"460 553 OFFCURVE",
"462 551 CURVE",
"462 546 LINE",
"463 534 OFFCURVE",
"471 527 OFFCURVE",
"479 525 CURVE",
"489 523 LINE",
"554 602 LINE",
"546 611 LINE SMOOTH",
"503 661 OFFCURVE",
"442 692 OFFCURVE",
"374 702 CURVE",
"374 733 LINE",
"374 734 LINE",
"374 734 OFFCURVE",
"382 739 OFFCURVE",
"382 753 CURVE SMOOTH",
"382 757 OFFCURVE",
"381 760 OFFCURVE",
"380 763 CURVE",
"376 772 LINE",
"273 772 LINE"
);
},
{
closed = 1;
nodes = (
"456 263 OFFCURVE",
"463 230 OFFCURVE",
"463 210 CURVE SMOOTH",
"463 169 OFFCURVE",
"433 126 OFFCURVE",
"374 108 CURVE",
"374 303 LINE",
"389 298 OFFCURVE",
"402 293 OFFCURVE",
"412 287 CURVE"
);
},
{
closed = 1;
nodes = (
"207 489 OFFCURVE",
"198 519 OFFCURVE",
"198 539 CURVE SMOOTH",
"198 569 OFFCURVE",
"217 602 OFFCURVE",
"273 615 CURVE",
"273 451 LINE",
"268 453 OFFCURVE",
"260 458 OFFCURVE",
"255 461 CURVE SMOOTH"
);
}
);
width = 613;
},
{
layerId = "99972075-B5E0-48DB-B31E-BE77C67EF09D";
name = "Bold Italic";
paths = (
{
closed = 1;
nodes = (
"397 701 LINE",
"288 683 OFFCURVE",
"197 612 OFFCURVE",
"181 523 CURVE SMOOTH",
"173 476 OFFCURVE",
"184 406 OFFCURVE",
"280 358 CURVE SMOOTH",
"297 349 OFFCURVE",
"315 342 OFFCURVE",
"333 336 CURVE",
"293 112 LINE",
"245 121 OFFCURVE",
"206 146 OFFCURVE",
"183 175 CURVE",
"183 175 OFFCURVE",
"184 176 OFFCURVE",
"184 177 CURVE",
"184 177 OFFCURVE",
"189 195 OFFCURVE",
"174 202 CURVE SMOOTH",
"164 207 LINE",
"82 119 LINE",
"89 110 LINE SMOOTH",
"132 55 OFFCURVE",
"197 24 OFFCURVE",
"276 16 CURVE",
"264 -55 LINE",
"364 -55 LINE",
"377 19 LINE",
"512 41 OFFCURVE",
"595 133 OFFCURVE",
"610 220 CURVE SMOOTH",
"630 335 OFFCURVE",
"534 377 OFFCURVE",
"511 387 CURVE SMOOTH",
"490 396 OFFCURVE",
"469 404 OFFCURVE",
"446 412 CURVE",
"480 604 LINE",
"516 595 OFFCURVE",
"542 578 OFFCURVE",
"557 555 CURVE",
"558 554 OFFCURVE",
"558 553 OFFCURVE",
"559 551 CURVE",
"559 550 OFFCURVE",
"558 549 OFFCURVE",
"558 546 CURVE",
"557 534 OFFCURVE",
"565 527 OFFCURVE",
"572 525 CURVE",
"581 523 LINE",
"660 602 LINE",
"654 611 LINE SMOOTH",
"619 661 OFFCURVE",
"565 692 OFFCURVE",
"498 702 CURVE",
"503 733 LINE",
"503 734 LINE",
"503 734 OFFCURVE",
"512 739 OFFCURVE",
"514 753 CURVE",
"515 757 OFFCURVE",
"515 760 OFFCURVE",
"514 763 CURVE",
"512 772 LINE",
"410 772 LINE"
);
},
{
closed = 1;
nodes = (
"503 263 OFFCURVE",
"504 230 OFFCURVE",
"500 210 CURVE SMOOTH",
"493 169 OFFCURVE",
"456 126 OFFCURVE",
"393 108 CURVE",
"427 303 LINE",
"441 298 OFFCURVE",
"454 293 OFFCURVE",
"463 287 CURVE"
);
},
{
closed = 1;
nodes = (
"293 489 OFFCURVE",
"289 519 OFFCURVE",
"293 539 CURVE SMOOTH",
"298 569 OFFCURVE",
"323 602 OFFCURVE",
"382 615 CURVE",
"353 451 LINE",
"348 453 OFFCURVE",
"341 458 OFFCURVE",
"336 461 CURVE"
);
}
);
width = 613;
}
);
note = dollar;
unicode = 0024;
},
{
glyphname = percent;
lastChange = "2016-10-27 22:44:17 +0000";
layers = (
{
layerId = "0945ADEB-DFBA-48BC-A89F-108FA066EBC6";
name = Regular;
paths = (
{
closed = 1;
nodes = (
"474 739 LINE",
"65 0 LINE",
"140 0 LINE",
"554 739 LINE"
);
},
{
closed = 1;
nodes = (
"105 753 OFFCURVE",
"44 688 OFFCURVE",
"44 597 CURVE SMOOTH",
"44 508 OFFCURVE",
"104 442 OFFCURVE",
"177 442 CURVE SMOOTH",
"249 442 OFFCURVE",
"309 508 OFFCURVE",
"309 596 CURVE SMOOTH",
"309 686 OFFCURVE",
"248 753 OFFCURVE",
"176 753 CURVE SMOOTH"
);
},
{
closed = 1;
nodes = (
"193 690 OFFCURVE",
"234 677 OFFCURVE",
"234 593 CURVE SMOOTH",
"234 524 OFFCURVE",
"200 506 OFFCURVE",
"176 506 CURVE SMOOTH",
"154 506 OFFCURVE",
"116 522 OFFCURVE",
"116 602 CURVE SMOOTH",
"116 672 OFFCURVE",
"151 690 OFFCURVE",
"174 690 CURVE SMOOTH"
);
},
{
closed = 1;
nodes = (
"583 230 OFFCURVE",
"522 296 OFFCURVE",
"450 296 CURVE SMOOTH",
"378 296 OFFCURVE",
"317 231 OFFCURVE",
"317 142 CURVE SMOOTH",
"317 54 OFFCURVE",
"378 -12 OFFCURVE",
"450 -12 CURVE SMOOTH",
"522 -12 OFFCURVE",
"583 53 OFFCURVE",
"583 142 CURVE SMOOTH"
);
},
{
closed = 1;
nodes = (
"474 234 OFFCURVE",
"512 215 OFFCURVE",
"512 139 CURVE SMOOTH",
"512 68 OFFCURVE",
"476 48 OFFCURVE",
"451 48 CURVE SMOOTH",
"423 48 OFFCURVE",
"388 72 OFFCURVE",
"388 142 CURVE SMOOTH",
"388 214 OFFCURVE",
"425 234 OFFCURVE",
"450 234 CURVE SMOOTH"
);
}
);
width = 613;
},
{
layerId = "BAF923F9-5AD6-4831-8548-4755EA67E8F3";
name = Italic;
paths = (
{
closed = 1;
nodes = (
"604 739 LINE",
"65 0 LINE",
"140 0 LINE",
"684 739 LINE"
);
},
{
closed = 1;
nodes = (
"238 753 OFFCURVE",
"165 688 OFFCURVE",
"149 597 CURVE SMOOTH",
"133 508 OFFCURVE",
"182 442 OFFCURVE",
"255 442 CURVE SMOOTH",
"327 442 OFFCURVE",
"399 508 OFFCURVE",
"415 596 CURVE SMOOTH",
"431 686 OFFCURVE",
"381 753 OFFCURVE",
"309 753 CURVE SMOOTH"
);
},
{
closed = 1;
nodes = (
"315 690 OFFCURVE",
"354 677 OFFCURVE",
"339 593 CURVE SMOOTH",
"327 524 OFFCURVE",
"289 506 OFFCURVE",
"265 506 CURVE SMOOTH",
"244 506 OFFCURVE",
"208 522 OFFCURVE",
"222 602 CURVE SMOOTH",
"234 672 OFFCURVE",
"273 690 OFFCURVE",
"296 690 CURVE SMOOTH"
);
},
{
closed = 1;
nodes = (
"624 230 OFFCURVE",
"574 296 OFFCURVE",
"502 296 CURVE SMOOTH",
"430 296 OFFCURVE",
"358 231 OFFCURVE",
"342 142 CURVE SMOOTH",
"326 54 OFFCURVE",
"376 -12 OFFCURVE",
"448 -12 CURVE SMOOTH",
"520 -12 OFFCURVE",
"592 53 OFFCURVE",
"608 142 CURVE SMOOTH"
);
},
{
closed = 1;
nodes = (
"515 235 OFFCURVE",
"550 215 OFFCURVE",
"537 139 CURVE SMOOTH",
"525 68 OFFCURVE",
"484 48 OFFCURVE",
"459 48 CURVE SMOOTH",
"431 48 OFFCURVE",
"401 72 OFFCURVE",
"413 142 CURVE SMOOTH",
"426 214 OFFCURVE",
"466 235 OFFCURVE",
"491 235 CURVE SMOOTH"
);
}
);
width = 613;
},
{
layerId = "C881373A-603B-4244-9A15-33852008E0AB";
name = Bold;
paths = (
{
closed = 1;
nodes = (
"38 0 LINE",
"149 0 LINE",
"580 739 LINE",
"465 739 LINE"
);
},
{
closed = 1;
nodes = (
"29 499 OFFCURVE",
"94 427 OFFCURVE",
"177 427 CURVE SMOOTH",
"259 427 OFFCURVE",
"325 498 OFFCURVE",
"325 589 CURVE SMOOTH",
"325 682 OFFCURVE",
"258 753 OFFCURVE",
"176 753 CURVE SMOOTH",
"95 753 OFFCURVE",
"29 684 OFFCURVE",
"29 590 CURVE SMOOTH"
);
},
{
closed = 1;
nodes = (
"219 530 OFFCURVE",
"190 521 OFFCURVE",
"176 521 CURVE SMOOTH",
"164 521 OFFCURVE",
"131 526 OFFCURVE",
"131 593 CURVE SMOOTH",
"131 651 OFFCURVE",
"160 659 OFFCURVE",
"174 659 CURVE SMOOTH",
"185 659 OFFCURVE",
"219 656 OFFCURVE",
"219 586 CURVE SMOOTH"
);
},
{
closed = 1;
nodes = (
"368 311 OFFCURVE",
"302 240 OFFCURVE",
"302 149 CURVE SMOOTH",
"302 58 OFFCURVE",
"368 -12 OFFCURVE",
"450 -12 CURVE SMOOTH",
"532 -12 OFFCURVE",
"598 59 OFFCURVE",
"598 150 CURVE SMOOTH",
"598 241 OFFCURVE",
"532 311 OFFCURVE",
"450 311 CURVE SMOOTH"
);
},
{
closed = 1;
nodes = (
"497 88 OFFCURVE",
"467 79 OFFCURVE",
"451 79 CURVE SMOOTH",
"433 79 OFFCURVE",
"403 91 OFFCURVE",
"403 149 CURVE SMOOTH",
"403 209 OFFCURVE",
"434 219 OFFCURVE",
"450 219 CURVE SMOOTH",
"465 219 OFFCURVE",
"497 210 OFFCURVE",
"497 147 CURVE SMOOTH"
);
}
);
width = 613;
},
{
layerId = "99972075-B5E0-48DB-B31E-BE77C67EF09D";
name = "Bold Italic";
paths = (
{
closed = 1;
nodes = (
"38 0 LINE",
"149 0 LINE",
"711 739 LINE",
"595 739 LINE"
);
},
{
closed = 1;
nodes = (
"117 499 OFFCURVE",
"169 427 OFFCURVE",
"252 427 CURVE SMOOTH",
"334 427 OFFCURVE",
"413 498 OFFCURVE",
"429 589 CURVE SMOOTH",
"445 682 OFFCURVE",
"391 753 OFFCURVE",
"309 753 CURVE SMOOTH",
"228 753 OFFCURVE",
"149 684 OFFCURVE",
"133 590 CURVE SMOOTH"
);
},
{
closed = 1;
nodes = (
"313 530 OFFCURVE",
"282 521 OFFCURVE",
"268 521 CURVE SMOOTH",
"256 521 OFFCURVE",
"224 526 OFFCURVE",
"236 593 CURVE SMOOTH",
"246 651 OFFCURVE",
"277 659 OFFCURVE",
"291 659 CURVE SMOOTH",
"302 659 OFFCURVE",
"335 656 OFFCURVE",
"323 586 CURVE SMOOTH"
);
},
{
closed = 1;
nodes = (
"423 311 OFFCURVE",
"344 240 OFFCURVE",
"328 149 CURVE SMOOTH",
"312 58 OFFCURVE",
"366 -12 OFFCURVE",
"448 -12 CURVE SMOOTH",
"530 -12 OFFCURVE",
"608 59 OFFCURVE",
"624 150 CURVE SMOOTH",
"640 241 OFFCURVE",
"587 311 OFFCURVE",
"505 311 CURVE SMOOTH"
);
},
{
closed = 1;
nodes = (
"513 88 OFFCURVE",
"481 79 OFFCURVE",
"465 79 CURVE SMOOTH",
"447 79 OFFCURVE",
"420 91 OFFCURVE",
"430 149 CURVE SMOOTH",
"441 209 OFFCURVE",
"473 219 OFFCURVE",
"489 219 CURVE SMOOTH",
"504 219 OFFCURVE",
"534 210 OFFCURVE",
"523 147 CURVE SMOOTH"
);
}
);
width = 613;
}
);
note = percent;
unicode = 0025;
},
{
glyphname = ampersand;
lastChange = "2016-10-27 22:44:17 +0000";
layers = (
{
layerId = "0945ADEB-DFBA-48BC-A89F-108FA066EBC6";
name = Regular;
paths = (
{
closed = 1;
nodes = (
"192 746 OFFCURVE",
"119 680 OFFCURVE",
"119 591 CURVE SMOOTH",
"119 526 OFFCURVE",
"159 460 OFFCURVE",
"203 407 CURVE",
"112 357 OFFCURVE",
"53 264 OFFCURVE",
"53 173 CURVE SMOOTH",
"53 67 OFFCURVE",
"132 -12 OFFCURVE",
"238 -12 CURVE SMOOTH",
"318 -12 OFFCURVE",
"391 32 OFFCURVE",
"438 90 CURVE",
"504 -14 LINE",
"573 38 LINE",
"490 145 LINE",
"523 189 OFFCURVE",
"554 236 OFFCURVE",
"581 284 CURVE",
"504 337 LINE",
"501 334 OFFCURVE",
"499 331 OFFCURVE",
"499 325 CURVE SMOOTH",
"499 320 OFFCURVE",
"500 315 OFFCURVE",
"500 310 CURVE SMOOTH",
"500 307 OFFCURVE",
"500 304 OFFCURVE",
"499 301 CURVE SMOOTH",
"490 273 OFFCURVE",
"473 239 OFFCURVE",
"445 206 CURVE",
"312 391 LINE",
"389 433 OFFCURVE",
"440 511 OFFCURVE",
"440 589 CURVE SMOOTH",
"440 680 OFFCURVE",
"371 746 OFFCURVE",
"282 746 CURVE SMOOTH"
);
},
{
closed = 1;
nodes = (
"201 641 OFFCURVE",
"238 676 OFFCURVE",
"280 676 CURVE SMOOTH",
"324 676 OFFCURVE",
"362 639 OFFCURVE",
"362 583 CURVE SMOOTH",
"362 529 OFFCURVE",
"327 472 OFFCURVE",
"272 442 CURVE",
"213 516 OFFCURVE",
"201 558 OFFCURVE",
"201 589 CURVE SMOOTH"
);
},
{
closed = 1;
nodes = (
"395 146 LINE",
"395 146 OFFCURVE",
"330 63 OFFCURVE",
"251 63 CURVE SMOOTH",
"190 63 OFFCURVE",
"143 113 OFFCURVE",
"143 182 CURVE SMOOTH",
"143 243 OFFCURVE",
"181 310 OFFCURVE",
"244 351 CURVE"
);
}
);
width = 613;
},
{
layerId = "BAF923F9-5AD6-4831-8548-4755EA67E8F3";
name = Italic;
paths = (
{
closed = 1;
nodes = (
"323 747 OFFCURVE",
"239 680 OFFCURVE",
"223 591 CURVE SMOOTH",
"212 526 OFFCURVE",
"239 460 OFFCURVE",
"274 407 CURVE",
"174 357 OFFCURVE",
"100 264 OFFCURVE",
"84 173 CURVE SMOOTH",
"65 67 OFFCURVE",
"129 -12 OFFCURVE",
"236 -12 CURVE SMOOTH",
"316 -12 OFFCURVE",
"397 32 OFFCURVE",
"454 90 CURVE",
"501 -14 LINE",
"580 38 LINE",
"516 145 LINE",
"557 189 OFFCURVE",
"596 236 OFFCURVE",
"631 284 CURVE",
"563 337 LINE",
"560 334 OFFCURVE",
"557 331 OFFCURVE",
"556 325 CURVE SMOOTH",
"555 320 OFFCURVE",
"556 315 OFFCURVE",
"555 310 CURVE",
"552 301 LINE",
"538 273 OFFCURVE",
"516 239 OFFCURVE",
"482 206 CURVE",
"381 391 LINE",
"466 433 OFFCURVE",
"530 511 OFFCURVE",
"544 589 CURVE SMOOTH",
"560 680 OFFCURVE",
"502 747 OFFCURVE",
"413 747 CURVE SMOOTH"
);
},
{
closed = 1;
nodes = (
"314 641 OFFCURVE",
"358 676 OFFCURVE",
"400 676 CURVE SMOOTH",
"444 676 OFFCURVE",
"475 639 OFFCURVE",
"465 583 CURVE SMOOTH",
"455 529 OFFCURVE",
"410 472 OFFCURVE",
"350 442 CURVE",
"304 516 OFFCURVE",
"299 558 OFFCURVE",
"305 589 CURVE SMOOTH"
);
},
{
closed = 1;
nodes = (
"421 146 LINE",
"421 146 OFFCURVE",
"341 64 OFFCURVE",
"262 64 CURVE SMOOTH",
"201 64 OFFCURVE",
"163 113 OFFCURVE",
"175 182 CURVE SMOOTH",
"186 243 OFFCURVE",
"236 310 OFFCURVE",
"306 351 CURVE"
);
}
);
width = 613;
},
{
layerId = "C881373A-603B-4244-9A15-33852008E0AB";
name = Bold;
paths = (
{
closed = 1;
nodes = (
"103 519 OFFCURVE",
"139 459 OFFCURVE",
"180 409 CURVE",
"95 358 OFFCURVE",
"38 270 OFFCURVE",
"38 181 CURVE SMOOTH",
"38 72 OFFCURVE",
"123 -12 OFFCURVE",
"238 -12 CURVE SMOOTH",
"316 -12 OFFCURVE",
"386 26 OFFCURVE",
"436 80 CURVE",
"500 -21 LINE",
"595 48 LINE",
"510 154 LINE",
"541 194 OFFCURVE",
"569 237 OFFCURVE",
"594 280 CURVE",
"601 291 LINE",
"503 357 LINE",
"493 349 LINE SMOOTH",
"487 344 OFFCURVE",
"483 336 OFFCURVE",
"483 326 CURVE SMOOTH",
"483 318 OFFCURVE",
"485 313 OFFCURVE",
"485 312 CURVE SMOOTH",
"485 311 OFFCURVE",
"485 310 OFFCURVE",
"484 308 CURVE",
"477 287 OFFCURVE",
"465 261 OFFCURVE",
"446 236 CURVE",
"335 386 LINE",
"407 430 OFFCURVE",
"456 504 OFFCURVE",
"456 580 CURVE SMOOTH",
"456 676 OFFCURVE",
"379 747 OFFCURVE",
"282 747 CURVE SMOOTH",
"184 747 OFFCURVE",
"103 676 OFFCURVE",
"103 582 CURVE SMOOTH"
);
},
{
closed = 1;
nodes = (
"314 646 OFFCURVE",
"347 617 OFFCURVE",
"347 568 CURVE SMOOTH",
"347 524 OFFCURVE",
"321 476 OFFCURVE",
"276 447 CURVE",
"226 513 OFFCURVE",
"216 549 OFFCURVE",
"216 574 CURVE SMOOTH",
"216 618 OFFCURVE",
"247 646 OFFCURVE",
"280 646 CURVE SMOOTH"
);
},
{
closed = 1;
nodes = (
"394 122 LINE",
"411 146 LINE",
"411 100 LINE"
);
},
{
closed = 1;
nodes = (
"199 95 OFFCURVE",
"158 136 OFFCURVE",
"158 197 CURVE SMOOTH",
"158 248 OFFCURVE",
"188 306 OFFCURVE",
"240 345 CURVE",
"376 163 LINE",
"356 142 OFFCURVE",
"305 95 OFFCURVE",
"251 95 CURVE SMOOTH"
);
}
);
width = 613;
},
{
layerId = "99972075-B5E0-48DB-B31E-BE77C67EF09D";
name = "Bold Italic";
paths = (
{
closed = 1;
nodes = (
"195 519 OFFCURVE",
"220 459 OFFCURVE",
"252 409 CURVE",
"158 358 OFFCURVE",
"86 270 OFFCURVE",
"70 181 CURVE SMOOTH",
"51 72 OFFCURVE",
"121 -12 OFFCURVE",
"236 -12 CURVE SMOOTH",
"314 -12 OFFCURVE",
"390 26 OFFCURVE",
"450 80 CURVE",
"496 -21 LINE",
"603 48 LINE",
"537 154 LINE",
"575 194 OFFCURVE",
"610 237 OFFCURVE",
"643 280 CURVE SMOOTH",
"652 291 LINE",
"565 357 LINE",
"555 349 LINE",
"548 344 OFFCURVE",
"543 336 OFFCURVE",
"541 326 CURVE",
"540 318 OFFCURVE",
"540 313 OFFCURVE",
"540 312 CURVE SMOOTH",
"540 311 OFFCURVE",
"539 310 OFFCURVE",
"538 308 CURVE SMOOTH",
"527 287 OFFCURVE",
"512 261 OFFCURVE",
"488 236 CURVE",
"403 386 LINE",
"483 430 OFFCURVE",
"545 504 OFFCURVE",
"558 580 CURVE SMOOTH",
"575 676 OFFCURVE",
"510 747 OFFCURVE",
"413 747 CURVE SMOOTH",
"315 747 OFFCURVE",
"223 676 OFFCURVE",
"206 582 CURVE SMOOTH"
);
},
{
closed = 1;
nodes = (
"428 646 OFFCURVE",
"456 617 OFFCURVE",
"447 568 CURVE SMOOTH",
"439 524 OFFCURVE",
"405 476 OFFCURVE",
"355 447 CURVE",
"316 513 OFFCURVE",
"313 549 OFFCURVE",
"317 574 CURVE SMOOTH",
"325 618 OFFCURVE",
"361 646 OFFCURVE",
"394 646 CURVE SMOOTH"
);
},
{
closed = 1;
nodes = (
"416 122 LINE",
"436 146 LINE",
"428 100 LINE"
);
},
{
closed = 1;
nodes = (
"216 95 OFFCURVE",
"182 136 OFFCURVE",
"193 197 CURVE SMOOTH",
"202 248 OFFCURVE",
"242 306 OFFCURVE",
"301 345 CURVE",
"404 163 LINE",
"380 142 OFFCURVE",
"322 95 OFFCURVE",
"268 95 CURVE SMOOTH"
);
}
);
width = 613;
}
);
note = ampersand;
unicode = 0026;
},
{
glyphname = quotesingle;
lastChange = "2016-10-27 22:44:17 +0000";
layers = (
{
layerId = "0945ADEB-DFBA-48BC-A89F-108FA066EBC6";
name = Regular;
paths = (
{
closed = 1;
nodes = (
"381 723 LINE SMOOTH",
"381 777 OFFCURVE",
"358 791 OFFCURVE",
"335 791 CURVE SMOOTH",
"312 791 OFFCURVE",
"279 770 OFFCURVE",
"279 723 CURVE SMOOTH",
"279 664 LINE SMOOTH",
"279 641 OFFCURVE",
"287 626 OFFCURVE",
"281 606 CURVE",
"283 555 OFFCURVE",
"279 555 OFFCURVE",
"283 504 CURVE",
"383 504 LINE",
"381 610 LINE"
);
}
);
width = 613;
},
{
layerId = "BAF923F9-5AD6-4831-8548-4755EA67E8F3";
name = Italic;
paths = (
{
closed = 1;
nodes = (
"508 723 LINE SMOOTH",
"517 777 OFFCURVE",
"498 791 OFFCURVE",
"475 791 CURVE SMOOTH",
"452 791 OFFCURVE",
"414 770 OFFCURVE",
"406 723 CURVE SMOOTH",
"396 664 LINE SMOOTH",
"392 641 OFFCURVE",
"397 626 OFFCURVE",
"387 606 CURVE",
"380 555 OFFCURVE",
"376 555 OFFCURVE",
"371 504 CURVE",
"472 504 LINE",
"489 610 LINE"
);
}
);
width = 613;
},
{
layerId = "C881373A-603B-4244-9A15-33852008E0AB";
name = Bold;
paths = (
{
closed = 1;
nodes = (
"304 791 OFFCURVE",
"263 766 OFFCURVE",
"263 716 CURVE SMOOTH",
"263 663 LINE SMOOTH",
"263 637 OFFCURVE",
"270 627 OFFCURVE",
"266 615 CURVE",
"265 613 LINE",
"265 611 LINE",
"267 566 OFFCURVE",
"263 565 OFFCURVE",
"267 518 CURVE",
"268 473 LINE",
"399 473 LINE",
"396 595 LINE",
"396 708 LINE SMOOTH",
"396 767 OFFCURVE",
"368 791 OFFCURVE",
"335 791 CURVE SMOOTH"
);
}
);
width = 613;
},
{
layerId = "99972075-B5E0-48DB-B31E-BE77C67EF09D";
name = "Bold Italic";
paths = (
{
closed = 1;
nodes = (
"444 791 OFFCURVE",
"398 766 OFFCURVE",
"389 716 CURVE SMOOTH",
"380 663 LINE SMOOTH",
"375 637 OFFCURVE",
"381 627 OFFCURVE",
"374 615 CURVE",
"373 613 LINE",
"373 611 LINE",
"367 566 OFFCURVE",
"363 565 OFFCURVE",
"359 518 CURVE",
"352 473 LINE",
"482 473 LINE",
"501 595 LINE",
"521 708 LINE SMOOTH",
"531 767 OFFCURVE",
"508 791 OFFCURVE",
"475 791 CURVE SMOOTH"
);
}
);
width = 613;
}
);
note = quotesingle;
unicode = 0027;
},
{
glyphname = parenleft;
lastChange = "2016-10-27 22:44:17 +0000";
layers = (
{
layerId = "0945ADEB-DFBA-48BC-A89F-108FA066EBC6";
name = Regular;
paths = (
{
closed = 1;
nodes = (
"475 791 LINE",
"291 710 OFFCURVE",
"175 524 OFFCURVE",
"175 307 CURVE SMOOTH",
"175 91 OFFCURVE",
"288 -106 OFFCURVE",
"476 -205 CURVE",
"515 -142 LINE",
"353 -48 OFFCURVE",
"257 127 OFFCURVE",
"257 311 CURVE SMOOTH",
"257 480 OFFCURVE",
"339 631 OFFCURVE",
"478 713 CURVE",
"481 715 OFFCURVE",
"484 717 OFFCURVE",
"489 717 CURVE SMOOTH",
"493 717 OFFCURVE",
"496 715 OFFCURVE",
"501 715 CURVE SMOOTH",
"503 715 OFFCURVE",
"507 716 OFFCURVE",
"511 718 CURVE"
);
}
);
width = 613;
},
{
layerId = "BAF923F9-5AD6-4831-8548-4755EA67E8F3";
name = Italic;
paths = (
{
closed = 1;
nodes = (
"615 791 LINE",
"417 710 OFFCURVE",
"267 524 OFFCURVE",
"229 307 CURVE SMOOTH",
"191 91 OFFCURVE",
"269 -106 OFFCURVE",
"440 -205 CURVE",
"490 -142 LINE",
"344 -48 OFFCURVE",
"279 127 OFFCURVE",
"312 311 CURVE SMOOTH",
"342 480 OFFCURVE",
"451 631 OFFCURVE",
"604 713 CURVE",
"607 715 OFFCURVE",
"610 717 OFFCURVE",
"615 717 CURVE SMOOTH",
"619 717 OFFCURVE",
"623 715 OFFCURVE",
"628 715 CURVE SMOOTH",
"630 715 OFFCURVE",
"634 716 OFFCURVE",
"638 718 CURVE"
);
}
);
width = 613;
},
{
layerId = "C881373A-603B-4244-9A15-33852008E0AB";
name = Bold;
paths = (
{
closed = 1;
nodes = (
"469 789 LINE SMOOTH",
"279 708 OFFCURVE",
"159 522 OFFCURVE",
"159 306 CURVE SMOOTH",
"159 92 OFFCURVE",
"276 -105 OFFCURVE",
"469 -203 CURVE SMOOTH",
"482 -210 LINE",
"536 -124 LINE",
"523 -117 LINE SMOOTH",
"366 -28 OFFCURVE",
"273 136 OFFCURVE",
"273 310 CURVE SMOOTH",
"273 470 OFFCURVE",
"352 612 OFFCURVE",
"486 688 CURVE",
"488 689 OFFCURVE",
"489 689 OFFCURVE",
"489 689 CURVE",
"490 689 OFFCURVE",
"493 688 OFFCURVE",
"501 688 CURVE SMOOTH",
"504 688 OFFCURVE",
"512 688 OFFCURVE",
"519 692 CURVE SMOOTH",
"531 699 LINE",
"482 795 LINE"
);
}
);
width = 613;
},
{
layerId = "99972075-B5E0-48DB-B31E-BE77C67EF09D";
name = "Bold Italic";
paths = (
{
closed = 1;
nodes = (
"608 789 LINE SMOOTH",
"404 708 OFFCURVE",
"251 522 OFFCURVE",
"213 306 CURVE SMOOTH",
"175 92 OFFCURVE",
"257 -105 OFFCURVE",
"433 -203 CURVE SMOOTH",
"445 -210 LINE",
"515 -124 LINE",
"502 -117 LINE",
"360 -28 OFFCURVE",
"296 136 OFFCURVE",
"327 310 CURVE SMOOTH",
"355 470 OFFCURVE",
"460 612 OFFCURVE",
"607 688 CURVE SMOOTH",
"609 689 OFFCURVE",
"610 689 OFFCURVE",
"610 689 CURVE",
"611 689 OFFCURVE",
"615 688 OFFCURVE",
"623 688 CURVE SMOOTH",
"626 688 OFFCURVE",
"633 688 OFFCURVE",
"641 692 CURVE SMOOTH",
"654 699 LINE",
"623 795 LINE"
);
}
);
width = 613;
}
);
note = parenleft;
unicode = 0028;
},
{
glyphname = parenright;
lastChange = "2016-10-27 22:44:17 +0000";
layers = (
{
layerId = "0945ADEB-DFBA-48BC-A89F-108FA066EBC6";
name = Regular;
paths = (
{
closed = 1;
nodes = (
"102 716 LINE",
"259 633 OFFCURVE",
"358 470 OFFCURVE",
"358 294 CURVE SMOOTH",
"358 115 OFFCURVE",
"256 -50 OFFCURVE",
"96 -135 CURVE",
"119 -207 LINE",
"316 -113 OFFCURVE",
"442 84 OFFCURVE",
"442 297 CURVE SMOOTH",
"442 508 OFFCURVE",
"318 701 OFFCURVE",
"125 790 CURVE"
);
}
);
width = 613;
},
{
layerId = "BAF923F9-5AD6-4831-8548-4755EA67E8F3";
name = Italic;
paths = (
{
closed = 1;
nodes = (
"229 716 LINE",
"371 633 OFFCURVE",
"441 470 OFFCURVE",
"410 294 CURVE SMOOTH",
"379 115 OFFCURVE",
"247 -50 OFFCURVE",
"72 -135 CURVE",
"82 -207 LINE",
"295 -113 OFFCURVE",
"457 84 OFFCURVE",
"495 297 CURVE SMOOTH",
"532 508 OFFCURVE",
"441 701 OFFCURVE",
"264 790 CURVE"
);
}
);
width = 613;
},
{
layerId = "C881373A-603B-4244-9A15-33852008E0AB";
name = Bold;
paths = (
{
closed = 1;
nodes = (
"95 690 LINE SMOOTH",
"247 612 OFFCURVE",
"343 459 OFFCURVE",
"343 294 CURVE SMOOTH",
"343 126 OFFCURVE",
"244 -29 OFFCURVE",
"89 -109 CURVE SMOOTH",
"78 -115 LINE",
"109 -213 LINE",
"125 -205 LINE SMOOTH",
"327 -112 OFFCURVE",
"458 84 OFFCURVE",
"458 297 CURVE SMOOTH",
"458 508 OFFCURVE",
"329 700 OFFCURVE",
"131 788 CURVE SMOOTH",
"115 795 LINE",
"84 696 LINE"
);
}
);
width = 613;
},
{
layerId = "99972075-B5E0-48DB-B31E-BE77C67EF09D";
name = "Bold Italic";
paths = (
{
closed = 1;
nodes = (
"217 690 LINE SMOOTH",
"355 612 OFFCURVE",
"424 459 OFFCURVE",
"395 294 CURVE SMOOTH",
"365 126 OFFCURVE",
"240 -29 OFFCURVE",
"70 -109 CURVE SMOOTH",
"57 -115 LINE",
"72 -213 LINE",
"89 -205 LINE",
"307 -112 OFFCURVE",
"472 84 OFFCURVE",
"510 297 CURVE SMOOTH",
"547 508 OFFCURVE",
"453 700 OFFCURVE",
"270 788 CURVE SMOOTH",
"256 795 LINE",
"207 696 LINE"
);
}
);
width = 613;
}
);
note = parenright;
unicode = 0029;
},
{
glyphname = asterisk;
lastChange = "2016-10-27 22:44:17 +0000";
layers = (
{
layerId = "0945ADEB-DFBA-48BC-A89F-108FA066EBC6";
name = Regular;
paths = (
{
closed = 1;
nodes = (
"263 615 LINE",
"282 406 LINE",
"90 496 LINE",
"59 419 LINE",
"264 356 LINE",
"110 178 LINE",
"174 126 LINE",
"307 324 LINE",
"435 127 LINE",
"500 178 LINE",
"350 357 LINE",
"554 419 LINE",
"522 492 LINE",
"334 406 LINE",
"352 584 LINE SMOOTH",
"354 599 OFFCURVE",
"357 601 OFFCURVE",
"359 615 CURVE"
);
}
);
width = 613;
},
{
layerId = "BAF923F9-5AD6-4831-8548-4755EA67E8F3";
name = Italic;
paths = (
{
closed = 1;
nodes = (
"372 615 LINE",
"353 406 LINE",
"178 496 LINE",
"133 419 LINE",
"327 356 LINE",
"141 178 LINE",
"196 126 LINE",
"364 324 LINE",
"458 127 LINE",
"531 178 LINE",
"413 357 LINE",
"628 419 LINE",
"609 492 LINE",
"405 406 LINE",
"455 584 LINE SMOOTH",
"459 599 OFFCURVE",
"463 601 OFFCURVE",
"468 615 CURVE"
);
}
);
width = 613;
},
{
layerId = "C881373A-603B-4244-9A15-33852008E0AB";
name = Bold;
paths = (
{
closed = 1;
nodes = (
"246 615 LINE",
"264 417 LINE",
"82 503 LINE",
"39 394 LINE",
"237 349 LINE",
"88 176 LINE",
"177 115 LINE",
"307 296 LINE",
"432 116 LINE",
"522 176 LINE",
"377 349 LINE",
"575 394 LINE",
"530 498 LINE",
"352 417 LINE",
"368 581 LINE SMOOTH",
"369 592 OFFCURVE",
"372 594 OFFCURVE",
"375 611 CURVE",
"377 615 LINE"
);
}
);
width = 613;
},
{
layerId = "99972075-B5E0-48DB-B31E-BE77C67EF09D";
name = "Bold Italic";
paths = (
{
closed = 1;
nodes = (
"355 615 LINE",
"337 417 LINE",
"171 503 LINE",
"108 394 LINE",
"299 349 LINE",
"119 176 LINE",
"198 115 LINE",
"359 296 LINE",
"452 116 LINE",
"553 176 LINE",
"438 349 LINE",
"645 394 LINE",
"618 498 LINE",
"425 417 LINE",
"470 581 LINE SMOOTH",
"473 592 OFFCURVE",
"476 594 OFFCURVE",
"482 611 CURVE",
"486 615 LINE"
);
}
);
width = 613;
}
);
note = asterisk;
unicode = 002A;
},
{
glyphname = plus;
lastChange = "2016-10-27 22:44:17 +0000";
layers = (
{
layerId = "0945ADEB-DFBA-48BC-A89F-108FA066EBC6";
name = Regular;
paths = (
{
closed = 1;
nodes = (
"273 621 LINE",
"273 418 LINE",
"63 418 LINE",
"63 345 LINE",
"273 345 LINE",
"273 123 LINE",
"348 123 LINE",
"348 345 LINE",
"551 345 LINE",
"551 418 LINE",
"348 418 LINE",
"348 621 LINE"
);
}
);
width = 613;
},
{
layerId = "BAF923F9-5AD6-4831-8548-4755EA67E8F3";
name = Italic;
paths = (
{
closed = 1;
nodes = (
"383 621 LINE",
"347 418 LINE",
"137 418 LINE",
"124 345 LINE",
"334 345 LINE",
"295 123 LINE",
"370 123 LINE",
"409 345 LINE",
"612 345 LINE",
"625 418 LINE",
"422 418 LINE",
"458 621 LINE"
);
}
);
width = 613;
},
{
layerId = "C881373A-603B-4244-9A15-33852008E0AB";
name = Bold;
paths = (
{
closed = 1;
nodes = (
"258 433 LINE",
"48 433 LINE",
"48 330 LINE",
"258 330 LINE",
"258 108 LINE",
"364 108 LINE",
"364 330 LINE",
"566 330 LINE",
"566 433 LINE",
"364 433 LINE",
"364 621 LINE",
"258 621 LINE"
);
}
);
width = 613;
},
{
layerId = "99972075-B5E0-48DB-B31E-BE77C67EF09D";
name = "Bold Italic";
paths = (
{
closed = 1;
nodes = (
"334 433 LINE",
"125 433 LINE",
"106 330 LINE",
"316 330 LINE",
"277 108 LINE",
"382 108 LINE",
"422 330 LINE",
"624 330 LINE",
"643 433 LINE",
"440 433 LINE",
"473 621 LINE",
"367 621 LINE"
);
}
);
width = 613;
}
);
note = plus;
unicode = 002B;
},
{
glyphname = comma;
lastChange = "2016-10-27 22:44:17 +0000";
layers = (
{
layerId = "0945ADEB-DFBA-48BC-A89F-108FA066EBC6";
name = Regular;
paths = (
{
closed = 1;
nodes = (
"373 84 OFFCURVE",
"332 122 OFFCURVE",
"290 122 CURVE SMOOTH",
"251 122 OFFCURVE",
"222 90 OFFCURVE",
"222 54 CURVE SMOOTH",
"222 22 OFFCURVE",
"245 9 OFFCURVE",
"255 2 CURVE SMOOTH",
"265 -5 OFFCURVE",
"283 -17 OFFCURVE",
"283 -41 CURVE SMOOTH",
"283 -61 OFFCURVE",
"271 -80 OFFCURVE",
"265 -90 CURVE SMOOTH",
"253 -109 OFFCURVE",
"234 -138 OFFCURVE",
"206 -164 CURVE",
"247 -200 LINE",
"330 -116 OFFCURVE",
"373 -39 OFFCURVE",
"373 23 CURVE SMOOTH"
);
}
);
width = 613;
},
{
layerId = "BAF923F9-5AD6-4831-8548-4755EA67E8F3";
name = Italic;
paths = (
{
closed = 1;
nodes = (
"388 84 OFFCURVE",
"354 122 OFFCURVE",
"312 122 CURVE SMOOTH",
"273 122 OFFCURVE",
"238 90 OFFCURVE",
"232 54 CURVE SMOOTH",
"226 22 OFFCURVE",
"247 9 OFFCURVE",
"256 2 CURVE SMOOTH",
"265 -5 OFFCURVE",
"280 -17 OFFCURVE",
"276 -41 CURVE SMOOTH",
"273 -61 OFFCURVE",
"257 -80 OFFCURVE",
"250 -90 CURVE",
"235 -109 OFFCURVE",
"210 -138 OFFCURVE",
"177 -164 CURVE",
"212 -200 LINE",
"309 -116 OFFCURVE",
"366 -39 OFFCURVE",
"377 23 CURVE SMOOTH"
);
}
);
width = 613;
},
{
layerId = "C881373A-603B-4244-9A15-33852008E0AB";
name = Bold;
paths = (
{
closed = 1;
nodes = (
"242 122 OFFCURVE",
"207 83 OFFCURVE",
"207 39 CURVE SMOOTH",
"207 -2 OFFCURVE",
"237 -20 OFFCURVE",
"247 -27 CURVE",
"258 -33 OFFCURVE",
"268 -39 OFFCURVE",
"268 -52 CURVE SMOOTH",
"268 -64 OFFCURVE",
"258 -79 OFFCURVE",
"252 -87 CURVE",
"241 -103 OFFCURVE",
"222 -126 OFFCURVE",
"195 -147 CURVE SMOOTH",
"183 -157 LINE",
"248 -205 LINE",
"258 -195 LINE",
"342 -121 OFFCURVE",
"388 -52 OFFCURVE",
"388 8 CURVE SMOOTH",
"388 76 OFFCURVE",
"342 122 OFFCURVE",
"290 122 CURVE SMOOTH"
);
}
);
width = 613;
},
{
layerId = "99972075-B5E0-48DB-B31E-BE77C67EF09D";
name = "Bold Italic";
paths = (
{
closed = 1;
nodes = (
"264 122 OFFCURVE",
"222 83 OFFCURVE",
"214 39 CURVE SMOOTH",
"207 -2 OFFCURVE",
"233 -20 OFFCURVE",
"242 -27 CURVE",
"252 -33 OFFCURVE",
"261 -39 OFFCURVE",
"259 -52 CURVE SMOOTH",
"257 -64 OFFCURVE",
"244 -79 OFFCURVE",
"237 -87 CURVE SMOOTH",
"223 -103 OFFCURVE",
"199 -126 OFFCURVE",
"169 -147 CURVE SMOOTH",
"155 -157 LINE",
"211 -205 LINE",
"223 -195 LINE",
"320 -121 OFFCURVE",
"379 -52 OFFCURVE",
"390 8 CURVE SMOOTH",
"402 76 OFFCURVE",
"364 122 OFFCURVE",
"312 122 CURVE SMOOTH"
);
}
);
width = 613;
}
);
note = comma;
unicode = 002C;
},
{
glyphname = hyphen;
lastChange = "2016-10-27 22:44:17 +0000";
layers = (
{
layerId = "0945ADEB-DFBA-48BC-A89F-108FA066EBC6";
name = Regular;
paths = (
{
closed = 1;
nodes = (
"94 413 LINE",
"94 334 LINE",
"521 334 LINE",
"521 413 LINE"
);
}
);
width = 613;
},
{
layerId = "BAF923F9-5AD6-4831-8548-4755EA67E8F3";
name = Italic;
paths = (
{
closed = 1;
nodes = (
"167 413 LINE",
"153 334 LINE",
"580 334 LINE",
"594 413 LINE"
);
}
);
width = 613;
},
{
layerId = "C881373A-603B-4244-9A15-33852008E0AB";
name = Bold;
paths = (
{
closed = 1;
nodes = (
"79 334 LINE",
"537 334 LINE",
"537 443 LINE",
"79 443 LINE"
);
}
);
width = 613;
},
{
layerId = "99972075-B5E0-48DB-B31E-BE77C67EF09D";
name = "Bold Italic";
paths = (
{
closed = 1;
nodes = (
"138 334 LINE",
"595 334 LINE",
"615 443 LINE",
"157 443 LINE"
);
}
);
width = 613;
}
);
note = hyphen;
unicode = 002D;
},
{
glyphname = period;
lastChange = "2016-10-27 22:44:17 +0000";
layers = (
{
layerId = "0945ADEB-DFBA-48BC-A89F-108FA066EBC6";
name = Regular;
paths = (
{
closed = 1;
nodes = (
"364 92 OFFCURVE",
"332 123 OFFCURVE",
"293 123 CURVE SMOOTH",
"254 123 OFFCURVE",
"223 92 OFFCURVE",
"223 55 CURVE SMOOTH",
"223 18 OFFCURVE",
"254 -13 OFFCURVE",
"293 -13 CURVE SMOOTH",
"332 -13 OFFCURVE",
"364 18 OFFCURVE",
"364 55 CURVE SMOOTH"
);
}
);
width = 613;
},
{
layerId = "BAF923F9-5AD6-4831-8548-4755EA67E8F3";
name = Italic;
paths = (
{
closed = 1;
nodes = (
"380 92 OFFCURVE",
"354 123 OFFCURVE",
"315 123 CURVE SMOOTH",
"276 123 OFFCURVE",
"240 92 OFFCURVE",
"233 55 CURVE SMOOTH",
"226 18 OFFCURVE",
"252 -13 OFFCURVE",
"291 -13 CURVE SMOOTH",
"330 -13 OFFCURVE",
"366 18 OFFCURVE",
"373 55 CURVE SMOOTH"
);
}
);
width = 613;
},
{
layerId = "C881373A-603B-4244-9A15-33852008E0AB";
name = Bold;
paths = (
{
closed = 1;
nodes = (
"246 123 OFFCURVE",
"208 85 OFFCURVE",
"208 39 CURVE SMOOTH",
"208 -7 OFFCURVE",
"246 -44 OFFCURVE",
"293 -44 CURVE SMOOTH",
"340 -44 OFFCURVE",
"379 -7 OFFCURVE",
"379 39 CURVE SMOOTH",
"379 85 OFFCURVE",
"340 123 OFFCURVE",
"293 123 CURVE SMOOTH"
);
}
);
width = 613;
},
{
layerId = "99972075-B5E0-48DB-B31E-BE77C67EF09D";
name = "Bold Italic";
paths = (
{
closed = 1;
nodes = (
"268 123 OFFCURVE",
"223 85 OFFCURVE",
"215 39 CURVE SMOOTH",
"207 -7 OFFCURVE",
"239 -44 OFFCURVE",
"286 -44 CURVE SMOOTH",
"333 -44 OFFCURVE",
"378 -7 OFFCURVE",
"386 39 CURVE SMOOTH",
"394 85 OFFCURVE",
"362 123 OFFCURVE",
"315 123 CURVE SMOOTH"
);
}
);
width = 613;
}
);
note = period;
unicode = 002E;
},
{
glyphname = slash;
lastChange = "2016-10-27 22:44:17 +0000";
layers = (
{
layerId = "0945ADEB-DFBA-48BC-A89F-108FA066EBC6";
name = Regular;
paths = (
{
closed = 1;
nodes = (
"86 -15 LINE",
"156 -50 LINE",
"528 753 LINE",
"458 788 LINE"
);
}
);
width = 613;
},
{
layerId = "BAF923F9-5AD6-4831-8548-4755EA67E8F3";
name = Italic;
paths = (
{
closed = 1;
nodes = (
"83 -15 LINE",
"147 -50 LINE",
"661 753 LINE",
"597 788 LINE"
);
}
);
width = 613;
},
{
layerId = "C881373A-603B-4244-9A15-33852008E0AB";
name = Bold;
paths = (
{
closed = 1;
nodes = (
"163 -56 LINE",
"549 746 LINE",
"450 794 LINE",
"66 -7 LINE"
);
}
);
width = 613;
},
{
layerId = "99972075-B5E0-48DB-B31E-BE77C67EF09D";
name = "Bold Italic";
paths = (
{
closed = 1;
nodes = (
"153 -56 LINE",
"680 746 LINE",
"590 794 LINE",
"65 -7 LINE"
);
}
);
width = 613;
}
);
note = slash;
unicode = 002F;
},
{
glyphname = zero;
lastChange = "2016-10-27 22:44:17 +0000";
layers = (
{
layerId = "0945ADEB-DFBA-48BC-A89F-108FA066EBC6";
name = Regular;
paths = (
{
closed = 1;
nodes = (
"191 744 OFFCURVE",
"70 601 OFFCURVE",
"70 364 CURVE SMOOTH",
"70 125 OFFCURVE",
"193 -13 OFFCURVE",
"310 -13 CURVE SMOOTH",
"416 -13 OFFCURVE",
"544 103 OFFCURVE",
"544 357 CURVE SMOOTH",
"544 609 OFFCURVE",
"422 744 OFFCURVE",
"308 744 CURVE SMOOTH"
);
},
{
closed = 1;
nodes = (
"164 238 LINE",
"154 279 OFFCURVE",
"147 326 OFFCURVE",
"147 378 CURVE SMOOTH",
"147 567 OFFCURVE",
"234 672 OFFCURVE",
"307 672 CURVE SMOOTH",
"347 672 OFFCURVE",
"392 640 OFFCURVE",
"424 575 CURVE"
);
},
{
closed = 1;
nodes = (
"451 496 LINE",
"461 454 OFFCURVE",
"467 405 OFFCURVE",
"467 348 CURVE SMOOTH",
"467 141 OFFCURVE",
"378 62 OFFCURVE",
"313 62 CURVE SMOOTH",
"269 62 OFFCURVE",
"223 98 OFFCURVE",
"191 163 CURVE"
);
}
);
width = 613;
},
{
layerId = "BAF923F9-5AD6-4831-8548-4755EA67E8F3";
name = Italic;
paths = (
{
closed = 1;
nodes = (
"323 744 OFFCURVE",
"176 601 OFFCURVE",
"134 364 CURVE SMOOTH",
"92 125 OFFCURVE",
"190 -13 OFFCURVE",
"307 -13 CURVE SMOOTH",
"414 -13 OFFCURVE",
"562 103 OFFCURVE",
"607 357 CURVE SMOOTH",
"651 609 OFFCURVE",
"554 744 OFFCURVE",
"440 744 CURVE SMOOTH"
);
},
{
closed = 1;
nodes = (
"206 238 LINE",
"203 279 OFFCURVE",
"205 326 OFFCURVE",
"214 378 CURVE SMOOTH",
"247 567 OFFCURVE",
"353 672 OFFCURVE",
"426 672 CURVE SMOOTH",
"466 672 OFFCURVE",
"505 640 OFFCURVE",
"525 575 CURVE"
);
},
{
closed = 1;
nodes = (
"539 496 LINE",
"541 454 OFFCURVE",
"538 405 OFFCURVE",
"528 348 CURVE SMOOTH",
"492 141 OFFCURVE",
"389 62 OFFCURVE",
"324 62 CURVE SMOOTH",
"280 62 OFFCURVE",
"241 98 OFFCURVE",
"220 163 CURVE"
);
}
);
width = 613;
},
{
layerId = "C881373A-603B-4244-9A15-33852008E0AB";
name = Bold;
paths = (
{
closed = 1;
nodes = (
"54 131 OFFCURVE",
"180 -13 OFFCURVE",
"310 -13 CURVE SMOOTH",
"429 -13 OFFCURVE",
"559 109 OFFCURVE",
"559 357 CURVE SMOOTH",
"559 603 OFFCURVE",
"435 744 OFFCURVE",
"308 744 CURVE SMOOTH",
"177 744 OFFCURVE",
"54 595 OFFCURVE",
"54 364 CURVE SMOOTH"
);
},
{
closed = 1;
nodes = (
"172 258 LINE",
"166 289 OFFCURVE",
"163 325 OFFCURVE",
"163 363 CURVE SMOOTH",
"163 550 OFFCURVE",
"248 641 OFFCURVE",
"307 641 CURVE SMOOTH",
"338 641 OFFCURVE",
"376 619 OFFCURVE",
"406 562 CURVE"
);
},
{
closed = 1;
nodes = (
"452 159 OFFCURVE",
"365 93 OFFCURVE",
"313 93 CURVE SMOOTH",
"280 93 OFFCURVE",
"240 119 OFFCURVE",
"209 177 CURVE",
"443 476 LINE",
"448 443 OFFCURVE",
"452 405 OFFCURVE",
"452 363 CURVE SMOOTH"
);
}
);
width = 613;
},
{
layerId = "99972075-B5E0-48DB-B31E-BE77C67EF09D";
name = "Bold Italic";
paths = (
{
closed = 1;
nodes = (
"77 131 OFFCURVE",
"177 -13 OFFCURVE",
"307 -13 CURVE SMOOTH",
"426 -13 OFFCURVE",
"578 109 OFFCURVE",
"622 357 CURVE SMOOTH",
"665 603 OFFCURVE",
"567 744 OFFCURVE",
"440 744 CURVE SMOOTH",
"309 744 OFFCURVE",
"159 595 OFFCURVE",
"118 364 CURVE SMOOTH"
);
},
{
closed = 1;
nodes = (
"217 258 LINE",
"217 289 OFFCURVE",
"220 325 OFFCURVE",
"227 363 CURVE SMOOTH",
"260 550 OFFCURVE",
"361 641 OFFCURVE",
"420 641 CURVE SMOOTH",
"451 641 OFFCURVE",
"485 619 OFFCURVE",
"505 562 CURVE"
);
},
{
closed = 1;
nodes = (
"480 159 OFFCURVE",
"381 93 OFFCURVE",
"329 93 CURVE SMOOTH",
"296 93 OFFCURVE",
"261 119 OFFCURVE",
"240 177 CURVE",
"527 476 LINE",
"527 443 OFFCURVE",
"523 405 OFFCURVE",
"516 363 CURVE SMOOTH"
);
}
);
width = 613;
}
);
note = zero;
unicode = 0030;
},
{
glyphname = one;
lastChange = "2016-10-27 22:44:17 +0000";
layers = (
{
layerId = "0945ADEB-DFBA-48BC-A89F-108FA066EBC6";
name = Regular;
paths = (
{
closed = 1;
nodes = (
"366 740 LINE",
"308 740 LINE",
"115 639 LINE",
"134 593 LINE",
"283 637 LINE",
"283 -1 LINE",
"366 -1 LINE"
);
}
);
width = 613;
},
{
layerId = "BAF923F9-5AD6-4831-8548-4755EA67E8F3";
name = Italic;
paths = (
{
closed = 1;
nodes = (
"496 740 LINE",
"439 740 LINE",
"227 639 LINE",
"239 593 LINE",
"395 637 LINE",
"282 -1 LINE",
"365 -1 LINE"
);
}
);
width = 613;
},
{
layerId = "C881373A-603B-4244-9A15-33852008E0AB";
name = Bold;
paths = (
{
closed = 1;
nodes = (
"304 740 LINE",
"95 635 LINE",
"125 566 LINE",
"267 607 LINE",
"267 -1 LINE",
"381 -1 LINE",
"381 740 LINE"
);
}
);
width = 613;
},
{
layerId = "99972075-B5E0-48DB-B31E-BE77C67EF09D";
name = "Bold Italic";
paths = (
{
closed = 1;
nodes = (
"435 740 LINE",
"207 635 LINE",
"225 566 LINE",
"374 607 LINE",
"267 -1 LINE",
"381 -1 LINE",
"511 740 LINE"
);
}
);
width = 613;
}
);
note = one;
unicode = 0031;
},
{
glyphname = two;
lastChange = "2016-10-27 22:44:17 +0000";
layers = (
{
layerId = "0945ADEB-DFBA-48BC-A89F-108FA066EBC6";
name = Regular;
paths = (
{
closed = 1;
nodes = (
"163 577 LINE",
"170 587 OFFCURVE",
"167 594 OFFCURVE",
"173 604 CURVE SMOOTH",
"190 631 OFFCURVE",
"235 671 OFFCURVE",
"300 671 CURVE SMOOTH",
"379 671 OFFCURVE",
"442 610 OFFCURVE",
"442 531 CURVE SMOOTH",
"442 441 OFFCURVE",
"366 375 OFFCURVE",
"312 327 CURVE SMOOTH",
"228 251 OFFCURVE",
"159 175 OFFCURVE",
"97 52 CURVE",
"97 0 LINE",
"531 0 LINE",
"531 83 LINE",
"523 86 OFFCURVE",
"517 80 OFFCURVE",
"515 78 CURVE",
"510 74 OFFCURVE",
"508 73 OFFCURVE",
"503 73 CURVE SMOOTH",
"193 73 LINE",
"255 181 OFFCURVE",
"341 254 OFFCURVE",
"394 304 CURVE SMOOTH",
"448 355 OFFCURVE",
"524 431 OFFCURVE",
"524 537 CURVE SMOOTH",
"524 652 OFFCURVE",
"430 744 OFFCURVE",
"309 744 CURVE SMOOTH",
"225 744 OFFCURVE",
"146 699 OFFCURVE",
"102 625 CURVE"
);
}
);
width = 613;
},
{
layerId = "BAF923F9-5AD6-4831-8548-4755EA67E8F3";
name = Italic;
paths = (
{
closed = 1;
nodes = (
"264 577 LINE",
"273 587 OFFCURVE",
"272 594 OFFCURVE",
"280 604 CURVE SMOOTH",
"302 631 OFFCURVE",
"353 671 OFFCURVE",
"418 671 CURVE SMOOTH",
"497 671 OFFCURVE",
"549 610 OFFCURVE",
"535 531 CURVE SMOOTH",
"519 441 OFFCURVE",
"432 375 OFFCURVE",
"370 327 CURVE SMOOTH",
"272 251 OFFCURVE",
"190 175 OFFCURVE",
"106 52 CURVE",
"97 0 LINE",
"531 0 LINE",
"546 83 LINE",
"539 86 OFFCURVE",
"532 80 OFFCURVE",
"529 78 CURVE SMOOTH",
"523 74 OFFCURVE",
"521 73 OFFCURVE",
"516 73 CURVE SMOOTH",
"205 73 LINE",
"286 181 OFFCURVE",
"385 254 OFFCURVE",
"447 304 CURVE SMOOTH",
"510 355 OFFCURVE",
"599 431 OFFCURVE",
"618 537 CURVE SMOOTH",
"638 652 OFFCURVE",
"562 744 OFFCURVE",
"441 744 CURVE SMOOTH",
"357 744 OFFCURVE",
"270 699 OFFCURVE",
"213 625 CURVE"
);
}
);
width = 613;
},
{
layerId = "C881373A-603B-4244-9A15-33852008E0AB";
name = Bold;
paths = (
{
closed = 1;
nodes = (
"82 606 LINE",
"166 539 LINE",
"175 552 LINE SMOOTH",
"186 568 OFFCURVE",
"184 577 OFFCURVE",
"186 580 CURVE SMOOTH",
"201 604 OFFCURVE",
"242 640 OFFCURVE",
"300 640 CURVE SMOOTH",
"371 640 OFFCURVE",
"426 589 OFFCURVE",
"426 521 CURVE SMOOTH",
"426 444 OFFCURVE",
"357 385 OFFCURVE",
"302 338 CURVE SMOOTH",
"217 265 OFFCURVE",
"147 190 OFFCURVE",
"84 71 CURVE",
"82 68 LINE",
"82 0 LINE",
"547 0 LINE",
"547 109 LINE",
"536 113 LINE SMOOTH",
"518 119 OFFCURVE",
"506 106 OFFCURVE",
"505 105 CURVE SMOOTH",
"504 104 OFFCURVE",
"505 104 OFFCURVE",
"504 103 CURVE",
"503 103 LINE",
"220 103 LINE",
"278 190 OFFCURVE",
"354 254 OFFCURVE",
"404 298 CURVE SMOOTH",
"458 346 OFFCURVE",
"539 423 OFFCURVE",
"539 532 CURVE SMOOTH",
"539 650 OFFCURVE",
"438 744 OFFCURVE",
"309 744 CURVE SMOOTH",
"220 744 OFFCURVE",
"135 696 OFFCURVE",
"89 617 CURVE"
);
}
);
width = 613;
},
{
layerId = "99972075-B5E0-48DB-B31E-BE77C67EF09D";
name = "Bold Italic";
paths = (
{
closed = 1;
nodes = (
"189 606 LINE",
"261 539 LINE",
"273 552 LINE SMOOTH",
"287 568 OFFCURVE",
"285 577 OFFCURVE",
"288 580 CURVE",
"307 604 OFFCURVE",
"355 640 OFFCURVE",
"413 640 CURVE SMOOTH",
"484 640 OFFCURVE",
"530 589 OFFCURVE",
"518 521 CURVE SMOOTH",
"504 444 OFFCURVE",
"424 385 OFFCURVE",
"361 338 CURVE SMOOTH",
"263 265 OFFCURVE",
"180 190 OFFCURVE",
"96 71 CURVE SMOOTH",
"94 68 LINE",
"82 0 LINE",
"547 0 LINE",
"566 109 LINE",
"556 113 LINE",
"539 119 OFFCURVE",
"525 106 OFFCURVE",
"524 105 CURVE SMOOTH",
"522 103 LINE",
"521 103 LINE",
"238 103 LINE",
"312 190 OFFCURVE",
"400 254 OFFCURVE",
"457 298 CURVE SMOOTH",
"520 346 OFFCURVE",
"614 423 OFFCURVE",
"633 532 CURVE SMOOTH",
"654 650 OFFCURVE",
"570 744 OFFCURVE",
"441 744 CURVE SMOOTH",
"352 744 OFFCURVE",
"258 696 OFFCURVE",
"198 617 CURVE"
);
}
);
width = 613;
}
);
note = two;
unicode = 0032;
},
{
glyphname = three;
lastChange = "2016-10-27 22:44:17 +0000";
layers = (
{
layerId = "0945ADEB-DFBA-48BC-A89F-108FA066EBC6";
name = Regular;
paths = (
{
closed = 1;
nodes = (
"498 655 OFFCURVE",
"411 742 OFFCURVE",
"294 742 CURVE SMOOTH",
"227 742 OFFCURVE",
"163 714 OFFCURVE",
"117 663 CURVE",
"163 611 LINE",
"197 648 OFFCURVE",
"244 668 OFFCURVE",
"290 668 CURVE SMOOTH",
"366 668 OFFCURVE",
"419 615 OFFCURVE",
"419 553 CURVE SMOOTH",
"419 508 OFFCURVE",
"391 459 OFFCURVE",
"340 437 CURVE SMOOTH",
"327 431 OFFCURVE",
"293 418 OFFCURVE",
"223 418 CURVE",
"223 351 LINE",
"235 353 OFFCURVE",
"248 354 OFFCURVE",
"261 354 CURVE SMOOTH",
"361 354 OFFCURVE",
"434 301 OFFCURVE",
"434 213 CURVE SMOOTH",
"434 132 OFFCURVE",
"373 63 OFFCURVE",
"286 63 CURVE SMOOTH",
"217 63 OFFCURVE",
"175 107 OFFCURVE",
"170 113 CURVE",
"160 124 OFFCURVE",
"166 135 OFFCURVE",
"155 146 CURVE",
"92 72 LINE",
"142 17 OFFCURVE",
"212 -12 OFFCURVE",
"286 -12 CURVE SMOOTH",
"428 -12 OFFCURVE",
"514 88 OFFCURVE",
"514 203 CURVE SMOOTH",
"514 291 OFFCURVE",
"464 366 OFFCURVE",
"387 394 CURVE",
"453 419 OFFCURVE",
"498 482 OFFCURVE",
"498 554 CURVE SMOOTH"
);
}
);
width = 613;
},
{
layerId = "BAF923F9-5AD6-4831-8548-4755EA67E8F3";
name = Italic;
paths = (
{
closed = 1;
nodes = (
"613 655 OFFCURVE",
"542 742 OFFCURVE",
"425 742 CURVE SMOOTH",
"358 742 OFFCURVE",
"289 714 OFFCURVE",
"234 663 CURVE",
"271 611 LINE",
"312 648 OFFCURVE",
"362 668 OFFCURVE",
"408 668 CURVE SMOOTH",
"484 668 OFFCURVE",
"527 615 OFFCURVE",
"516 553 CURVE SMOOTH",
"508 508 OFFCURVE",
"472 459 OFFCURVE",
"417 437 CURVE SMOOTH",
"403 431 OFFCURVE",
"367 418 OFFCURVE",
"297 418 CURVE",
"285 351 LINE",
"298 353 OFFCURVE",
"310 354 OFFCURVE",
"323 354 CURVE SMOOTH",
"423 354 OFFCURVE",
"488 301 OFFCURVE",
"472 213 CURVE SMOOTH",
"458 132 OFFCURVE",
"384 63 OFFCURVE",
"297 63 CURVE SMOOTH",
"228 63 OFFCURVE",
"194 107 OFFCURVE",
"190 113 CURVE",
"182 124 OFFCURVE",
"189 135 OFFCURVE",
"180 146 CURVE",
"105 72 LINE",
"145 17 OFFCURVE",
"210 -12 OFFCURVE",
"284 -12 CURVE SMOOTH",
"426 -12 OFFCURVE",
"530 88 OFFCURVE",
"550 203 CURVE SMOOTH",
"566 291 OFFCURVE",
"529 366 OFFCURVE",
"457 394 CURVE",
"528 419 OFFCURVE",
"582 482 OFFCURVE",
"595 554 CURVE SMOOTH"
);
}
);
width = 613;
},
{
layerId = "C881373A-603B-4244-9A15-33852008E0AB";
name = Bold;
paths = (
{
closed = 1;
nodes = (
"223 742 OFFCURVE",
"154 712 OFFCURVE",
"105 658 CURVE",
"96 647 LINE",
"163 573 LINE",
"174 585 LINE SMOOTH",
"206 619 OFFCURVE",
"249 637 OFFCURVE",
"290 637 CURVE SMOOTH",
"359 637 OFFCURVE",
"404 593 OFFCURVE",
"404 542 CURVE SMOOTH",
"404 505 OFFCURVE",
"379 464 OFFCURVE",
"334 445 CURVE SMOOTH",
"323 440 OFFCURVE",
"291 429 OFFCURVE",
"223 429 CURVE",
"208 428 LINE",
"208 334 LINE",
"225 336 LINE",
"237 338 OFFCURVE",
"249 339 OFFCURVE",
"261 339 CURVE SMOOTH",
"356 339 OFFCURVE",
"419 294 OFFCURVE",
"419 221 CURVE SMOOTH",
"419 152 OFFCURVE",
"364 93 OFFCURVE",
"286 93 CURVE SMOOTH",
"224 93 OFFCURVE",
"185 133 OFFCURVE",
"181 138 CURVE SMOOTH",
"178 142 OFFCURVE",
"183 155 OFFCURVE",
"166 173 CURVE SMOOTH",
"154 185 LINE",
"72 87 LINE",
"81 77 LINE SMOOTH",
"134 18 OFFCURVE",
"208 -12 OFFCURVE",
"286 -12 CURVE SMOOTH",
"436 -12 OFFCURVE",
"529 92 OFFCURVE",
"529 210 CURVE SMOOTH",
"529 288 OFFCURVE",
"489 357 OFFCURVE",
"423 393 CURVE",
"477 424 OFFCURVE",
"513 483 OFFCURVE",
"513 547 CURVE SMOOTH",
"513 653 OFFCURVE",
"419 742 OFFCURVE",
"294 742 CURVE SMOOTH"
);
}
);
width = 613;
},
{
layerId = "99972075-B5E0-48DB-B31E-BE77C67EF09D";
name = "Bold Italic";
paths = (
{
closed = 1;
nodes = (
"354 742 OFFCURVE",
"280 712 OFFCURVE",
"221 658 CURVE",
"210 647 LINE",
"264 573 LINE",
"277 585 LINE SMOOTH",
"315 619 OFFCURVE",
"362 637 OFFCURVE",
"403 637 CURVE SMOOTH",
"472 637 OFFCURVE",
"508 593 OFFCURVE",
"499 542 CURVE SMOOTH",
"492 505 OFFCURVE",
"461 464 OFFCURVE",
"412 445 CURVE SMOOTH",
"400 440 OFFCURVE",
"367 429 OFFCURVE",
"299 429 CURVE",
"283 428 LINE",
"267 334 LINE",
"285 336 LINE",
"297 338 OFFCURVE",
"308 339 OFFCURVE",
"320 339 CURVE SMOOTH",
"415 339 OFFCURVE",
"471 294 OFFCURVE",
"458 221 CURVE SMOOTH",
"446 152 OFFCURVE",
"380 93 OFFCURVE",
"302 93 CURVE SMOOTH",
"240 93 OFFCURVE",
"209 133 OFFCURVE",
"206 138 CURVE",
"203 142 OFFCURVE",
"210 155 OFFCURVE",
"196 173 CURVE SMOOTH",
"186 185 LINE",
"87 87 LINE",
"94 77 LINE SMOOTH",
"136 18 OFFCURVE",
"206 -12 OFFCURVE",
"284 -12 CURVE SMOOTH",
"434 -12 OFFCURVE",
"545 92 OFFCURVE",
"566 210 CURVE SMOOTH",
"580 288 OFFCURVE",
"552 357 OFFCURVE",
"492 393 CURVE",
"552 424 OFFCURVE",
"599 483 OFFCURVE",
"610 547 CURVE SMOOTH",
"629 653 OFFCURVE",
"550 742 OFFCURVE",
"425 742 CURVE SMOOTH"
);
}
);
width = 613;
}
);
note = three;
unicode = 0033;
},
{
glyphname = four;
lastChange = "2016-10-27 22:44:17 +0000";
layers = (
{
layerId = "0945ADEB-DFBA-48BC-A89F-108FA066EBC6";
name = Regular;
paths = (
{
closed = 1;
nodes = (
"382 740 LINE",
"68 266 LINE",
"68 205 LINE",
"366 205 LINE",
"366 0 LINE",
"452 0 LINE",
"452 204 LINE",
"547 204 LINE",
"547 278 LINE",
"452 278 LINE",
"452 740 LINE"
);
},
{
closed = 1;
nodes = (
"367 608 LINE",
"367 278 LINE",
"150 278 LINE"
);
}
);
width = 613;
},
{
layerId = "BAF923F9-5AD6-4831-8548-4755EA67E8F3";
name = Italic;
paths = (
{
closed = 1;
nodes = (
"512 740 LINE",
"115 266 LINE",
"104 205 LINE",
"402 205 LINE",
"366 0 LINE",
"452 0 LINE",
"488 204 LINE",
"583 204 LINE",
"596 278 LINE",
"501 278 LINE",
"582 740 LINE"
);
},
{
closed = 1;
nodes = (
"474 608 LINE",
"416 278 LINE",
"198 278 LINE"
);
}
);
width = 613;
},
{
layerId = "C881373A-603B-4244-9A15-33852008E0AB";
name = Bold;
paths = (
{
closed = 1;
nodes = (
"52 269 LINE",
"52 189 LINE",
"350 189 LINE",
"350 0 LINE",
"467 0 LINE",
"467 188 LINE",
"562 188 LINE",
"562 293 LINE",
"467 293 LINE",
"467 740 LINE",
"374 740 LINE"
);
},
{
closed = 1;
nodes = (
"351 293 LINE",
"178 293 LINE",
"351 557 LINE"
);
}
);
width = 613;
},
{
layerId = "99972075-B5E0-48DB-B31E-BE77C67EF09D";
name = "Bold Italic";
paths = (
{
closed = 1;
nodes = (
"100 269 LINE",
"86 189 LINE",
"384 189 LINE",
"350 0 LINE",
"467 0 LINE",
"500 188 LINE",
"595 188 LINE",
"614 293 LINE",
"519 293 LINE",
"597 740 LINE",
"504 740 LINE"
);
},
{
closed = 1;
nodes = (
"403 293 LINE",
"230 293 LINE",
"449 557 LINE"
);
}
);
width = 613;
}
);
note = four;
unicode = 0034;
},
{
glyphname = five;
lastChange = "2016-10-27 22:44:17 +0000";
layers = (
{
layerId = "0945ADEB-DFBA-48BC-A89F-108FA066EBC6";
name = Regular;
paths = (
{
closed = 1;
nodes = (
"136 739 LINE",
"111 364 LINE",
"164 342 LINE",
"200 387 OFFCURVE",
"252 412 OFFCURVE",
"302 412 CURVE SMOOTH",
"380 412 OFFCURVE",
"454 352 OFFCURVE",
"454 234 CURVE SMOOTH",
"454 120 OFFCURVE",
"383 59 OFFCURVE",
"304 59 CURVE SMOOTH",
"224 59 OFFCURVE",
"173 120 OFFCURVE",
"169 128 CURVE",
"164 137 OFFCURVE",
"170 149 OFFCURVE",
"160 156 CURVE",
"86 100 LINE",
"135 28 OFFCURVE",
"217 -13 OFFCURVE",
"305 -13 CURVE SMOOTH",
"433 -13 OFFCURVE",
"539 74 OFFCURVE",
"539 234 CURVE SMOOTH",
"539 392 OFFCURVE",
"439 480 OFFCURVE",
"315 480 CURVE SMOOTH",
"274 480 OFFCURVE",
"233 471 OFFCURVE",
"195 452 CURVE",
"206 665 LINE",
"511 665 LINE",
"511 739 LINE"
);
}
);
width = 613;
},
{
layerId = "BAF923F9-5AD6-4831-8548-4755EA67E8F3";
name = Italic;
paths = (
{
closed = 1;
nodes = (
"267 739 LINE",
"175 364 LINE",
"224 342 LINE",
"268 387 OFFCURVE",
"325 412 OFFCURVE",
"375 412 CURVE SMOOTH",
"453 412 OFFCURVE",
"516 353 OFFCURVE",
"495 235 CURVE SMOOTH",
"475 121 OFFCURVE",
"394 59 OFFCURVE",
"315 59 CURVE SMOOTH",
"235 59 OFFCURVE",
"194 120 OFFCURVE",
"191 128 CURVE",
"188 137 OFFCURVE",
"196 149 OFFCURVE",
"187 156 CURVE",
"104 100 LINE",
"140 28 OFFCURVE",
"215 -13 OFFCURVE",
"303 -13 CURVE SMOOTH",
"431 -13 OFFCURVE",
"552 74 OFFCURVE",
"580 234 CURVE SMOOTH",
"608 392 OFFCURVE",
"524 480 OFFCURVE",
"400 480 CURVE SMOOTH",
"359 480 OFFCURVE",
"316 471 OFFCURVE",
"274 452 CURVE",
"323 665 LINE",
"628 665 LINE",
"641 739 LINE"
);
}
);
width = 613;
},
{
layerId = "C881373A-603B-4244-9A15-33852008E0AB";
name = Bold;
paths = (
{
closed = 1;
nodes = (
"95 353 LINE",
"169 323 LINE",
"176 332 LINE SMOOTH",
"209 373 OFFCURVE",
"256 396 OFFCURVE",
"302 396 CURVE SMOOTH",
"371 396 OFFCURVE",
"438 348 OFFCURVE",
"438 243 CURVE SMOOTH",
"438 141 OFFCURVE",
"374 90 OFFCURVE",
"304 90 CURVE SMOOTH",
"236 90 OFFCURVE",
"188 141 OFFCURVE",
"182 150 CURVE",
"182 150 OFFCURVE",
"187 171 OFFCURVE",
"169 184 CURVE",
"160 190 LINE",
"65 119 LINE",
"73 107 LINE SMOOTH",
"125 30 OFFCURVE",
"212 -13 OFFCURVE",
"305 -13 CURVE SMOOTH",
"441 -13 OFFCURVE",
"554 78 OFFCURVE",
"554 241 CURVE SMOOTH",
"554 402 OFFCURVE",
"447 496 OFFCURVE",
"315 496 CURVE SMOOTH",
"280 496 OFFCURVE",
"246 489 OFFCURVE",
"211 476 CURVE",
"220 634 LINE",
"526 634 LINE",
"526 739 LINE",
"122 739 LINE"
);
}
);
width = 613;
},
{
layerId = "99972075-B5E0-48DB-B31E-BE77C67EF09D";
name = "Bold Italic";
paths = (
{
closed = 1;
nodes = (
"157 353 LINE",
"226 323 LINE",
"234 332 LINE",
"274 373 OFFCURVE",
"326 396 OFFCURVE",
"372 396 CURVE SMOOTH",
"441 396 OFFCURVE",
"500 348 OFFCURVE",
"481 243 CURVE SMOOTH",
"463 141 OFFCURVE",
"390 90 OFFCURVE",
"320 90 CURVE SMOOTH",
"252 90 OFFCURVE",
"214 141 OFFCURVE",
"209 150 CURVE",
"209 150 OFFCURVE",
"217 171 OFFCURVE",
"201 184 CURVE",
"193 190 LINE",
"86 119 LINE",
"92 107 LINE SMOOTH",
"130 30 OFFCURVE",
"210 -13 OFFCURVE",
"303 -13 CURVE SMOOTH",
"439 -13 OFFCURVE",
"568 78 OFFCURVE",
"597 241 CURVE SMOOTH",
"625 402 OFFCURVE",
"534 496 OFFCURVE",
"402 496 CURVE SMOOTH",
"367 496 OFFCURVE",
"332 489 OFFCURVE",
"295 476 CURVE",
"332 634 LINE",
"638 634 LINE",
"657 739 LINE",
"252 739 LINE"
);
}
);
width = 613;
}
);
note = five;
unicode = 0035;
},
{
glyphname = six;
lastChange = "2016-10-27 22:44:17 +0000";
layers = (
{
layerId = "0945ADEB-DFBA-48BC-A89F-108FA066EBC6";
name = Regular;
paths = (
{
closed = 1;
nodes = (
"263 748 OFFCURVE",
"167 693 OFFCURVE",
"122 564 CURVE SMOOTH",
"96 493 OFFCURVE",
"90 408 OFFCURVE",
"90 337 CURVE SMOOTH",
"90 250 OFFCURVE",
"98 158 OFFCURVE",
"145 86 CURVE SMOOTH",
"188 20 OFFCURVE",
"255 -12 OFFCURVE",
"321 -12 CURVE SMOOTH",
"434 -12 OFFCURVE",
"531 83 OFFCURVE",
"531 236 CURVE SMOOTH",
"531 390 OFFCURVE",
"433 477 OFFCURVE",
"329 477 CURVE SMOOTH",
"264 477 OFFCURVE",
"205 443 OFFCURVE",
"172 388 CURVE",
"176 641 OFFCURVE",
"298 674 OFFCURVE",
"351 674 CURVE SMOOTH",
"400 674 OFFCURVE",
"433 648 OFFCURVE",
"438 643 CURVE SMOOTH",
"445 636 OFFCURVE",
"445 624 OFFCURVE",
"456 616 CURVE",
"513 680 LINE",
"470 723 OFFCURVE",
"410 748 OFFCURVE",
"351 748 CURVE SMOOTH"
);
},
{
closed = 1;
nodes = (
"380 404 OFFCURVE",
"451 358 OFFCURVE",
"451 230 CURVE SMOOTH",
"451 115 OFFCURVE",
"387 61 OFFCURVE",
"324 61 CURVE SMOOTH",
"240 61 OFFCURVE",
"175 154 OFFCURVE",
"175 278 CURVE SMOOTH",
"175 287 OFFCURVE",
"175 296 OFFCURVE",
"176 305 CURVE",
"210 365 OFFCURVE",
"267 404 OFFCURVE",
"321 404 CURVE SMOOTH"
);
}
);
width = 613;
},
{
layerId = "BAF923F9-5AD6-4831-8548-4755EA67E8F3";
name = Italic;
paths = (
{
closed = 1;
nodes = (
"395 748 OFFCURVE",
"289 693 OFFCURVE",
"221 564 CURVE SMOOTH",
"183 493 OFFCURVE",
"162 408 OFFCURVE",
"150 337 CURVE SMOOTH",
"135 250 OFFCURVE",
"127 158 OFFCURVE",
"161 86 CURVE SMOOTH",
"192 20 OFFCURVE",
"252 -12 OFFCURVE",
"318 -12 CURVE SMOOTH",
"431 -12 OFFCURVE",
"546 83 OFFCURVE",
"573 236 CURVE SMOOTH",
"600 390 OFFCURVE",
"517 477 OFFCURVE",
"413 477 CURVE SMOOTH",
"348 477 OFFCURVE",
"283 443 OFFCURVE",
"240 388 CURVE",
"289 641 OFFCURVE",
"417 674 OFFCURVE",
"470 674 CURVE SMOOTH",
"519 674 OFFCURVE",
"548 648 OFFCURVE",
"552 643 CURVE SMOOTH",
"558 636 OFFCURVE",
"554 624 OFFCURVE",
"564 616 CURVE",
"633 680 LINE",
"598 723 OFFCURVE",
"542 748 OFFCURVE",
"483 748 CURVE SMOOTH"
);
},
{
closed = 1;
nodes = (
"451 404 OFFCURVE",
"514 358 OFFCURVE",
"491 230 CURVE SMOOTH",
"471 115 OFFCURVE",
"397 61 OFFCURVE",
"334 61 CURVE SMOOTH",
"250 61 OFFCURVE",
"202 154 OFFCURVE",
"224 278 CURVE",
"226 287 OFFCURVE",
"227 296 OFFCURVE",
"230 305 CURVE",
"274 365 OFFCURVE",
"338 404 OFFCURVE",
"392 404 CURVE SMOOTH"
);
}
);
width = 613;
},
{
layerId = "C881373A-603B-4244-9A15-33852008E0AB";
name = Bold;
paths = (
{
closed = 1;
nodes = (
"80 491 OFFCURVE",
"75 407 OFFCURVE",
"75 338 CURVE SMOOTH",
"75 254 OFFCURVE",
"83 162 OFFCURVE",
"133 89 CURVE SMOOTH",
"179 22 OFFCURVE",
"250 -12 OFFCURVE",
"321 -12 CURVE SMOOTH",
"443 -12 OFFCURVE",
"547 88 OFFCURVE",
"547 243 CURVE SMOOTH",
"547 399 OFFCURVE",
"443 493 OFFCURVE",
"329 493 CURVE SMOOTH",
"276 493 OFFCURVE",
"226 472 OFFCURVE",
"190 436 CURVE",
"207 623 OFFCURVE",
"308 643 OFFCURVE",
"351 643 CURVE SMOOTH",
"395 643 OFFCURVE",
"424 620 OFFCURVE",
"427 617 CURVE",
"427 617 OFFCURVE",
"430 602 OFFCURVE",
"447 589 CURVE SMOOTH",
"458 581 LINE",
"534 665 LINE",
"524 675 LINE SMOOTH",
"478 721 OFFCURVE",
"415 748 OFFCURVE",
"351 748 CURVE SMOOTH",
"256 748 OFFCURVE",
"154 691 OFFCURVE",
"107 562 CURVE SMOOTH"
);
},
{
closed = 1;
nodes = (
"435 135 OFFCURVE",
"377 92 OFFCURVE",
"324 92 CURVE SMOOTH",
"253 92 OFFCURVE",
"190 169 OFFCURVE",
"190 283 CURVE SMOOTH",
"190 291 OFFCURVE",
"190 297 OFFCURVE",
"191 305 CURVE",
"223 357 OFFCURVE",
"275 389 OFFCURVE",
"321 389 CURVE SMOOTH",
"371 389 OFFCURVE",
"435 353 OFFCURVE",
"435 238 CURVE SMOOTH"
);
}
);
width = 613;
},
{
layerId = "99972075-B5E0-48DB-B31E-BE77C67EF09D";
name = "Bold Italic";
paths = (
{
closed = 1;
nodes = (
"167 491 OFFCURVE",
"146 407 OFFCURVE",
"134 338 CURVE SMOOTH",
"119 254 OFFCURVE",
"111 162 OFFCURVE",
"148 89 CURVE SMOOTH",
"182 22 OFFCURVE",
"247 -12 OFFCURVE",
"318 -12 CURVE SMOOTH",
"440 -12 OFFCURVE",
"563 88 OFFCURVE",
"590 243 CURVE SMOOTH",
"617 399 OFFCURVE",
"530 493 OFFCURVE",
"416 493 CURVE SMOOTH",
"363 493 OFFCURVE",
"310 472 OFFCURVE",
"267 436 CURVE",
"317 623 OFFCURVE",
"422 643 OFFCURVE",
"465 643 CURVE SMOOTH",
"509 643 OFFCURVE",
"534 620 OFFCURVE",
"536 617 CURVE",
"536 617 OFFCURVE",
"535 602 OFFCURVE",
"550 589 CURVE",
"560 581 LINE",
"651 665 LINE",
"643 675 LINE SMOOTH",
"605 721 OFFCURVE",
"547 748 OFFCURVE",
"483 748 CURVE SMOOTH",
"388 748 OFFCURVE",
"276 691 OFFCURVE",
"206 562 CURVE SMOOTH"
);
},
{
closed = 1;
nodes = (
"459 135 OFFCURVE",
"393 92 OFFCURVE",
"340 92 CURVE SMOOTH",
"269 92 OFFCURVE",
"220 169 OFFCURVE",
"240 283 CURVE",
"241 291 OFFCURVE",
"243 297 OFFCURVE",
"245 305 CURVE",
"286 357 OFFCURVE",
"343 389 OFFCURVE",
"389 389 CURVE SMOOTH",
"439 389 OFFCURVE",
"497 353 OFFCURVE",
"477 238 CURVE SMOOTH"
);
}
);
width = 613;
}
);
note = six;
unicode = 0036;
},
{
glyphname = seven;
lastChange = "2016-10-27 22:44:17 +0000";
layers = (
{
layerId = "0945ADEB-DFBA-48BC-A89F-108FA066EBC6";
name = Regular;
paths = (
{
closed = 1;
nodes = (
"103 739 LINE",
"103 660 LINE",
"420 660 LINE",
"383 572 OFFCURVE",
"346 484 OFFCURVE",
"312 395 CURVE SMOOTH",
"262 264 OFFCURVE",
"215 133 OFFCURVE",
"171 0 CURVE",
"264 0 LINE",
"300 116 OFFCURVE",
"340 232 OFFCURVE",
"382 346 CURVE SMOOTH",
"425 463 OFFCURVE",
"472 579 OFFCURVE",
"522 693 CURVE",
"522 739 LINE"
);
}
);
width = 613;
},
{
layerId = "BAF923F9-5AD6-4831-8548-4755EA67E8F3";
name = Italic;
paths = (
{
closed = 1;
nodes = (
"234 739 LINE",
"220 660 LINE",
"536 660 LINE",
"483 572 OFFCURVE",
"432 484 OFFCURVE",
"382 395 CURVE SMOOTH",
"309 264 OFFCURVE",
"238 133 OFFCURVE",
"171 0 CURVE",
"264 0 LINE",
"321 116 OFFCURVE",
"380 232 OFFCURVE",
"443 346 CURVE SMOOTH",
"507 463 OFFCURVE",
"574 579 OFFCURVE",
"644 693 CURVE",
"653 739 LINE"
);
}
);
width = 613;
},
{
layerId = "C881373A-603B-4244-9A15-33852008E0AB";
name = Bold;
paths = (
{
closed = 1;
nodes = (
"88 630 LINE",
"397 630 LINE",
"363 554 OFFCURVE",
"330 475 OFFCURVE",
"298 397 CURVE SMOOTH",
"248 272 OFFCURVE",
"200 146 OFFCURVE",
"156 19 CURVE SMOOTH",
"150 0 LINE",
"276 0 LINE",
"279 10 LINE SMOOTH",
"315 122 OFFCURVE",
"354 233 OFFCURVE",
"396 342 CURVE SMOOTH",
"439 454 OFFCURVE",
"486 564 OFFCURVE",
"536 674 CURVE",
"538 677 LINE",
"538 739 LINE",
"88 739 LINE"
);
}
);
width = 613;
},
{
layerId = "99972075-B5E0-48DB-B31E-BE77C67EF09D";
name = "Bold Italic";
paths = (
{
closed = 1;
nodes = (
"199 630 LINE",
"508 630 LINE",
"461 554 OFFCURVE",
"413 475 OFFCURVE",
"368 397 CURVE SMOOTH",
"296 272 OFFCURVE",
"226 146 OFFCURVE",
"160 19 CURVE SMOOTH",
"150 0 LINE",
"276 0 LINE",
"281 10 LINE SMOOTH",
"337 122 OFFCURVE",
"395 233 OFFCURVE",
"457 342 CURVE SMOOTH",
"520 454 OFFCURVE",
"586 564 OFFCURVE",
"655 674 CURVE SMOOTH",
"657 677 LINE",
"668 739 LINE",
"218 739 LINE"
);
}
);
width = 613;
}
);
note = seven;
unicode = 0037;
},
{
glyphname = eight;
lastChange = "2016-10-27 22:44:17 +0000";
layers = (
{
layerId = "0945ADEB-DFBA-48BC-A89F-108FA066EBC6";
name = Regular;
paths = (
{
closed = 1;
nodes = (
"204 749 OFFCURVE",
"117 666 OFFCURVE",
"117 566 CURVE SMOOTH",
"117 493 OFFCURVE",
"162 427 OFFCURVE",
"229 393 CURVE",
"141 352 OFFCURVE",
"82 271 OFFCURVE",
"82 186 CURVE SMOOTH",
"82 76 OFFCURVE",
"179 -12 OFFCURVE",
"306 -12 CURVE SMOOTH",
"436 -12 OFFCURVE",
"534 78 OFFCURVE",
"534 191 CURVE SMOOTH",
"534 278 OFFCURVE",
"474 357 OFFCURVE",
"391 395 CURVE",
"463 433 OFFCURVE",
"509 503 OFFCURVE",
"509 574 CURVE SMOOTH",
"509 671 OFFCURVE",
"425 749 OFFCURVE",
"317 749 CURVE SMOOTH"
);
},
{
closed = 1;
nodes = (
"387 329 OFFCURVE",
"450 265 OFFCURVE",
"450 193 CURVE SMOOTH",
"450 122 OFFCURVE",
"389 62 OFFCURVE",
"310 62 CURVE SMOOTH",
"230 62 OFFCURVE",
"167 123 OFFCURVE",
"167 197 CURVE SMOOTH",
"167 267 OFFCURVE",
"222 330 OFFCURVE",
"292 359 CURVE"
);
},
{
closed = 1;
nodes = (
"376 679 OFFCURVE",
"428 630 OFFCURVE",
"428 568 CURVE SMOOTH",
"428 511 OFFCURVE",
"385 456 OFFCURVE",
"327 425 CURVE",
"327 425 OFFCURVE",
"197 475 OFFCURVE",
"197 573 CURVE SMOOTH",
"197 631 OFFCURVE",
"245 679 OFFCURVE",
"310 679 CURVE SMOOTH"
);
}
);
width = 613;
},
{
layerId = "BAF923F9-5AD6-4831-8548-4755EA67E8F3";
name = Italic;
paths = (
{
closed = 1;
nodes = (
"336 749 OFFCURVE",
"235 666 OFFCURVE",
"217 566 CURVE SMOOTH",
"204 493 OFFCURVE",
"238 427 OFFCURVE",
"299 393 CURVE",
"204 352 OFFCURVE",
"130 271 OFFCURVE",
"115 186 CURVE SMOOTH",
"96 76 OFFCURVE",
"177 -12 OFFCURVE",
"304 -12 CURVE SMOOTH",
"434 -12 OFFCURVE",
"548 78 OFFCURVE",
"568 191 CURVE SMOOTH",
"583 278 OFFCURVE",
"538 357 OFFCURVE",
"461 395 CURVE",
"539 433 OFFCURVE",
"597 503 OFFCURVE",
"610 574 CURVE SMOOTH",
"627 671 OFFCURVE",
"557 749 OFFCURVE",
"449 749 CURVE SMOOTH"
);
},
{
closed = 1;
nodes = (
"445 329 OFFCURVE",
"497 264 OFFCURVE",
"484 192 CURVE SMOOTH",
"471 121 OFFCURVE",
"400 62 OFFCURVE",
"321 62 CURVE SMOOTH",
"241 62 OFFCURVE",
"189 123 OFFCURVE",
"202 197 CURVE SMOOTH",
"214 267 OFFCURVE",
"279 330 OFFCURVE",
"355 359 CURVE"
);
},
{
closed = 1;
nodes = (
"496 679 OFFCURVE",
"539 630 OFFCURVE",
"528 568 CURVE SMOOTH",
"518 511 OFFCURVE",
"465 456 OFFCURVE",
"402 425 CURVE",
"402 425 OFFCURVE",
"281 475 OFFCURVE",
"298 573 CURVE SMOOTH",
"308 631 OFFCURVE",
"365 679 OFFCURVE",
"430 679 CURVE SMOOTH"
);
}
);
width = 613;
},
{
layerId = "C881373A-603B-4244-9A15-33852008E0AB";
name = Bold;
paths = (
{
closed = 1;
nodes = (
"101 492 OFFCURVE",
"139 432 OFFCURVE",
"198 393 CURVE",
"120 349 OFFCURVE",
"66 274 OFFCURVE",
"66 193 CURVE SMOOTH",
"66 78 OFFCURVE",
"172 -12 OFFCURVE",
"306 -12 CURVE SMOOTH",
"443 -12 OFFCURVE",
"549 80 OFFCURVE",
"549 198 CURVE SMOOTH",
"549 280 OFFCURVE",
"498 353 OFFCURVE",
"423 395 CURVE",
"484 434 OFFCURVE",
"524 499 OFFCURVE",
"524 566 CURVE SMOOTH",
"524 669 OFFCURVE",
"433 749 OFFCURVE",
"317 749 CURVE SMOOTH",
"196 749 OFFCURVE",
"101 664 OFFCURVE",
"101 559 CURVE SMOOTH"
);
},
{
closed = 1;
nodes = (
"434 145 OFFCURVE",
"382 93 OFFCURVE",
"310 93 CURVE SMOOTH",
"237 93 OFFCURVE",
"182 147 OFFCURVE",
"182 212 CURVE SMOOTH",
"182 272 OFFCURVE",
"229 330 OFFCURVE",
"293 358 CURVE",
"381 328 OFFCURVE",
"434 269 OFFCURVE",
"434 207 CURVE SMOOTH"
);
},
{
closed = 1;
nodes = (
"413 506 OFFCURVE",
"378 457 OFFCURVE",
"326 427 CURVE",
"299 439 OFFCURVE",
"212 486 OFFCURVE",
"212 558 CURVE SMOOTH",
"212 607 OFFCURVE",
"253 648 OFFCURVE",
"310 648 CURVE SMOOTH",
"368 648 OFFCURVE",
"413 606 OFFCURVE",
"413 553 CURVE SMOOTH"
);
}
);
width = 613;
},
{
layerId = "99972075-B5E0-48DB-B31E-BE77C67EF09D";
name = "Bold Italic";
paths = (
{
closed = 1;
nodes = (
"188 492 OFFCURVE",
"215 432 OFFCURVE",
"267 393 CURVE",
"181 349 OFFCURVE",
"114 274 OFFCURVE",
"100 193 CURVE SMOOTH",
"80 78 OFFCURVE",
"170 -12 OFFCURVE",
"304 -12 CURVE SMOOTH",
"441 -12 OFFCURVE",
"563 80 OFFCURVE",
"584 198 CURVE SMOOTH",
"598 280 OFFCURVE",
"559 353 OFFCURVE",
"492 395 CURVE",
"560 434 OFFCURVE",
"612 499 OFFCURVE",
"624 566 CURVE SMOOTH",
"642 669 OFFCURVE",
"565 749 OFFCURVE",
"449 749 CURVE SMOOTH",
"328 749 OFFCURVE",
"218 664 OFFCURVE",
"200 559 CURVE SMOOTH"
);
},
{
closed = 1;
nodes = (
"460 145 OFFCURVE",
"399 93 OFFCURVE",
"327 93 CURVE SMOOTH",
"254 93 OFFCURVE",
"208 147 OFFCURVE",
"220 212 CURVE SMOOTH",
"231 272 OFFCURVE",
"287 330 OFFCURVE",
"356 358 CURVE",
"439 328 OFFCURVE",
"482 269 OFFCURVE",
"471 207 CURVE SMOOTH"
);
},
{
closed = 1;
nodes = (
"502 506 OFFCURVE",
"458 457 OFFCURVE",
"401 427 CURVE",
"376 439 OFFCURVE",
"297 486 OFFCURVE",
"310 558 CURVE SMOOTH",
"319 607 OFFCURVE",
"368 648 OFFCURVE",
"425 648 CURVE SMOOTH",
"483 648 OFFCURVE",
"519 606 OFFCURVE",
"510 553 CURVE SMOOTH"
);
}
);
width = 613;
}
);
note = eight;
unicode = 0038;
},
{
glyphname = nine;
lastChange = "2016-10-27 22:44:17 +0000";
layers = (
{
layerId = "0945ADEB-DFBA-48BC-A89F-108FA066EBC6";
name = Regular;
paths = (
{
closed = 1;
nodes = (
"358 -12 OFFCURVE",
"453 42 OFFCURVE",
"498 160 CURVE SMOOTH",
"510 194 OFFCURVE",
"529 258 OFFCURVE",
"529 379 CURVE SMOOTH",
"529 472 OFFCURVE",
"521 536 OFFCURVE",
"504 586 CURVE SMOOTH",
"465 700 OFFCURVE",
"380 746 OFFCURVE",
"303 746 CURVE SMOOTH",
"187 746 OFFCURVE",
"91 645 OFFCURVE",
"91 502 CURVE SMOOTH",
"91 360 OFFCURVE",
"186 268 OFFCURVE",
"294 268 CURVE SMOOTH",
"355 268 OFFCURVE",
"411 298 OFFCURVE",
"446 348 CURVE",
"443 233 OFFCURVE",
"424 183 OFFCURVE",
"417 165 CURVE SMOOTH",
"385 90 OFFCURVE",
"323 63 OFFCURVE",
"270 63 CURVE SMOOTH",
"217 63 OFFCURVE",
"181 90 OFFCURVE",
"181 90 CURVE",
"171 98 OFFCURVE",
"174 111 OFFCURVE",
"162 119 CURVE",
"104 55 LINE",
"148 12 OFFCURVE",
"207 -12 OFFCURVE",
"268 -12 CURVE SMOOTH"
);
},
{
closed = 1;
nodes = (
"236 341 OFFCURVE",
"172 395 OFFCURVE",
"172 505 CURVE SMOOTH",
"172 613 OFFCURVE",
"233 673 OFFCURVE",
"301 673 CURVE SMOOTH",
"378 673 OFFCURVE",
"444 595 OFFCURVE",
"444 467 CURVE SMOOTH",
"444 456 OFFCURVE",
"443 443 OFFCURVE",
"442 431 CURVE",
"409 376 OFFCURVE",
"355 341 OFFCURVE",
"302 341 CURVE SMOOTH"
);
}
);
width = 613;
},
{
layerId = "BAF923F9-5AD6-4831-8548-4755EA67E8F3";
name = Italic;
paths = (
{
closed = 1;
nodes = (
"356 -12 OFFCURVE",
"460 42 OFFCURVE",
"526 160 CURVE SMOOTH",
"544 194 OFFCURVE",
"575 258 OFFCURVE",
"596 379 CURVE SMOOTH",
"612 472 OFFCURVE",
"616 536 OFFCURVE",
"607 586 CURVE SMOOTH",
"588 700 OFFCURVE",
"512 746 OFFCURVE",
"435 746 CURVE SMOOTH",
"319 746 OFFCURVE",
"205 645 OFFCURVE",
"180 502 CURVE SMOOTH",
"155 360 OFFCURVE",
"233 268 OFFCURVE",
"341 268 CURVE SMOOTH",
"402 268 OFFCURVE",
"464 298 OFFCURVE",
"508 348 CURVE",
"485 233 OFFCURVE",
"456 183 OFFCURVE",
"446 165 CURVE SMOOTH",
"401 90 OFFCURVE",
"335 63 OFFCURVE",
"282 63 CURVE SMOOTH",
"229 63 OFFCURVE",
"197 90 OFFCURVE",
"197 90 CURVE",
"188 98 OFFCURVE",
"194 111 OFFCURVE",
"183 119 CURVE",
"114 55 LINE",
"150 12 OFFCURVE",
"205 -12 OFFCURVE",
"266 -12 CURVE SMOOTH"
);
},
{
closed = 1;
nodes = (
"296 341 OFFCURVE",
"242 395 OFFCURVE",
"261 505 CURVE SMOOTH",
"280 613 OFFCURVE",
"352 673 OFFCURVE",
"420 673 CURVE SMOOTH",
"497 673 OFFCURVE",
"550 595 OFFCURVE",
"527 467 CURVE SMOOTH",
"525 456 OFFCURVE",
"521 443 OFFCURVE",
"518 431 CURVE",
"475 376 OFFCURVE",
"415 341 OFFCURVE",
"362 341 CURVE SMOOTH"
);
}
);
width = 613;
},
{
layerId = "C881373A-603B-4244-9A15-33852008E0AB";
name = Bold;
paths = (
{
closed = 1;
nodes = (
"525 197 OFFCURVE",
"545 260 OFFCURVE",
"545 378 CURVE SMOOTH",
"545 468 OFFCURVE",
"536 532 OFFCURVE",
"518 582 CURVE SMOOTH",
"477 697 OFFCURVE",
"386 746 OFFCURVE",
"303 746 CURVE SMOOTH",
"177 746 OFFCURVE",
"76 640 OFFCURVE",
"76 494 CURVE SMOOTH",
"76 349 OFFCURVE",
"177 253 OFFCURVE",
"294 253 CURVE SMOOTH",
"345 253 OFFCURVE",
"392 271 OFFCURVE",
"429 305 CURVE",
"423 228 OFFCURVE",
"409 192 OFFCURVE",
"403 178 CURVE SMOOTH",
"374 116 OFFCURVE",
"318 94 OFFCURVE",
"270 94 CURVE SMOOTH",
"225 94 OFFCURVE",
"195 115 OFFCURVE",
"191 118 CURVE",
"191 118 OFFCURVE",
"190 134 OFFCURVE",
"170 147 CURVE SMOOTH",
"159 154 LINE",
"83 70 LINE",
"94 60 LINE",
"141 14 OFFCURVE",
"202 -12 OFFCURVE",
"268 -12 CURVE SMOOTH",
"365 -12 OFFCURVE",
"465 44 OFFCURVE",
"512 163 CURVE SMOOTH"
);
},
{
closed = 1;
nodes = (
"187 594 OFFCURVE",
"244 642 OFFCURVE",
"301 642 CURVE SMOOTH",
"366 642 OFFCURVE",
"429 578 OFFCURVE",
"429 461 CURVE SMOOTH",
"429 452 OFFCURVE",
"428 444 OFFCURVE",
"427 432 CURVE",
"397 385 OFFCURVE",
"348 356 OFFCURVE",
"302 356 CURVE SMOOTH",
"246 356 OFFCURVE",
"187 399 OFFCURVE",
"187 497 CURVE SMOOTH"
);
}
);
width = 613;
},
{
layerId = "99972075-B5E0-48DB-B31E-BE77C67EF09D";
name = "Bold Italic";
paths = (
{
closed = 1;
nodes = (
"560 197 OFFCURVE",
"590 260 OFFCURVE",
"611 378 CURVE SMOOTH",
"627 468 OFFCURVE",
"630 532 OFFCURVE",
"621 582 CURVE SMOOTH",
"600 697 OFFCURVE",
"518 746 OFFCURVE",
"435 746 CURVE SMOOTH",
"309 746 OFFCURVE",
"189 640 OFFCURVE",
"163 494 CURVE SMOOTH",
"137 349 OFFCURVE",
"221 253 OFFCURVE",
"338 253 CURVE SMOOTH",
"389 253 OFFCURVE",
"440 271 OFFCURVE",
"483 305 CURVE",
"463 228 OFFCURVE",
"442 192 OFFCURVE",
"434 178 CURVE",
"394 116 OFFCURVE",
"335 94 OFFCURVE",
"287 94 CURVE SMOOTH",
"242 94 OFFCURVE",
"214 115 OFFCURVE",
"211 118 CURVE",
"211 118 OFFCURVE",
"213 134 OFFCURVE",
"196 147 CURVE",
"186 154 LINE",
"95 70 LINE",
"104 60 LINE SMOOTH",
"143 14 OFFCURVE",
"200 -12 OFFCURVE",
"266 -12 CURVE SMOOTH",
"363 -12 OFFCURVE",
"473 44 OFFCURVE",
"541 163 CURVE SMOOTH"
);
},
{
closed = 1;
nodes = (
"292 594 OFFCURVE",
"357 642 OFFCURVE",
"414 642 CURVE SMOOTH",
"479 642 OFFCURVE",
"531 578 OFFCURVE",
"510 461 CURVE",
"508 452 OFFCURVE",
"507 444 OFFCURVE",
"504 432 CURVE",
"465 385 OFFCURVE",
"411 356 OFFCURVE",
"365 356 CURVE SMOOTH",
"309 356 OFFCURVE",
"258 399 OFFCURVE",
"275 497 CURVE SMOOTH"
);
}
);
width = 613;
}
);
note = nine;
unicode = 0039;
},
{
glyphname = colon;
lastChange = "2016-10-27 22:44:17 +0000";
layers = (
{
layerId = "0945ADEB-DFBA-48BC-A89F-108FA066EBC6";
name = Regular;
paths = (
{
closed = 1;
nodes = (
"364 471 OFFCURVE",
"332 502 OFFCURVE",
"293 502 CURVE SMOOTH",
"254 502 OFFCURVE",
"223 471 OFFCURVE",
"223 434 CURVE SMOOTH",
"223 397 OFFCURVE",
"254 366 OFFCURVE",
"293 366 CURVE SMOOTH",
"332 366 OFFCURVE",
"364 397 OFFCURVE",
"364 434 CURVE SMOOTH"
);
},
{
closed = 1;
nodes = (
"364 92 OFFCURVE",
"332 123 OFFCURVE",
"293 123 CURVE SMOOTH",
"254 123 OFFCURVE",
"223 92 OFFCURVE",
"223 55 CURVE SMOOTH",
"223 18 OFFCURVE",
"254 -13 OFFCURVE",
"293 -13 CURVE SMOOTH",
"332 -13 OFFCURVE",
"364 18 OFFCURVE",
"364 55 CURVE SMOOTH"
);
}
);
width = 613;
},
{
layerId = "BAF923F9-5AD6-4831-8548-4755EA67E8F3";
name = Italic;
paths = (
{
closed = 1;
nodes = (
"380 92 OFFCURVE",
"354 123 OFFCURVE",
"315 123 CURVE SMOOTH",
"276 123 OFFCURVE",
"240 92 OFFCURVE",
"233 55 CURVE SMOOTH",
"226 18 OFFCURVE",
"252 -13 OFFCURVE",
"291 -13 CURVE SMOOTH",
"330 -13 OFFCURVE",
"366 18 OFFCURVE",
"373 55 CURVE SMOOTH"
);
},
{
closed = 1;
nodes = (
"446.828 471 OFFCURVE",
"420.828 502 OFFCURVE",
"381.828 502 CURVE SMOOTH",
"342.828 502 OFFCURVE",
"306.828 471 OFFCURVE",
"299.828 434 CURVE SMOOTH",
"292.828 397 OFFCURVE",
"318.828 366 OFFCURVE",
"357.828 366 CURVE SMOOTH",
"396.828 366 OFFCURVE",
"432.828 397 OFFCURVE",
"439.828 434 CURVE SMOOTH"
);
}
);
width = 613;
},
{
layerId = "C881373A-603B-4244-9A15-33852008E0AB";
name = Bold;
paths = (
{
closed = 1;
nodes = (
"246 123 OFFCURVE",
"208 85 OFFCURVE",
"208 39 CURVE SMOOTH",
"208 -7 OFFCURVE",
"246 -44 OFFCURVE",
"293 -44 CURVE SMOOTH",
"340 -44 OFFCURVE",
"379 -7 OFFCURVE",
"379 39 CURVE SMOOTH",
"379 85 OFFCURVE",
"340 123 OFFCURVE",
"293 123 CURVE SMOOTH"
);
},
{
closed = 1;
nodes = (
"246 502 OFFCURVE",
"208 464 OFFCURVE",
"208 418 CURVE SMOOTH",
"208 372 OFFCURVE",
"246 335 OFFCURVE",
"293 335 CURVE SMOOTH",
"340 335 OFFCURVE",
"379 372 OFFCURVE",
"379 418 CURVE SMOOTH",
"379 464 OFFCURVE",
"340 502 OFFCURVE",
"293 502 CURVE SMOOTH"
);
}
);
width = 613;
},
{
layerId = "99972075-B5E0-48DB-B31E-BE77C67EF09D";
name = "Bold Italic";
paths = (
{
closed = 1;
nodes = (
"334.828 502 OFFCURVE",
"289.828 464 OFFCURVE",
"281.828 418 CURVE SMOOTH",
"273.828 372 OFFCURVE",
"305.828 335 OFFCURVE",
"352.828 335 CURVE SMOOTH",
"399.828 335 OFFCURVE",
"444.828 372 OFFCURVE",
"452.828 418 CURVE SMOOTH",
"460.828 464 OFFCURVE",
"428.828 502 OFFCURVE",
"381.828 502 CURVE SMOOTH"
);
},
{
closed = 1;
nodes = (
"268 123 OFFCURVE",
"223 85 OFFCURVE",
"215 39 CURVE SMOOTH",
"207 -7 OFFCURVE",
"239 -44 OFFCURVE",
"286 -44 CURVE SMOOTH",
"333 -44 OFFCURVE",
"378 -7 OFFCURVE",
"386 39 CURVE SMOOTH",
"394 85 OFFCURVE",
"362 123 OFFCURVE",
"315 123 CURVE SMOOTH"
);
}
);
width = 613;
}
);
note = colon;
unicode = 003A;
},
{
glyphname = semicolon;
lastChange = "2016-10-27 22:44:17 +0000";
layers = (
{
layerId = "0945ADEB-DFBA-48BC-A89F-108FA066EBC6";
name = Regular;
paths = (
{
closed = 1;
nodes = (
"373 84 OFFCURVE",
"332 122 OFFCURVE",
"290 122 CURVE SMOOTH",
"251 122 OFFCURVE",
"222 90 OFFCURVE",
"222 54 CURVE SMOOTH",
"222 22 OFFCURVE",
"245 9 OFFCURVE",
"255 2 CURVE SMOOTH",
"265 -5 OFFCURVE",
"283 -17 OFFCURVE",
"283 -41 CURVE SMOOTH",
"283 -61 OFFCURVE",
"271 -80 OFFCURVE",
"265 -90 CURVE SMOOTH",
"253 -109 OFFCURVE",
"234 -138 OFFCURVE",
"206 -164 CURVE",
"247 -200 LINE",
"330 -116 OFFCURVE",
"373 -39 OFFCURVE",
"373 23 CURVE SMOOTH"
);
},
{
closed = 1;
nodes = (
"364 471 OFFCURVE",
"332 502 OFFCURVE",
"293 502 CURVE SMOOTH",
"254 502 OFFCURVE",
"223 471 OFFCURVE",
"223 434 CURVE SMOOTH",
"223 397 OFFCURVE",
"254 366 OFFCURVE",
"293 366 CURVE SMOOTH",
"332 366 OFFCURVE",
"364 397 OFFCURVE",
"364 434 CURVE SMOOTH"
);
}
);
width = 613;
},
{
layerId = "BAF923F9-5AD6-4831-8548-4755EA67E8F3";
name = Italic;
paths = (
{
closed = 1;
nodes = (
"446.828 471 OFFCURVE",
"420.828 502 OFFCURVE",
"381.828 502 CURVE SMOOTH",
"342.828 502 OFFCURVE",
"306.828 471 OFFCURVE",
"299.828 434 CURVE SMOOTH",
"292.828 397 OFFCURVE",
"318.828 366 OFFCURVE",
"357.828 366 CURVE SMOOTH",
"396.828 366 OFFCURVE",
"432.828 397 OFFCURVE",
"439.828 434 CURVE SMOOTH"
);
},
{
closed = 1;
nodes = (
"388 84 OFFCURVE",
"354 122 OFFCURVE",
"312 122 CURVE SMOOTH",
"273 122 OFFCURVE",
"238 90 OFFCURVE",
"232 54 CURVE SMOOTH",
"226 22 OFFCURVE",
"247 9 OFFCURVE",
"256 2 CURVE SMOOTH",
"265 -5 OFFCURVE",
"280 -17 OFFCURVE",
"276 -41 CURVE SMOOTH",
"273 -61 OFFCURVE",
"257 -80 OFFCURVE",
"250 -90 CURVE",
"235 -109 OFFCURVE",
"210 -138 OFFCURVE",
"177 -164 CURVE",
"212 -200 LINE",
"309 -116 OFFCURVE",
"366 -39 OFFCURVE",
"377 23 CURVE SMOOTH"
);
}
);
width = 613;
},
{
layerId = "C881373A-603B-4244-9A15-33852008E0AB";
name = Bold;
paths = (
{
closed = 1;
nodes = (
"246 502 OFFCURVE",
"208 464 OFFCURVE",
"208 418 CURVE SMOOTH",
"208 372 OFFCURVE",
"246 335 OFFCURVE",
"293 335 CURVE SMOOTH",
"340 335 OFFCURVE",
"379 372 OFFCURVE",
"379 418 CURVE SMOOTH",
"379 464 OFFCURVE",
"340 502 OFFCURVE",
"293 502 CURVE SMOOTH"
);
},
{
closed = 1;
nodes = (
"242 122 OFFCURVE",
"207 83 OFFCURVE",
"207 39 CURVE SMOOTH",
"207 -2 OFFCURVE",
"237 -20 OFFCURVE",
"247 -27 CURVE",
"258 -33 OFFCURVE",
"268 -39 OFFCURVE",
"268 -52 CURVE SMOOTH",
"268 -64 OFFCURVE",
"258 -79 OFFCURVE",
"252 -87 CURVE",
"241 -103 OFFCURVE",
"222 -126 OFFCURVE",
"195 -147 CURVE SMOOTH",
"183 -157 LINE",
"248 -205 LINE",
"258 -195 LINE",
"342 -121 OFFCURVE",
"388 -52 OFFCURVE",
"388 8 CURVE SMOOTH",
"388 76 OFFCURVE",
"342 122 OFFCURVE",
"290 122 CURVE SMOOTH"
);
}
);
width = 613;
},
{
layerId = "99972075-B5E0-48DB-B31E-BE77C67EF09D";
name = "Bold Italic";
paths = (
{
closed = 1;
nodes = (
"264 122 OFFCURVE",
"222 83 OFFCURVE",
"214 39 CURVE SMOOTH",
"207 -2 OFFCURVE",
"233 -20 OFFCURVE",
"242 -27 CURVE",
"252 -33 OFFCURVE",
"261 -39 OFFCURVE",
"259 -52 CURVE SMOOTH",
"257 -64 OFFCURVE",
"244 -79 OFFCURVE",
"237 -87 CURVE SMOOTH",
"223 -103 OFFCURVE",
"199 -126 OFFCURVE",
"169 -147 CURVE SMOOTH",
"155 -157 LINE",
"211 -205 LINE",
"223 -195 LINE",
"320 -121 OFFCURVE",
"379 -52 OFFCURVE",
"390 8 CURVE SMOOTH",
"402 76 OFFCURVE",
"364 122 OFFCURVE",
"312 122 CURVE SMOOTH"
);
},
{
closed = 1;
nodes = (
"334.828 502 OFFCURVE",
"289.828 464 OFFCURVE",
"281.828 418 CURVE SMOOTH",
"273.828 372 OFFCURVE",
"305.828 335 OFFCURVE",
"352.828 335 CURVE SMOOTH",
"399.828 335 OFFCURVE",
"444.828 372 OFFCURVE",
"452.828 418 CURVE SMOOTH",
"460.828 464 OFFCURVE",
"428.828 502 OFFCURVE",
"381.828 502 CURVE SMOOTH"
);
}
);
width = 613;
}
);
note = semicolon;
unicode = 003B;
},
{
glyphname = less;
lastChange = "2016-10-27 22:44:17 +0000";
layers = (
{
layerId = "0945ADEB-DFBA-48BC-A89F-108FA066EBC6";
name = Regular;
paths = (
{
closed = 1;
nodes = (
"554 589 LINE",
"554 673 LINE",
"51 409 LINE",
"51 351 LINE",
"557 56 LINE",
"557 145 LINE",
"142 379 LINE"
);
}
);
width = 613;
},
{
layerId = "BAF923F9-5AD6-4831-8548-4755EA67E8F3";
name = Italic;
paths = (
{
closed = 1;
nodes = (
"658 589 LINE",
"673 673 LINE",
"123 409 LINE",
"113 351 LINE",
"567 56 LINE",
"583 145 LINE",
"209 379 LINE"
);
}
);
width = 613;
},
{
layerId = "C881373A-603B-4244-9A15-33852008E0AB";
name = Bold;
paths = (
{
closed = 1;
nodes = (
"569 566 LINE",
"569 685 LINE",
"36 418 LINE",
"36 342 LINE",
"572 43 LINE",
"572 168 LINE",
"175 378 LINE"
);
}
);
width = 613;
},
{
layerId = "99972075-B5E0-48DB-B31E-BE77C67EF09D";
name = "Bold Italic";
paths = (
{
closed = 1;
nodes = (
"669 566 LINE",
"690 685 LINE",
"110 418 LINE",
"96 342 LINE",
"580 43 LINE",
"602 168 LINE",
"242 378 LINE"
);
}
);
width = 613;
}
);
note = less;
unicode = 003C;
},
{
glyphname = equal;
lastChange = "2016-10-27 22:44:17 +0000";
layers = (
{
layerId = "0945ADEB-DFBA-48BC-A89F-108FA066EBC6";
name = Regular;
paths = (
{
closed = 1;
nodes = (
"63 521 LINE",
"63 448 LINE",
"551 448 LINE",
"551 521 LINE"
);
},
{
closed = 1;
nodes = (
"63 275 LINE",
"63 202 LINE",
"551 202 LINE",
"551 275 LINE"
);
}
);
width = 613;
},
{
layerId = "BAF923F9-5AD6-4831-8548-4755EA67E8F3";
name = Italic;
paths = (
{
closed = 1;
nodes = (
"111.549 275 LINE",
"99.549 202 LINE",
"586.549 202 LINE",
"599.549 275 LINE"
);
},
{
closed = 1;
nodes = (
"154.925 521 LINE",
"142.925 448 LINE",
"629.925 448 LINE",
"642.925 521 LINE"
);
}
);
width = 613;
},
{
layerId = "C881373A-603B-4244-9A15-33852008E0AB";
name = Bold;
paths = (
{
closed = 1;
nodes = (
"48 202 LINE",
"566 202 LINE",
"566 305 LINE",
"48 305 LINE"
);
},
{
closed = 1;
nodes = (
"48 448 LINE",
"566 448 LINE",
"566 551 LINE",
"48 551 LINE"
);
}
);
width = 613;
},
{
layerId = "99972075-B5E0-48DB-B31E-BE77C67EF09D";
name = "Bold Italic";
paths = (
{
closed = 1;
nodes = (
"126.925 448 LINE",
"644.925 448 LINE",
"663.925 551 LINE",
"144.925 551 LINE"
);
},
{
closed = 1;
nodes = (
"83.549 202 LINE",
"601.549 202 LINE",
"620.549 305 LINE",
"101.549 305 LINE"
);
}
);
width = 613;
}
);
note = equal;
unicode = 003D;
},
{
glyphname = greater;
lastChange = "2016-10-27 22:44:17 +0000";
layers = (
{
layerId = "0945ADEB-DFBA-48BC-A89F-108FA066EBC6";
name = Regular;
paths = (
{
closed = 1;
nodes = (
"60 589 LINE",
"472 379 LINE",
"57 145 LINE",
"57 56 LINE",
"563 351 LINE",
"563 409 LINE",
"60 673 LINE"
);
}
);
width = 613;
},
{
layerId = "BAF923F9-5AD6-4831-8548-4755EA67E8F3";
name = Italic;
paths = (
{
closed = 1;
nodes = (
"164 589 LINE",
"539 379 LINE",
"83 145 LINE",
"67 56 LINE",
"625 351 LINE",
"635 409 LINE",
"179 673 LINE"
);
}
);
width = 613;
},
{
layerId = "C881373A-603B-4244-9A15-33852008E0AB";
name = Bold;
paths = (
{
closed = 1;
nodes = (
"45 566 LINE",
"440 378 LINE",
"42 168 LINE",
"42 43 LINE",
"579 342 LINE",
"579 418 LINE",
"45 685 LINE"
);
}
);
width = 613;
},
{
layerId = "99972075-B5E0-48DB-B31E-BE77C67EF09D";
name = "Bold Italic";
paths = (
{
closed = 1;
nodes = (
"145 566 LINE",
"506 378 LINE",
"72 168 LINE",
"50 43 LINE",
"639 342 LINE",
"652 418 LINE",
"166 685 LINE"
);
}
);
width = 613;
}
);
note = greater;
unicode = 003E;
},
{
glyphname = question;
lastChange = "2016-10-27 22:44:17 +0000";
layers = (
{
layerId = "0945ADEB-DFBA-48BC-A89F-108FA066EBC6";
name = Regular;
paths = (
{
closed = 1;
nodes = (
"390 90 OFFCURVE",
"358 121 OFFCURVE",
"319 121 CURVE SMOOTH",
"280 121 OFFCURVE",
"250 90 OFFCURVE",
"250 53 CURVE SMOOTH",
"250 16 OFFCURVE",
"280 -15 OFFCURVE",
"319 -15 CURVE SMOOTH",
"358 -15 OFFCURVE",
"390 16 OFFCURVE",
"390 53 CURVE SMOOTH"
);
},
{
closed = 1;
nodes = (
"146 609 LINE",
"183 672 OFFCURVE",
"247 712 OFFCURVE",
"307 712 CURVE SMOOTH",
"378 712 OFFCURVE",
"432 656 OFFCURVE",
"432 586 CURVE SMOOTH",
"432 508 OFFCURVE",
"370 460 OFFCURVE",
"334 421 CURVE SMOOTH",
"282 363 OFFCURVE",
"279 321 OFFCURVE",
"279 268 CURVE SMOOTH",
"279 219 LINE",
"356 219 LINE",
"356 268 LINE SMOOTH",
"356 310 OFFCURVE",
"359 346 OFFCURVE",
"408 389 CURVE SMOOTH",
"447 424 OFFCURVE",
"526 469 OFFCURVE",
"526 580 CURVE SMOOTH",
"526 691 OFFCURVE",
"449 790 OFFCURVE",
"315 790 CURVE SMOOTH",
"226 790 OFFCURVE",
"138 746 OFFCURVE",
"86 666 CURVE"
);
}
);
width = 613;
},
{
layerId = "BAF923F9-5AD6-4831-8548-4755EA67E8F3";
name = Italic;
paths = (
{
closed = 1;
nodes = (
"406 90 OFFCURVE",
"380 121 OFFCURVE",
"341 121 CURVE SMOOTH",
"302 121 OFFCURVE",
"266 90 OFFCURVE",
"259 53 CURVE SMOOTH",
"252 16 OFFCURVE",
"278 -15 OFFCURVE",
"317 -15 CURVE SMOOTH",
"356 -15 OFFCURVE",
"392 16 OFFCURVE",
"399 53 CURVE SMOOTH"
);
},
{
closed = 1;
nodes = (
"254 609 LINE",
"302 672 OFFCURVE",
"372 712 OFFCURVE",
"432 712 CURVE SMOOTH",
"503 712 OFFCURVE",
"547 656 OFFCURVE",
"535 586 CURVE SMOOTH",
"521 508 OFFCURVE",
"451 460 OFFCURVE",
"408 421 CURVE SMOOTH",
"345 363 OFFCURVE",
"335 321 OFFCURVE",
"326 268 CURVE SMOOTH",
"317 219 LINE",
"395 219 LINE",
"404 268 LINE SMOOTH",
"411 310 OFFCURVE",
"420 346 OFFCURVE",
"477 389 CURVE SMOOTH",
"522 424 OFFCURVE",
"608 469 OFFCURVE",
"628 580 CURVE SMOOTH",
"648 691 OFFCURVE",
"588 790 OFFCURVE",
"454 790 CURVE SMOOTH",
"365 790 OFFCURVE",
"269 746 OFFCURVE",
"203 666 CURVE"
);
}
);
width = 613;
},
{
layerId = "C881373A-603B-4244-9A15-33852008E0AB";
name = Bold;
paths = (
{
closed = 1;
nodes = (
"273 152 OFFCURVE",
"234 114 OFFCURVE",
"234 68 CURVE SMOOTH",
"234 22 OFFCURVE",
"273 -15 OFFCURVE",
"320 -15 CURVE SMOOTH",
"367 -15 OFFCURVE",
"406 22 OFFCURVE",
"406 68 CURVE SMOOTH",
"406 114 OFFCURVE",
"367 152 OFFCURVE",
"320 152 CURVE SMOOTH"
);
},
{
closed = 1;
nodes = (
"66 648 LINE",
"150 570 LINE",
"160 586 LINE SMOOTH",
"195 645 OFFCURVE",
"254 681 OFFCURVE",
"307 681 CURVE SMOOTH",
"369 681 OFFCURVE",
"416 633 OFFCURVE",
"416 571 CURVE SMOOTH",
"416 502 OFFCURVE",
"361 458 OFFCURVE",
"323 416 CURVE SMOOTH",
"268 355 OFFCURVE",
"263 307 OFFCURVE",
"263 253 CURVE SMOOTH",
"263 242 LINE",
"372 242 LINE",
"372 253 LINE SMOOTH",
"372 294 OFFCURVE",
"373 322 OFFCURVE",
"418 362 CURVE SMOOTH",
"455 395 OFFCURVE",
"541 445 OFFCURVE",
"541 565 CURVE SMOOTH",
"541 683 OFFCURVE",
"458 790 OFFCURVE",
"315 790 CURVE SMOOTH",
"221 790 OFFCURVE",
"128 743 OFFCURVE",
"73 659 CURVE SMOOTH"
);
}
);
width = 613;
},
{
layerId = "99972075-B5E0-48DB-B31E-BE77C67EF09D";
name = "Bold Italic";
paths = (
{
closed = 1;
nodes = (
"300 152 OFFCURVE",
"254 114 OFFCURVE",
"246 68 CURVE SMOOTH",
"238 22 OFFCURVE",
"270 -15 OFFCURVE",
"317 -15 CURVE SMOOTH",
"364 -15 OFFCURVE",
"410 22 OFFCURVE",
"418 68 CURVE SMOOTH",
"426 114 OFFCURVE",
"394 152 OFFCURVE",
"347 152 CURVE SMOOTH"
);
},
{
closed = 1;
nodes = (
"180 648 LINE",
"250 570 LINE",
"263 586 LINE SMOOTH",
"309 645 OFFCURVE",
"374 681 OFFCURVE",
"427 681 CURVE SMOOTH",
"489 681 OFFCURVE",
"528 633 OFFCURVE",
"517 571 CURVE SMOOTH",
"505 502 OFFCURVE",
"441 458 OFFCURVE",
"396 416 CURVE SMOOTH",
"330 355 OFFCURVE",
"318 307 OFFCURVE",
"308 253 CURVE SMOOTH",
"306 242 LINE",
"414 242 LINE",
"416 253 LINE SMOOTH",
"423 294 OFFCURVE",
"430 322 OFFCURVE",
"482 362 CURVE SMOOTH",
"524 395 OFFCURVE",
"620 445 OFFCURVE",
"641 565 CURVE SMOOTH",
"662 683 OFFCURVE",
"597 790 OFFCURVE",
"454 790 CURVE SMOOTH",
"360 790 OFFCURVE",
"258 743 OFFCURVE",
"189 659 CURVE SMOOTH"
);
}
);
width = 613;
}
);
note = question;
unicode = 003F;
},
{
glyphname = at;
lastChange = "2016-10-27 22:44:17 +0000";
layers = (
{
layerId = "0945ADEB-DFBA-48BC-A89F-108FA066EBC6";
name = Regular;
paths = (
{
closed = 1;
nodes = (
"495 93 LINE",
"457 67 OFFCURVE",
"413 54 OFFCURVE",
"367 54 CURVE SMOOTH",
"252 54 OFFCURVE",
"116 145 OFFCURVE",
"116 376 CURVE SMOOTH",
"116 590 OFFCURVE",
"227 687 OFFCURVE",
"329 687 CURVE SMOOTH",
"418 687 OFFCURVE",
"487 615 OFFCURVE",
"487 527 CURVE",
"470 527 LINE SMOOTH",
"425 527 OFFCURVE",
"378 527 OFFCURVE",
"331 509 CURVE SMOOTH",
"257 479 OFFCURVE",
"218 415 OFFCURVE",
"218 352 CURVE SMOOTH",
"218 266 OFFCURVE",
"287 198 OFFCURVE",
"372 198 CURVE SMOOTH",
"418 198 OFFCURVE",
"460 218 OFFCURVE",
"490 253 CURVE",
"490 208 LINE",
"562 208 LINE",
"562 449 LINE SMOOTH",
"562 505 OFFCURVE",
"562 563 OFFCURVE",
"536 620 CURVE SMOOTH",
"498 704 OFFCURVE",
"418 751 OFFCURVE",
"332 751 CURVE SMOOTH",
"203 751 OFFCURVE",
"47 642 OFFCURVE",
"47 373 CURVE SMOOTH",
"47 98 OFFCURVE",
"212 -13 OFFCURVE",
"360 -13 CURVE SMOOTH",
"418 -13 OFFCURVE",
"476 4 OFFCURVE",
"526 36 CURVE"
);
},
{
closed = 1;
nodes = (
"490 468 LINE",
"490 445 LINE",
"490 431 LINE SMOOTH",
"490 389 OFFCURVE",
"489 350 OFFCURVE",
"473 317 CURVE SMOOTH",
"455 281 OFFCURVE",
"420 263 OFFCURVE",
"386 263 CURVE SMOOTH",
"334 263 OFFCURVE",
"292 304 OFFCURVE",
"292 355 CURVE SMOOTH",
"292 386 OFFCURVE",
"307 417 OFFCURVE",
"339 440 CURVE SMOOTH",
"379 468 OFFCURVE",
"429 468 OFFCURVE",
"471 468 CURVE SMOOTH"
);
}
);
width = 613;
},
{
layerId = "BAF923F9-5AD6-4831-8548-4755EA67E8F3";
name = Italic;
paths = (
{
closed = 1;
nodes = (
"511 93 LINE",
"469 67 OFFCURVE",
"422 54 OFFCURVE",
"376 54 CURVE SMOOTH",
"261 54 OFFCURVE",
"141 145 OFFCURVE",
"182 376 CURVE SMOOTH",
"220 590 OFFCURVE",
"348 687 OFFCURVE",
"450 687 CURVE SMOOTH",
"539 687 OFFCURVE",
"596 615 OFFCURVE",
"580 527 CURVE",
"563 527 LINE SMOOTH",
"518 527 OFFCURVE",
"470 527 OFFCURVE",
"420 509 CURVE SMOOTH",
"341 479 OFFCURVE",
"291 415 OFFCURVE",
"280 352 CURVE SMOOTH",
"265 266 OFFCURVE",
"322 198 OFFCURVE",
"407 198 CURVE SMOOTH",
"453 198 OFFCURVE",
"499 218 OFFCURVE",
"535 253 CURVE",
"527 208 LINE",
"599 208 LINE",
"641 449 LINE SMOOTH",
"651 505 OFFCURVE",
"660 563 OFFCURVE",
"645 620 CURVE SMOOTH",
"622 704 OFFCURVE",
"550 751 OFFCURVE",
"464 751 CURVE SMOOTH",
"335 751 OFFCURVE",
"160 642 OFFCURVE",
"113 373 CURVE SMOOTH",
"64 98 OFFCURVE",
"210 -13 OFFCURVE",
"358 -13 CURVE SMOOTH",
"416 -13 OFFCURVE",
"477 4 OFFCURVE",
"533 36 CURVE"
);
},
{
closed = 1;
nodes = (
"573 468 LINE",
"569 445 LINE SMOOTH",
"568 440 OFFCURVE",
"568 436 OFFCURVE",
"567 431 CURVE SMOOTH",
"560 389 OFFCURVE",
"551 350 OFFCURVE",
"529 317 CURVE SMOOTH",
"504 281 OFFCURVE",
"466 263 OFFCURVE",
"432 263 CURVE SMOOTH",
"380 263 OFFCURVE",
"345 304 OFFCURVE",
"354 355 CURVE SMOOTH",
"359 386 OFFCURVE",
"381 417 OFFCURVE",
"417 440 CURVE SMOOTH",
"462 468 OFFCURVE",
"512 468 OFFCURVE",
"554 468 CURVE SMOOTH"
);
}
);
width = 613;
},
{
layerId = "C881373A-603B-4244-9A15-33852008E0AB";
name = Bold;
paths = (
{
closed = 1;
nodes = (
"547 46 LINE",
"500 131 LINE",
"486 121 LINE SMOOTH",
"451 97 OFFCURVE",
"410 85 OFFCURVE",
"367 85 CURVE SMOOTH",
"261 85 OFFCURVE",
"131 163 OFFCURVE",
"131 376 CURVE SMOOTH",
"131 574 OFFCURVE",
"238 656 OFFCURVE",
"329 656 CURVE SMOOTH",
"404 656 OFFCURVE",
"463 608 OFFCURVE",
"471 543 CURVE",
"470 543 LINE SMOOTH",
"425 543 OFFCURVE",
"376 543 OFFCURVE",
"325 523 CURVE SMOOTH",
"246 491 OFFCURVE",
"203 422 OFFCURVE",
"203 352 CURVE SMOOTH",
"203 258 OFFCURVE",
"278 182 OFFCURVE",
"372 182 CURVE SMOOTH",
"410 182 OFFCURVE",
"445 194 OFFCURVE",
"475 216 CURVE",
"475 192 LINE",
"578 192 LINE",
"578 442 LINE SMOOTH",
"578 497 OFFCURVE",
"577 555 OFFCURVE",
"550 614 CURVE SMOOTH",
"510 701 OFFCURVE",
"424 751 OFFCURVE",
"332 751 CURVE SMOOTH",
"194 751 OFFCURVE",
"32 638 OFFCURVE",
"32 373 CURVE SMOOTH",
"32 101 OFFCURVE",
"203 -13 OFFCURVE",
"360 -13 CURVE SMOOTH",
"421 -13 OFFCURVE",
"483 5 OFFCURVE",
"535 38 CURVE SMOOTH"
);
},
{
closed = 1;
nodes = (
"475 431 LINE SMOOTH",
"475 389 OFFCURVE",
"473 352 OFFCURVE",
"459 324 CURVE SMOOTH",
"443 294 OFFCURVE",
"414 279 OFFCURVE",
"386 279 CURVE SMOOTH",
"342 279 OFFCURVE",
"307 313 OFFCURVE",
"307 355 CURVE SMOOTH",
"307 380 OFFCURVE",
"320 408 OFFCURVE",
"348 428 CURVE SMOOTH",
"383 452 OFFCURVE",
"429 453 OFFCURVE",
"471 453 CURVE SMOOTH",
"475 453 LINE"
);
}
);
width = 613;
},
{
layerId = "99972075-B5E0-48DB-B31E-BE77C67EF09D";
name = "Bold Italic";
paths = (
{
closed = 1;
nodes = (
"555 46 LINE",
"523 131 LINE",
"507 121 LINE SMOOTH",
"467 97 OFFCURVE",
"425 85 OFFCURVE",
"382 85 CURVE SMOOTH",
"276 85 OFFCURVE",
"159 163 OFFCURVE",
"197 376 CURVE SMOOTH",
"232 574 OFFCURVE",
"353 656 OFFCURVE",
"444 656 CURVE SMOOTH",
"519 656 OFFCURVE",
"571 608 OFFCURVE",
"567 543 CURVE",
"566 543 LINE SMOOTH",
"521 543 OFFCURVE",
"471 543 OFFCURVE",
"417 523 CURVE SMOOTH",
"332 491 OFFCURVE",
"277 422 OFFCURVE",
"265 352 CURVE SMOOTH",
"248 258 OFFCURVE",
"310 182 OFFCURVE",
"404 182 CURVE SMOOTH",
"442 182 OFFCURVE",
"479 194 OFFCURVE",
"513 216 CURVE",
"509 192 LINE",
"611 192 LINE",
"655 442 LINE SMOOTH",
"665 497 OFFCURVE",
"675 555 OFFCURVE",
"658 614 CURVE SMOOTH",
"633 701 OFFCURVE",
"556 751 OFFCURVE",
"464 751 CURVE SMOOTH",
"326 751 OFFCURVE",
"144 638 OFFCURVE",
"97 373 CURVE SMOOTH",
"49 101 OFFCURVE",
"201 -13 OFFCURVE",
"358 -13 CURVE SMOOTH",
"419 -13 OFFCURVE",
"483 5 OFFCURVE",
"541 38 CURVE SMOOTH"
);
},
{
closed = 1;
nodes = (
"551 431 LINE SMOOTH",
"544 389 OFFCURVE",
"536 352 OFFCURVE",
"517 324 CURVE SMOOTH",
"496 294 OFFCURVE",
"463 279 OFFCURVE",
"435 279 CURVE SMOOTH",
"391 279 OFFCURVE",
"363 313 OFFCURVE",
"370 355 CURVE SMOOTH",
"374 380 OFFCURVE",
"392 408 OFFCURVE",
"423 428 CURVE SMOOTH",
"462 452 OFFCURVE",
"509 453 OFFCURVE",
"551 453 CURVE SMOOTH",
"555 453 LINE"
);
}
);
width = 613;
}
);
note = at;
unicode = 0040;
},
{
glyphname = A;
lastChange = "2016-10-27 22:44:17 +0000";
layers = (
{
layerId = "0945ADEB-DFBA-48BC-A89F-108FA066EBC6";
name = Regular;
paths = (
{
closed = 1;
nodes = (
"28 -1 LINE",
"110 -1 LINE",
"181 216 LINE",
"416 216 LINE",
"498 0 LINE",
"584 0 LINE",
"298 753 LINE",
"289 753 LINE"
);
},
{
closed = 1;
nodes = (
"397 281 LINE",
"198 281 LINE",
"293 562 LINE"
);
}
);
width = 613;
},
{
layerId = "BAF923F9-5AD6-4831-8548-4755EA67E8F3";
name = Italic;
paths = (
{
closed = 1;
nodes = (
"27 -1 LINE",
"109 -1 LINE",
"219 216 LINE",
"454 216 LINE",
"498 0 LINE",
"584 0 LINE",
"431 753 LINE",
"421 753 LINE"
);
},
{
closed = 1;
nodes = (
"447 281 LINE",
"247 281 LINE",
"392 562 LINE"
);
}
);
width = 613;
},
{
layerId = "C881373A-603B-4244-9A15-33852008E0AB";
name = Bold;
paths = (
{
closed = 1;
nodes = (
"121 -1 LINE",
"192 201 LINE",
"405 201 LINE",
"487 0 LINE",
"606 0 LINE",
"309 753 LINE",
"278 753 LINE",
"6 -1 LINE"
);
},
{
closed = 1;
nodes = (
"219 296 LINE",
"294 516 LINE",
"375 296 LINE"
);
}
);
width = 613;
},
{
layerId = "99972075-B5E0-48DB-B31E-BE77C67EF09D";
name = "Bold Italic";
paths = (
{
closed = 1;
nodes = (
"120 -1 LINE",
"228 201 LINE",
"441 201 LINE",
"487 0 LINE",
"606 0 LINE",
"441 753 LINE",
"411 753 LINE",
"6 -1 LINE"
);
},
{
closed = 1;
nodes = (
"271 296 LINE",
"385 516 LINE",
"427 296 LINE"
);
}
);
width = 613;
}
);
note = A;
unicode = 0041;
},
{
glyphname = B;
lastChange = "2016-10-27 22:44:17 +0000";
layers = (
{
layerId = "0945ADEB-DFBA-48BC-A89F-108FA066EBC6";
name = Regular;
paths = (
{
closed = 1;
nodes = (
"68 739 LINE",
"68 0 LINE",
"276 0 LINE SMOOTH",
"326 0 OFFCURVE",
"378 0 OFFCURVE",
"429 22 CURVE SMOOTH",
"509 56 OFFCURVE",
"552 129 OFFCURVE",
"552 205 CURVE SMOOTH",
"552 291 OFFCURVE",
"497 368 OFFCURVE",
"414 396 CURVE",
"480 423 OFFCURVE",
"523 488 OFFCURVE",
"523 559 CURVE SMOOTH",
"523 625 OFFCURVE",
"485 689 OFFCURVE",
"416 719 CURVE SMOOTH",
"370 739 OFFCURVE",
"323 739 OFFCURVE",
"278 739 CURVE SMOOTH"
);
},
{
closed = 1;
nodes = (
"150 669 LINE",
"266 669 LINE SMOOTH",
"298 669 OFFCURVE",
"331 668 OFFCURVE",
"364 655 CURVE SMOOTH",
"413 635 OFFCURVE",
"439 594 OFFCURVE",
"439 551 CURVE SMOOTH",
"439 509 OFFCURVE",
"415 469 OFFCURVE",
"368 449 CURVE SMOOTH",
"334 434 OFFCURVE",
"298 433 OFFCURVE",
"265 433 CURVE SMOOTH",
"150 433 LINE"
);
},
{
closed = 1;
nodes = (
"150 364 LINE",
"270 364 LINE SMOOTH",
"307 364 OFFCURVE",
"344 363 OFFCURVE",
"381 345 CURVE SMOOTH",
"436 319 OFFCURVE",
"465 266 OFFCURVE",
"465 213 CURVE SMOOTH",
"465 160 OFFCURVE",
"437 111 OFFCURVE",
"386 88 CURVE SMOOTH",
"354 74 OFFCURVE",
"323 73 OFFCURVE",
"291 73 CURVE SMOOTH",
"150 73 LINE"
);
}
);
width = 613;
},
{
layerId = "BAF923F9-5AD6-4831-8548-4755EA67E8F3";
name = Italic;
paths = (
{
closed = 1;
nodes = (
"198 739 LINE",
"68 0 LINE",
"276 0 LINE SMOOTH",
"326 0 OFFCURVE",
"378 0 OFFCURVE",
"433 22 CURVE SMOOTH",
"519 56 OFFCURVE",
"575 129 OFFCURVE",
"588 205 CURVE SMOOTH",
"603 291 OFFCURVE",
"562 368 OFFCURVE",
"484 396 CURVE",
"555 423 OFFCURVE",
"610 488 OFFCURVE",
"622 559 CURVE SMOOTH",
"634 625 OFFCURVE",
"606 689 OFFCURVE",
"542 719 CURVE SMOOTH",
"499 739 OFFCURVE",
"453 739 OFFCURVE",
"408 739 CURVE SMOOTH"
);
},
{
closed = 1;
nodes = (
"267 669 LINE",
"384 669 LINE SMOOTH",
"416 669 OFFCURVE",
"449 668 OFFCURVE",
"480 655 CURVE SMOOTH",
"526 635 OFFCURVE",
"545 594 OFFCURVE",
"537 551 CURVE SMOOTH",
"530 509 OFFCURVE",
"497 468 OFFCURVE",
"447 448 CURVE SMOOTH",
"410 433 OFFCURVE",
"375 433 OFFCURVE",
"342 433 CURVE SMOOTH",
"226 433 LINE"
);
},
{
closed = 1;
nodes = (
"214 364 LINE",
"334 364 LINE SMOOTH",
"371 364 OFFCURVE",
"408 363 OFFCURVE",
"442 345 CURVE SMOOTH",
"492 319 OFFCURVE",
"512 266 OFFCURVE",
"503 213 CURVE SMOOTH",
"494 160 OFFCURVE",
"456 111 OFFCURVE",
"401 88 CURVE SMOOTH",
"367 74 OFFCURVE",
"336 73 OFFCURVE",
"304 73 CURVE SMOOTH",
"162 73 LINE"
);
}
);
width = 613;
},
{
layerId = "C881373A-603B-4244-9A15-33852008E0AB";
name = Bold;
paths = (
{
closed = 1;
nodes = (
"52 0 LINE",
"276 0 LINE SMOOTH",
"327 0 OFFCURVE",
"379 0 OFFCURVE",
"435 23 CURVE SMOOTH",
"520 58 OFFCURVE",
"567 132 OFFCURVE",
"567 211 CURVE SMOOTH",
"567 289 OFFCURVE",
"522 361 OFFCURVE",
"450 397 CURVE",
"504 430 OFFCURVE",
"539 488 OFFCURVE",
"539 551 CURVE SMOOTH",
"539 621 OFFCURVE",
"497 687 OFFCURVE",
"422 718 CURVE SMOOTH",
"372 739 OFFCURVE",
"323 739 OFFCURVE",
"278 739 CURVE SMOOTH",
"52 739 LINE"
);
},
{
closed = 1;
nodes = (
"266 638 LINE SMOOTH",
"298 638 OFFCURVE",
"330 638 OFFCURVE",
"359 627 CURVE SMOOTH",
"403 611 OFFCURVE",
"424 576 OFFCURVE",
"424 543 CURVE SMOOTH",
"424 510 OFFCURVE",
"402 478 OFFCURVE",
"361 461 CURVE SMOOTH",
"331 449 OFFCURVE",
"298 449 OFFCURVE",
"265 449 CURVE SMOOTH",
"165 449 LINE",
"165 638 LINE"
);
},
{
closed = 1;
nodes = (
"270 348 LINE SMOOTH",
"307 348 OFFCURVE",
"342 347 OFFCURVE",
"375 332 CURVE SMOOTH",
"424 310 OFFCURVE",
"450 266 OFFCURVE",
"450 221 CURVE SMOOTH",
"450 176 OFFCURVE",
"425 135 OFFCURVE",
"380 116 CURVE SMOOTH",
"351 104 OFFCURVE",
"323 103 OFFCURVE",
"291 103 CURVE SMOOTH",
"165 103 LINE",
"165 348 LINE"
);
}
);
width = 613;
},
{
layerId = "99972075-B5E0-48DB-B31E-BE77C67EF09D";
name = "Bold Italic";
paths = (
{
closed = 1;
nodes = (
"52 0 LINE",
"276 0 LINE SMOOTH",
"327 0 OFFCURVE",
"379 0 OFFCURVE",
"439 23 CURVE SMOOTH",
"530 58 OFFCURVE",
"591 132 OFFCURVE",
"605 211 CURVE SMOOTH",
"619 289 OFFCURVE",
"586 361 OFFCURVE",
"520 397 CURVE",
"580 430 OFFCURVE",
"625 488 OFFCURVE",
"636 551 CURVE SMOOTH",
"648 621 OFFCURVE",
"617 687 OFFCURVE",
"548 718 CURVE SMOOTH",
"502 739 OFFCURVE",
"453 739 OFFCURVE",
"408 739 CURVE SMOOTH",
"183 739 LINE"
);
},
{
closed = 1;
nodes = (
"379 638 LINE SMOOTH",
"411 638 OFFCURVE",
"441 638 OFFCURVE",
"469 627 CURVE SMOOTH",
"510 611 OFFCURVE",
"526 576 OFFCURVE",
"520 543 CURVE SMOOTH",
"514 510 OFFCURVE",
"487 478 OFFCURVE",
"443 461 CURVE SMOOTH",
"410 449 OFFCURVE",
"377 449 OFFCURVE",
"344 449 CURVE SMOOTH",
"244 449 LINE",
"277 638 LINE"
);
},
{
closed = 1;
nodes = (
"332 348 LINE SMOOTH",
"369 348 OFFCURVE",
"402 347 OFFCURVE",
"433 332 CURVE SMOOTH",
"478 310 OFFCURVE",
"497 266 OFFCURVE",
"489 221 CURVE SMOOTH",
"481 176 OFFCURVE",
"449 135 OFFCURVE",
"400 116 CURVE SMOOTH",
"369 104 OFFCURVE",
"341 103 OFFCURVE",
"309 103 CURVE SMOOTH",
"183 103 LINE",
"226 348 LINE"
);
}
);
width = 613;
}
);
note = B;
unicode = 0042;
},
{
glyphname = C;
lastChange = "2016-10-27 22:44:17 +0000";
layers = (
{
layerId = "0945ADEB-DFBA-48BC-A89F-108FA066EBC6";
name = Regular;
paths = (
{
closed = 1;
nodes = (
"225 745 OFFCURVE",
"58 661 OFFCURVE",
"58 365 CURVE SMOOTH",
"58 79 OFFCURVE",
"217 -12 OFFCURVE",
"339 -12 CURVE SMOOTH",
"427 -12 OFFCURVE",
"510 34 OFFCURVE",
"556 110 CURVE",
"495 150 LINE",
"461 94 OFFCURVE",
"402 59 OFFCURVE",
"344 59 CURVE SMOOTH",
"235 59 OFFCURVE",
"139 173 OFFCURVE",
"139 373 CURVE SMOOTH",
"139 569 OFFCURVE",
"232 679 OFFCURVE",
"337 679 CURVE SMOOTH",
"395 679 OFFCURVE",
"448 645 OFFCURVE",
"478 593 CURVE",
"480 589 OFFCURVE",
"483 587 OFFCURVE",
"483 581 CURVE SMOOTH",
"483 578 OFFCURVE",
"482 575 OFFCURVE",
"482 572 CURVE SMOOTH",
"482 571 OFFCURVE",
"482 564 OFFCURVE",
"487 560 CURVE",
"566 599 LINE",
"526 688 OFFCURVE",
"438 745 OFFCURVE",
"340 745 CURVE SMOOTH"
);
}
);
width = 613;
},
{
layerId = "BAF923F9-5AD6-4831-8548-4755EA67E8F3";
name = Italic;
paths = (
{
closed = 1;
nodes = (
"356 745 OFFCURVE",
"175 661 OFFCURVE",
"123 365 CURVE SMOOTH",
"73 79 OFFCURVE",
"215 -12 OFFCURVE",
"337 -12 CURVE SMOOTH",
"425 -12 OFFCURVE",
"515 34 OFFCURVE",
"575 110 CURVE",
"521 150 LINE",
"477 94 OFFCURVE",
"412 59 OFFCURVE",
"354 59 CURVE SMOOTH",
"245 59 OFFCURVE",
"170 173 OFFCURVE",
"205 373 CURVE SMOOTH",
"240 569 OFFCURVE",
"352 679 OFFCURVE",
"457 679 CURVE SMOOTH",
"515 679 OFFCURVE",
"562 645 OFFCURVE",
"583 593 CURVE",
"585 589 OFFCURVE",
"586 587 OFFCURVE",
"585 581 CURVE",
"584 578 OFFCURVE",
"584 575 OFFCURVE",
"583 572 CURVE",
"583 571 OFFCURVE",
"581 564 OFFCURVE",
"586 560 CURVE",
"672 599 LINE",
"648 688 OFFCURVE",
"569 745 OFFCURVE",
"471 745 CURVE SMOOTH"
);
}
);
width = 613;
},
{
layerId = "C881373A-603B-4244-9A15-33852008E0AB";
name = Bold;
paths = (
{
closed = 1;
nodes = (
"43 84 OFFCURVE",
"208 -12 OFFCURVE",
"339 -12 CURVE SMOOTH",
"433 -12 OFFCURVE",
"520 37 OFFCURVE",
"569 117 CURVE SMOOTH",
"577 130 LINE",
"490 186 LINE",
"481 173 LINE",
"449 121 OFFCURVE",
"396 90 OFFCURVE",
"344 90 CURVE SMOOTH",
"248 90 OFFCURVE",
"155 187 OFFCURVE",
"155 373 CURVE SMOOTH",
"155 556 OFFCURVE",
"245 648 OFFCURVE",
"337 648 CURVE SMOOTH",
"389 648 OFFCURVE",
"438 617 OFFCURVE",
"465 570 CURVE",
"467 566 OFFCURVE",
"467 567 OFFCURVE",
"467 565 CURVE SMOOTH",
"467 556 LINE SMOOTH",
"467 554 OFFCURVE",
"466 541 OFFCURVE",
"479 532 CURVE SMOOTH",
"486 527 LINE",
"586 576 LINE",
"580 590 LINE SMOOTH",
"538 685 OFFCURVE",
"444 745 OFFCURVE",
"340 745 CURVE SMOOTH",
"217 745 OFFCURVE",
"43 656 OFFCURVE",
"43 365 CURVE SMOOTH"
);
}
);
width = 613;
},
{
layerId = "99972075-B5E0-48DB-B31E-BE77C67EF09D";
name = "Bold Italic";
paths = (
{
closed = 1;
nodes = (
"57 84 OFFCURVE",
"206 -12 OFFCURVE",
"337 -12 CURVE SMOOTH",
"431 -12 OFFCURVE",
"527 37 OFFCURVE",
"590 117 CURVE SMOOTH",
"600 130 LINE",
"523 186 LINE",
"512 173 LINE SMOOTH",
"471 121 OFFCURVE",
"412 90 OFFCURVE",
"360 90 CURVE SMOOTH",
"264 90 OFFCURVE",
"187 187 OFFCURVE",
"220 373 CURVE SMOOTH",
"252 556 OFFCURVE",
"359 648 OFFCURVE",
"451 648 CURVE SMOOTH",
"503 648 OFFCURVE",
"547 617 OFFCURVE",
"566 570 CURVE",
"568 566 OFFCURVE",
"567 567 OFFCURVE",
"567 565 CURVE SMOOTH",
"567 564 OFFCURVE",
"566 561 OFFCURVE",
"565 556 CURVE",
"565 554 OFFCURVE",
"561 541 OFFCURVE",
"572 532 CURVE",
"579 527 LINE",
"688 576 LINE",
"684 590 LINE SMOOTH",
"658 685 OFFCURVE",
"575 745 OFFCURVE",
"471 745 CURVE SMOOTH",
"348 745 OFFCURVE",
"158 656 OFFCURVE",
"107 365 CURVE SMOOTH"
);
}
);
width = 613;
}
);
note = C;
unicode = 0043;
},
{
glyphname = D;
lastChange = "2016-10-27 22:44:17 +0000";
layers = (
{
layerId = "0945ADEB-DFBA-48BC-A89F-108FA066EBC6";
name = Regular;
paths = (
{
closed = 1;
nodes = (
"74 739 LINE",
"74 -1 LINE",
"232 -1 LINE SMOOTH",
"291 -1 OFFCURVE",
"340 2 OFFCURVE",
"392 29 CURVE SMOOTH",
"498 83 OFFCURVE",
"556 209 OFFCURVE",
"556 371 CURVE SMOOTH",
"556 513 OFFCURVE",
"514 638 OFFCURVE",
"419 700 CURVE SMOOTH",
"365 735 OFFCURVE",
"312 739 OFFCURVE",
"247 739 CURVE SMOOTH"
);
},
{
closed = 1;
nodes = (
"153 669 LINE",
"242 669 LINE SMOOTH",
"289 669 OFFCURVE",
"335 666 OFFCURVE",
"381 628 CURVE SMOOTH",
"450 571 OFFCURVE",
"472 466 OFFCURVE",
"472 360 CURVE SMOOTH",
"472 219 OFFCURVE",
"426 138 OFFCURVE",
"367 98 CURVE SMOOTH",
"321 67 OFFCURVE",
"274 65 OFFCURVE",
"228 65 CURVE SMOOTH",
"153 65 LINE"
);
}
);
width = 613;
},
{
layerId = "BAF923F9-5AD6-4831-8548-4755EA67E8F3";
name = Italic;
paths = (
{
closed = 1;
nodes = (
"204 739 LINE",
"74 -1 LINE",
"232 -1 LINE SMOOTH",
"291 -1 OFFCURVE",
"340 2 OFFCURVE",
"397 29 CURVE SMOOTH",
"513 83 OFFCURVE",
"593 209 OFFCURVE",
"622 371 CURVE SMOOTH",
"647 513 OFFCURVE",
"626 638 OFFCURVE",
"542 700 CURVE SMOOTH",
"494 735 OFFCURVE",
"442 739 OFFCURVE",
"377 739 CURVE SMOOTH"
);
},
{
closed = 1;
nodes = (
"270 669 LINE",
"360 669 LINE SMOOTH",
"407 669 OFFCURVE",
"453 666 OFFCURVE",
"492 628 CURVE SMOOTH",
"551 571 OFFCURVE",
"555 466 OFFCURVE",
"536 360 CURVE SMOOTH",
"511 219 OFFCURVE",
"450 138 OFFCURVE",
"384 98 CURVE SMOOTH",
"332 67 OFFCURVE",
"286 65 OFFCURVE",
"240 65 CURVE SMOOTH",
"164 65 LINE"
);
}
);
width = 613;
},
{
layerId = "C881373A-603B-4244-9A15-33852008E0AB";
name = Bold;
paths = (
{
closed = 1;
nodes = (
"58 -1 LINE",
"232 -1 LINE SMOOTH",
"291 -1 OFFCURVE",
"344 2 OFFCURVE",
"399 29 CURVE SMOOTH",
"512 85 OFFCURVE",
"572 213 OFFCURVE",
"572 371 CURVE SMOOTH",
"572 510 OFFCURVE",
"529 636 OFFCURVE",
"427 699 CURVE SMOOTH",
"370 735 OFFCURVE",
"313 739 OFFCURVE",
"247 739 CURVE SMOOTH",
"58 739 LINE"
);
},
{
closed = 1;
nodes = (
"242 638 LINE SMOOTH",
"288 638 OFFCURVE",
"329 636 OFFCURVE",
"371 603 CURVE SMOOTH",
"434 554 OFFCURVE",
"457 459 OFFCURVE",
"457 360 CURVE SMOOTH",
"457 230 OFFCURVE",
"412 158 OFFCURVE",
"358 124 CURVE SMOOTH",
"316 97 OFFCURVE",
"274 95 OFFCURVE",
"228 95 CURVE SMOOTH",
"168 95 LINE",
"168 638 LINE"
);
}
);
width = 613;
},
{
layerId = "99972075-B5E0-48DB-B31E-BE77C67EF09D";
name = "Bold Italic";
paths = (
{
closed = 1;
nodes = (
"58 -1 LINE",
"232 -1 LINE SMOOTH",
"291 -1 OFFCURVE",
"345 2 OFFCURVE",
"405 29 CURVE SMOOTH",
"528 85 OFFCURVE",
"609 213 OFFCURVE",
"637 371 CURVE SMOOTH",
"662 510 OFFCURVE",
"641 636 OFFCURVE",
"551 699 CURVE SMOOTH",
"500 735 OFFCURVE",
"443 739 OFFCURVE",
"377 739 CURVE SMOOTH",
"189 739 LINE"
);
},
{
closed = 1;
nodes = (
"354 638 LINE SMOOTH",
"400 638 OFFCURVE",
"441 636 OFFCURVE",
"477 603 CURVE SMOOTH",
"531 554 OFFCURVE",
"538 459 OFFCURVE",
"521 360 CURVE SMOOTH",
"498 230 OFFCURVE",
"440 158 OFFCURVE",
"380 124 CURVE SMOOTH",
"333 97 OFFCURVE",
"291 95 OFFCURVE",
"245 95 CURVE SMOOTH",
"185 95 LINE",
"280 638 LINE"
);
}
);
width = 613;
}
);
note = D;
unicode = 0044;
},
{
glyphname = E;
lastChange = "2016-10-27 22:44:17 +0000";
layers = (
{
layerId = "0945ADEB-DFBA-48BC-A89F-108FA066EBC6";
name = Regular;
paths = (
{
closed = 1;
nodes = (
"80 740 LINE",
"80 0 LINE",
"530 0 LINE",
"530 74 LINE",
"159 74 LINE",
"159 348 LINE",
"468 348 LINE",
"468 424 LINE",
"159 424 LINE",
"159 667 LINE",
"534 667 LINE",
"534 740 LINE"
);
}
);
width = 613;
},
{
layerId = "BAF923F9-5AD6-4831-8548-4755EA67E8F3";
name = Italic;
paths = (
{
closed = 1;
nodes = (
"210 740 LINE",
"80 0 LINE",
"530 0 LINE",
"543 74 LINE",
"172 74 LINE",
"220 348 LINE",
"529 348 LINE",
"543 424 LINE",
"233 424 LINE",
"276 667 LINE",
"651 667 LINE",
"664 740 LINE"
);
}
);
width = 613;
},
{
layerId = "C881373A-603B-4244-9A15-33852008E0AB";
name = Bold;
paths = (
{
closed = 1;
nodes = (
"65 0 LINE",
"546 0 LINE",
"546 104 LINE",
"174 104 LINE",
"174 333 LINE",
"483 333 LINE",
"483 439 LINE",
"174 439 LINE",
"174 636 LINE",
"549 636 LINE",
"549 740 LINE",
"65 740 LINE"
);
}
);
width = 613;
},
{
layerId = "99972075-B5E0-48DB-B31E-BE77C67EF09D";
name = "Bold Italic";
paths = (
{
closed = 1;
nodes = (
"65 0 LINE",
"546 0 LINE",
"564 104 LINE",
"192 104 LINE",
"233 333 LINE",
"542 333 LINE",
"561 439 LINE",
"252 439 LINE",
"286 636 LINE",
"661 636 LINE",
"679 740 LINE",
"195 740 LINE"
);
}
);
width = 613;
}
);
note = E;
unicode = 0045;
},
{
glyphname = F;
lastChange = "2016-10-27 22:44:17 +0000";
layers = (
{
layerId = "0945ADEB-DFBA-48BC-A89F-108FA066EBC6";
name = Regular;
paths = (
{
closed = 1;
nodes = (
"102 740 LINE",
"102 0 LINE",
"186 0 LINE",
"186 364 LINE",
"463 364 LINE",
"463 435 LINE",
"186 435 LINE",
"186 668 LINE",
"528 668 LINE",
"528 740 LINE"
);
}
);
width = 613;
},
{
layerId = "BAF923F9-5AD6-4831-8548-4755EA67E8F3";
name = Italic;
paths = (
{
closed = 1;
nodes = (
"233 740 LINE",
"102 0 LINE",
"186 0 LINE",
"250 364 LINE",
"527 364 LINE",
"540 435 LINE",
"263 435 LINE",
"304 668 LINE",
"646 668 LINE",
"659 740 LINE"
);
}
);
width = 613;
},
{
layerId = "C881373A-603B-4244-9A15-33852008E0AB";
name = Bold;
paths = (
{
closed = 1;
nodes = (
"87 0 LINE",
"202 0 LINE",
"202 348 LINE",
"478 348 LINE",
"478 451 LINE",
"202 451 LINE",
"202 637 LINE",
"544 637 LINE",
"544 740 LINE",
"87 740 LINE"
);
}
);
width = 613;
},
{
layerId = "99972075-B5E0-48DB-B31E-BE77C67EF09D";
name = "Bold Italic";
paths = (
{
closed = 1;
nodes = (
"87 0 LINE",
"202 0 LINE",
"263 348 LINE",
"540 348 LINE",
"558 451 LINE",
"281 451 LINE",
"314 637 LINE",
"656 637 LINE",
"674 740 LINE",
"218 740 LINE"
);
}
);
width = 613;
}
);
note = F;
unicode = 0046;
},
{
glyphname = G;
lastChange = "2016-10-27 22:44:17 +0000";
layers = (
{
layerId = "0945ADEB-DFBA-48BC-A89F-108FA066EBC6";
name = Regular;
paths = (
{
closed = 1;
nodes = (
"241 746 OFFCURVE",
"53 685 OFFCURVE",
"53 361 CURVE SMOOTH",
"53 81 OFFCURVE",
"210 -11 OFFCURVE",
"339 -11 CURVE SMOOTH",
"407 -11 OFFCURVE",
"486 15 OFFCURVE",
"556 66 CURVE",
"556 354 LINE",
"345 354 LINE",
"345 283 LINE",
"479 283 LINE",
"479 106 LINE",
"438 76 OFFCURVE",
"390 61 OFFCURVE",
"346 61 CURVE SMOOTH",
"298 61 OFFCURVE",
"246 80 OFFCURVE",
"206 126 CURVE SMOOTH",
"144 196 OFFCURVE",
"135 300 OFFCURVE",
"135 378 CURVE SMOOTH",
"135 447 OFFCURVE",
"143 514 OFFCURVE",
"172 568 CURVE SMOOTH",
"210 640 OFFCURVE",
"277 674 OFFCURVE",
"339 674 CURVE SMOOTH",
"405 674 OFFCURVE",
"457 637 OFFCURVE",
"480 587 CURVE SMOOTH",
"484 579 OFFCURVE",
"487 569 OFFCURVE",
"496 563 CURVE",
"554 623 LINE",
"512 700 OFFCURVE",
"430 746 OFFCURVE",
"339 746 CURVE SMOOTH"
);
}
);
width = 613;
},
{
layerId = "BAF923F9-5AD6-4831-8548-4755EA67E8F3";
name = Italic;
paths = (
{
closed = 1;
nodes = (
"373 747 OFFCURVE",
"174 685 OFFCURVE",
"117 361 CURVE SMOOTH",
"68 81 OFFCURVE",
"208 -11 OFFCURVE",
"337 -11 CURVE SMOOTH",
"405 -11 OFFCURVE",
"489 15 OFFCURVE",
"568 66 CURVE",
"619 354 LINE",
"408 354 LINE",
"395 283 LINE",
"529 283 LINE",
"498 106 LINE",
"451 76 OFFCURVE",
"401 61 OFFCURVE",
"357 61 CURVE SMOOTH",
"309 61 OFFCURVE",
"260 80 OFFCURVE",
"228 126 CURVE SMOOTH",
"179 196 OFFCURVE",
"188 300 OFFCURVE",
"202 378 CURVE SMOOTH",
"214 447 OFFCURVE",
"233 514 OFFCURVE",
"272 568 CURVE SMOOTH",
"323 640 OFFCURVE",
"396 674 OFFCURVE",
"458 674 CURVE SMOOTH",
"524 674 OFFCURVE",
"569 637 OFFCURVE",
"583 587 CURVE SMOOTH",
"585 579 OFFCURVE",
"587 569 OFFCURVE",
"595 563 CURVE",
"664 623 LINE",
"635 700 OFFCURVE",
"562 747 OFFCURVE",
"471 747 CURVE SMOOTH"
);
}
);
width = 613;
},
{
layerId = "C881373A-603B-4244-9A15-33852008E0AB";
name = Bold;
paths = (
{
closed = 1;
nodes = (
"38 85 OFFCURVE",
"201 -11 OFFCURVE",
"339 -11 CURVE SMOOTH",
"411 -11 OFFCURVE",
"493 14 OFFCURVE",
"565 65 CURVE",
"571 70 LINE",
"571 370 LINE",
"330 370 LINE",
"330 267 LINE",
"464 267 LINE",
"464 127 LINE",
"428 105 OFFCURVE",
"384 92 OFFCURVE",
"346 92 CURVE SMOOTH",
"302 92 OFFCURVE",
"254 109 OFFCURVE",
"217 149 CURVE SMOOTH",
"160 211 OFFCURVE",
"151 305 OFFCURVE",
"151 378 CURVE SMOOTH",
"151 442 OFFCURVE",
"159 503 OFFCURVE",
"186 551 CURVE SMOOTH",
"222 614 OFFCURVE",
"282 643 OFFCURVE",
"339 643 CURVE SMOOTH",
"399 643 OFFCURVE",
"446 609 OFFCURVE",
"466 565 CURVE",
"469 559 OFFCURVE",
"473 544 OFFCURVE",
"487 535 CURVE SMOOTH",
"498 528 LINE",
"573 605 LINE",
"567 615 LINE",
"522 697 OFFCURVE",
"435 747 OFFCURVE",
"339 747 CURVE SMOOTH",
"234 747 OFFCURVE",
"38 681 OFFCURVE",
"38 361 CURVE SMOOTH"
);
}
);
width = 613;
},
{
layerId = "99972075-B5E0-48DB-B31E-BE77C67EF09D";
name = "Bold Italic";
paths = (
{
closed = 1;
nodes = (
"52 85 OFFCURVE",
"199 -11 OFFCURVE",
"337 -11 CURVE SMOOTH",
"409 -11 OFFCURVE",
"496 14 OFFCURVE",
"577 65 CURVE",
"584 70 LINE",
"637 370 LINE",
"395 370 LINE",
"377 267 LINE",
"511 267 LINE",
"486 127 LINE",
"446 105 OFFCURVE",
"400 92 OFFCURVE",
"362 92 CURVE SMOOTH",
"318 92 OFFCURVE",
"273 109 OFFCURVE",
"243 149 CURVE SMOOTH",
"197 211 OFFCURVE",
"204 305 OFFCURVE",
"217 378 CURVE SMOOTH",
"228 442 OFFCURVE",
"247 503 OFFCURVE",
"283 551 CURVE SMOOTH",
"330 614 OFFCURVE",
"395 643 OFFCURVE",
"452 643 CURVE SMOOTH",
"512 643 OFFCURVE",
"553 609 OFFCURVE",
"565 565 CURVE",
"567 559 OFFCURVE",
"569 544 OFFCURVE",
"582 535 CURVE",
"591 528 LINE",
"680 605 LINE",
"676 615 LINE SMOOTH",
"645 697 OFFCURVE",
"567 747 OFFCURVE",
"471 747 CURVE SMOOTH",
"366 747 OFFCURVE",
"157 681 OFFCURVE",
"101 361 CURVE SMOOTH"
);
}
);
width = 613;
}
);
note = G;
unicode = 0047;
},
{
glyphname = H;
lastChange = "2016-10-27 22:44:17 +0000";
layers = (
{
layerId = "0945ADEB-DFBA-48BC-A89F-108FA066EBC6";
name = Regular;
paths = (
{
closed = 1;
nodes = (
"75 739 LINE",
"75 0 LINE",
"161 0 LINE",
"161 352 LINE",
"450 352 LINE",
"450 -1 LINE",
"534 -1 LINE",
"534 713 LINE SMOOTH",
"534 725 OFFCURVE",
"542 725 OFFCURVE",
"542 734 CURVE SMOOTH",
"542 736 OFFCURVE",
"542 738 OFFCURVE",
"541 739 CURVE",
"451 739 LINE",
"451 423 LINE",
"161 423 LINE",
"161 711 LINE SMOOTH",
"161 724 OFFCURVE",
"168 725 OFFCURVE",
"168 734 CURVE SMOOTH",
"168 736 OFFCURVE",
"168 737 OFFCURVE",
"167 739 CURVE"
);
}
);
width = 613;
},
{
layerId = "BAF923F9-5AD6-4831-8548-4755EA67E8F3";
name = Italic;
paths = (
{
closed = 1;
nodes = (
"205 739 LINE",
"75 0 LINE",
"161 0 LINE",
"223 352 LINE",
"512 352 LINE",
"449 -1 LINE",
"533 -1 LINE",
"659 713 LINE SMOOTH",
"661 725 OFFCURVE",
"670 725 OFFCURVE",
"672 734 CURVE",
"672 736 OFFCURVE",
"672 738 OFFCURVE",
"671 739 CURVE",
"581 739 LINE",
"525 423 LINE",
"235 423 LINE",
"286 711 LINE SMOOTH",
"288 724 OFFCURVE",
"296 725 OFFCURVE",
"298 734 CURVE",
"298 736 OFFCURVE",
"298 737 OFFCURVE",
"297 739 CURVE"
);
}
);
width = 613;
},
{
layerId = "C881373A-603B-4244-9A15-33852008E0AB";
name = Bold;
paths = (
{
closed = 1;
nodes = (
"59 0 LINE",
"176 0 LINE",
"176 337 LINE",
"434 337 LINE",
"434 -1 LINE",
"549 -1 LINE",
"549 699 LINE SMOOTH",
"549 701 OFFCURVE",
"557 698 OFFCURVE",
"557 720 CURVE SMOOTH",
"557 724 OFFCURVE",
"556 728 OFFCURVE",
"554 732 CURVE",
"549 739 LINE",
"435 739 LINE",
"435 438 LINE",
"176 438 LINE",
"176 697 LINE SMOOTH",
"176 701 OFFCURVE",
"184 699 OFFCURVE",
"184 719 CURVE SMOOTH",
"184 723 OFFCURVE",
"183 727 OFFCURVE",
"181 731 CURVE",
"176 739 LINE",
"59 739 LINE"
);
}
);
width = 613;
},
{
layerId = "99972075-B5E0-48DB-B31E-BE77C67EF09D";
name = "Bold Italic";
paths = (
{
closed = 1;
nodes = (
"59 0 LINE",
"176 0 LINE",
"236 337 LINE",
"494 337 LINE",
"434 -1 LINE",
"549 -1 LINE",
"672 699 LINE",
"672 701 OFFCURVE",
"680 698 OFFCURVE",
"684 720 CURVE",
"685 724 OFFCURVE",
"685 728 OFFCURVE",
"683 732 CURVE",
"680 739 LINE",
"566 739 LINE",
"512 438 LINE",
"253 438 LINE",
"299 697 LINE",
"300 701 OFFCURVE",
"306 699 OFFCURVE",
"310 719 CURVE",
"311 723 OFFCURVE",
"311 727 OFFCURVE",
"310 731 CURVE",
"307 739 LINE",
"190 739 LINE"
);
}
);
width = 613;
}
);
note = H;
unicode = 0048;
},
{
glyphname = I;
lastChange = "2016-10-27 22:44:17 +0000";
layers = (
{
layerId = "0945ADEB-DFBA-48BC-A89F-108FA066EBC6";
name = Regular;
paths = (
{
closed = 1;
nodes = (
"115 739 LINE",
"115 670 LINE",
"252 670 LINE",
"252 69 LINE",
"106 69 LINE",
"106 -1 LINE",
"488 -1 LINE",
"488 68 LINE",
"335 68 LINE",
"335 670 LINE",
"481 670 LINE",
"481 739 LINE"
);
}
);
width = 613;
},
{
layerId = "BAF923F9-5AD6-4831-8548-4755EA67E8F3";
name = Italic;
paths = (
{
closed = 1;
nodes = (
"245 739 LINE",
"233 670 LINE",
"370 670 LINE",
"264 69 LINE",
"119 69 LINE",
"106 -1 LINE",
"488 -1 LINE",
"500 68 LINE",
"347 68 LINE",
"453 670 LINE",
"599 670 LINE",
"612 739 LINE"
);
}
);
width = 613;
},
{
layerId = "C881373A-603B-4244-9A15-33852008E0AB";
name = Bold;
paths = (
{
closed = 1;
nodes = (
"99 639 LINE",
"237 639 LINE",
"237 99 LINE",
"91 99 LINE",
"91 -1 LINE",
"504 -1 LINE",
"504 98 LINE",
"350 98 LINE",
"350 639 LINE",
"497 639 LINE",
"497 739 LINE",
"99 739 LINE"
);
}
);
width = 613;
},
{
layerId = "99972075-B5E0-48DB-B31E-BE77C67EF09D";
name = "Bold Italic";
paths = (
{
closed = 1;
nodes = (
"212 639 LINE",
"349 639 LINE",
"254 99 LINE",
"109 99 LINE",
"91 -1 LINE",
"504 -1 LINE",
"521 98 LINE",
"368 98 LINE",
"463 639 LINE",
"609 639 LINE",
"627 739 LINE",
"230 739 LINE"
);
}
);
width = 613;
}
);
note = I;
unicode = 0049;
},
{
glyphname = J;
lastChange = "2016-10-27 22:44:17 +0000";
layers = (
{
layerId = "0945ADEB-DFBA-48BC-A89F-108FA066EBC6";
name = Regular;
paths = (
{
closed = 1;
nodes = (
"214 739 LINE",
"214 670 LINE",
"356 670 LINE",
"356 247 LINE",
"356 237 LINE SMOOTH",
"356 193 OFFCURVE",
"356 146 OFFCURVE",
"330 108 CURVE",
"311 78 OFFCURVE",
"278 60 OFFCURVE",
"243 60 CURVE SMOOTH",
"181 60 OFFCURVE",
"134 112 OFFCURVE",
"131 115 CURVE",
"126 122 OFFCURVE",
"131 130 OFFCURVE",
"124 136 CURVE",
"69 69 LINE",
"113 17 OFFCURVE",
"176 -13 OFFCURVE",
"241 -13 CURVE SMOOTH",
"312 -13 OFFCURVE",
"375 22 OFFCURVE",
"410 85 CURVE SMOOTH",
"439 138 OFFCURVE",
"438 195 OFFCURVE",
"438 248 CURVE SMOOTH",
"438 670 LINE",
"552 670 LINE",
"552 739 LINE"
);
}
);
width = 613;
},
{
layerId = "BAF923F9-5AD6-4831-8548-4755EA67E8F3";
name = Italic;
paths = (
{
closed = 1;
nodes = (
"344 739 LINE",
"332 670 LINE",
"474 670 LINE",
"400 247 LINE",
"398 237 LINE SMOOTH",
"390 193 OFFCURVE",
"381 146 OFFCURVE",
"349 108 CURVE SMOOTH",
"324 78 OFFCURVE",
"288 60 OFFCURVE",
"253 60 CURVE SMOOTH",
"191 60 OFFCURVE",
"154 112 OFFCURVE",
"151 115 CURVE",
"147 122 OFFCURVE",
"154 130 OFFCURVE",
"148 136 CURVE",
"81 69 LINE",
"116 17 OFFCURVE",
"173 -13 OFFCURVE",
"238 -13 CURVE SMOOTH",
"309 -13 OFFCURVE",
"379 22 OFFCURVE",
"425 85 CURVE SMOOTH",
"463 138 OFFCURVE",
"473 195 OFFCURVE",
"482 248 CURVE SMOOTH",
"556 670 LINE",
"670 670 LINE",
"682 739 LINE"
);
}
);
width = 613;
},
{
layerId = "C881373A-603B-4244-9A15-33852008E0AB";
name = Bold;
paths = (
{
closed = 1;
nodes = (
"199 639 LINE",
"341 639 LINE",
"341 244 LINE SMOOTH",
"341 203 OFFCURVE",
"340 161 OFFCURVE",
"317 129 CURVE SMOOTH",
"300 105 OFFCURVE",
"273 91 OFFCURVE",
"243 91 CURVE SMOOTH",
"193 91 OFFCURVE",
"153 130 OFFCURVE",
"144 139 CURVE",
"144 139 OFFCURVE",
"145 153 OFFCURVE",
"134 163 CURVE",
"122 173 LINE",
"49 84 LINE",
"57 74 LINE SMOOTH",
"104 18 OFFCURVE",
"172 -13 OFFCURVE",
"241 -13 CURVE SMOOTH",
"317 -13 OFFCURVE",
"385 22 OFFCURVE",
"423 88 CURVE SMOOTH",
"454 143 OFFCURVE",
"454 200 OFFCURVE",
"454 251 CURVE SMOOTH",
"454 639 LINE",
"567 639 LINE",
"567 739 LINE",
"199 739 LINE"
);
}
);
width = 613;
},
{
layerId = "99972075-B5E0-48DB-B31E-BE77C67EF09D";
name = "Bold Italic";
paths = (
{
closed = 1;
nodes = (
"311 639 LINE",
"454 639 LINE",
"384 244 LINE SMOOTH",
"377 203 OFFCURVE",
"368 161 OFFCURVE",
"340 129 CURVE SMOOTH",
"319 105 OFFCURVE",
"289 91 OFFCURVE",
"259 91 CURVE SMOOTH",
"209 91 OFFCURVE",
"175 130 OFFCURVE",
"168 139 CURVE",
"168 139 OFFCURVE",
"173 153 OFFCURVE",
"163 163 CURVE SMOOTH",
"153 173 LINE",
"63 84 LINE",
"70 74 LINE SMOOTH",
"107 18 OFFCURVE",
"169 -13 OFFCURVE",
"238 -13 CURVE SMOOTH",
"314 -13 OFFCURVE",
"390 22 OFFCURVE",
"439 88 CURVE SMOOTH",
"480 143 OFFCURVE",
"489 200 OFFCURVE",
"498 251 CURVE SMOOTH",
"566 639 LINE",
"680 639 LINE",
"698 739 LINE",
"329 739 LINE"
);
}
);
width = 613;
}
);
note = J;
unicode = 004A;
},
{
glyphname = K;
lastChange = "2016-10-27 22:44:17 +0000";
layers = (
{
layerId = "0945ADEB-DFBA-48BC-A89F-108FA066EBC6";
name = Regular;
paths = (
{
closed = 1;
nodes = (
"60 740 LINE",
"60 0 LINE",
"148 0 LINE",
"148 306 LINE",
"207 370 LINE",
"464 -5 LINE",
"464 -5 OFFCURVE",
"511 -1 OFFCURVE",
"569 -1 CURVE",
"270 420 LINE",
"550 739 LINE",
"519 739 LINE SMOOTH",
"499 739 OFFCURVE",
"478 740 OFFCURVE",
"458 745 CURVE",
"148 398 LINE",
"148 710 LINE SMOOTH",
"148 715 OFFCURVE",
"149 718 OFFCURVE",
"153 723 CURVE SMOOTH",
"156 727 OFFCURVE",
"161 732 OFFCURVE",
"160 740 CURVE"
);
}
);
width = 613;
},
{
layerId = "BAF923F9-5AD6-4831-8548-4755EA67E8F3";
name = Italic;
paths = (
{
closed = 1;
nodes = (
"191 740 LINE",
"60 0 LINE",
"148 0 LINE",
"202 306 LINE",
"272 370 LINE",
"463 -5 LINE",
"463 -5 OFFCURVE",
"511 -1 OFFCURVE",
"569 -1 CURVE",
"344 420 LINE",
"680 739 LINE",
"650 739 LINE SMOOTH",
"630 739 OFFCURVE",
"609 740 OFFCURVE",
"589 745 CURVE",
"219 398 LINE",
"274 710 LINE SMOOTH",
"275 715 OFFCURVE",
"275 718 OFFCURVE",
"280 723 CURVE SMOOTH",
"284 727 OFFCURVE",
"290 732 OFFCURVE",
"290 740 CURVE"
);
}
);
width = 613;
},
{
layerId = "C881373A-603B-4244-9A15-33852008E0AB";
name = Bold;
paths = (
{
closed = 1;
nodes = (
"45 0 LINE",
"164 0 LINE",
"164 316 LINE",
"205 360 LINE",
"456 -6 LINE",
"465 -5 LINE",
"465 -5 OFFCURVE",
"511 -1 OFFCURVE",
"569 -1 CURVE SMOOTH",
"599 -1 LINE",
"290 417 LINE",
"584 739 LINE",
"519 739 LINE SMOOTH",
"499 739 OFFCURVE",
"480 740 OFFCURVE",
"461 745 CURVE",
"452 747 LINE",
"164 423 LINE",
"164 694 LINE",
"164 697 LINE",
"165 698 LINE",
"167 701 OFFCURVE",
"177 711 OFFCURVE",
"175 727 CURVE SMOOTH",
"173 740 LINE",
"45 740 LINE"
);
}
);
width = 613;
},
{
layerId = "99972075-B5E0-48DB-B31E-BE77C67EF09D";
name = "Bold Italic";
paths = (
{
closed = 1;
nodes = (
"45 0 LINE",
"164 0 LINE",
"219 316 LINE",
"269 360 LINE",
"455 -6 LINE",
"464 -5 LINE",
"464 -5 OFFCURVE",
"511 -1 OFFCURVE",
"569 -1 CURVE SMOOTH",
"599 -1 LINE",
"363 417 LINE",
"714 739 LINE",
"650 739 LINE SMOOTH",
"630 739 OFFCURVE",
"611 740 OFFCURVE",
"593 745 CURVE",
"584 747 LINE",
"238 423 LINE",
"286 694 LINE",
"286 695 OFFCURVE",
"287 696 OFFCURVE",
"287 697 CURVE",
"288 698 LINE",
"290 701 OFFCURVE",
"302 711 OFFCURVE",
"303 727 CURVE SMOOTH",
"304 740 LINE",
"176 740 LINE"
);
}
);
width = 613;
}
);
note = K;
unicode = 004B;
},
{
glyphname = L;
lastChange = "2016-10-27 22:44:17 +0000";
layers = (
{
layerId = "0945ADEB-DFBA-48BC-A89F-108FA066EBC6";
name = Regular;
paths = (
{
closed = 1;
nodes = (
"89 739 LINE",
"89 -1 LINE",
"531 -1 LINE",
"531 71 LINE",
"175 71 LINE",
"175 699 LINE SMOOTH",
"175 710 OFFCURVE",
"178 714 OFFCURVE",
"181 721 CURVE",
"183 724 OFFCURVE",
"186 731 OFFCURVE",
"185 739 CURVE"
);
}
);
width = 613;
},
{
layerId = "BAF923F9-5AD6-4831-8548-4755EA67E8F3";
name = Italic;
paths = (
{
closed = 1;
nodes = (
"219 739 LINE",
"89 -1 LINE",
"531 -1 LINE",
"544 71 LINE",
"188 71 LINE",
"298 699 LINE SMOOTH",
"300 710 OFFCURVE",
"303 714 OFFCURVE",
"308 721 CURVE SMOOTH",
"310 724 OFFCURVE",
"316 731 OFFCURVE",
"316 739 CURVE"
);
}
);
width = 613;
},
{
layerId = "C881373A-603B-4244-9A15-33852008E0AB";
name = Bold;
paths = (
{
closed = 1;
nodes = (
"74 -1 LINE",
"547 -1 LINE",
"547 101 LINE",
"190 101 LINE",
"190 686 LINE SMOOTH",
"190 694 OFFCURVE",
"191 692 OFFCURVE",
"195 699 CURVE",
"197 702 OFFCURVE",
"203 713 OFFCURVE",
"201 726 CURVE SMOOTH",
"199 739 LINE",
"74 739 LINE"
);
}
);
width = 613;
},
{
layerId = "99972075-B5E0-48DB-B31E-BE77C67EF09D";
name = "Bold Italic";
paths = (
{
closed = 1;
nodes = (
"74 -1 LINE",
"547 -1 LINE",
"565 101 LINE",
"208 101 LINE",
"311 686 LINE",
"312 694 OFFCURVE",
"313 692 OFFCURVE",
"318 699 CURVE SMOOTH",
"320 702 OFFCURVE",
"329 713 OFFCURVE",
"329 726 CURVE SMOOTH",
"329 739 LINE",
"204 739 LINE"
);
}
);
width = 613;
}
);
note = L;
unicode = 004C;
},
{
glyphname = M;
lastChange = "2016-10-27 22:44:17 +0000";
layers = (
{
layerId = "0945ADEB-DFBA-48BC-A89F-108FA066EBC6";
name = Regular;
paths = (
{
closed = 1;
nodes = (
"58 739 LINE",
"58 -1 LINE",
"136 -1 LINE",
"136 554 LINE",
"286 260 LINE",
"317 260 LINE",
"477 558 LINE",
"477 -1 LINE",
"556 -1 LINE",
"556 740 LINE",
"494 740 LINE",
"307 378 LINE",
"124 739 LINE"
);
}
);
width = 613;
},
{
layerId = "BAF923F9-5AD6-4831-8548-4755EA67E8F3";
name = Italic;
paths = (
{
closed = 1;
nodes = (
"189 739 LINE",
"58 -1 LINE",
"136 -1 LINE",
"234 554 LINE",
"332 260 LINE",
"363 260 LINE",
"576 558 LINE",
"477 -1 LINE",
"556 -1 LINE",
"687 740 LINE",
"624 740 LINE",
"374 378 LINE",
"254 739 LINE"
);
}
);
width = 613;
},
{
layerId = "C881373A-603B-4244-9A15-33852008E0AB";
name = Bold;
paths = (
{
closed = 1;
nodes = (
"43 -1 LINE",
"152 -1 LINE",
"152 505 LINE",
"276 260 LINE",
"327 260 LINE",
"462 512 LINE",
"462 -1 LINE",
"571 -1 LINE",
"571 740 LINE",
"484 740 LINE",
"307 396 LINE",
"133 739 LINE",
"43 739 LINE"
);
}
);
width = 613;
},
{
layerId = "99972075-B5E0-48DB-B31E-BE77C67EF09D";
name = "Bold Italic";
paths = (
{
closed = 1;
nodes = (
"43 -1 LINE",
"151 -1 LINE",
"241 505 LINE",
"322 260 LINE",
"372 260 LINE",
"552 512 LINE",
"462 -1 LINE",
"571 -1 LINE",
"702 740 LINE",
"615 740 LINE",
"377 396 LINE",
"264 739 LINE",
"173 739 LINE"
);
}
);
width = 613;
}
);
note = M;
unicode = 004D;
},
{
glyphname = N;
lastChange = "2016-10-27 22:44:17 +0000";
layers = (
{
layerId = "0945ADEB-DFBA-48BC-A89F-108FA066EBC6";
name = Regular;
paths = (
{
closed = 1;
nodes = (
"70 0 LINE",
"150 0 LINE",
"150 582 LINE",
"475 -1 LINE",
"541 -1 LINE",
"541 709 LINE SMOOTH",
"541 717 OFFCURVE",
"542 720 OFFCURVE",
"545 725 CURVE",
"546 728 OFFCURVE",
"550 733 OFFCURVE",
"549 740 CURVE",
"461 740 LINE",
"461 191 LINE",
"151 739 LINE",
"70 739 LINE"
);
}
);
width = 613;
},
{
layerId = "BAF923F9-5AD6-4831-8548-4755EA67E8F3";
name = Italic;
paths = (
{
closed = 1;
nodes = (
"70 0 LINE",
"150 0 LINE",
"252 582 LINE",
"475 -1 LINE",
"540 -1 LINE",
"666 709 LINE",
"667 717 OFFCURVE",
"669 720 OFFCURVE",
"673 725 CURVE",
"675 728 OFFCURVE",
"679 733 OFFCURVE",
"679 740 CURVE",
"591 740 LINE",
"495 191 LINE",
"281 739 LINE",
"200 739 LINE"
);
}
);
width = 613;
},
{
layerId = "C881373A-603B-4244-9A15-33852008E0AB";
name = Bold;
paths = (
{
closed = 1;
nodes = (
"165 0 LINE",
"165 538 LINE",
"466 -1 LINE",
"556 -1 LINE",
"556 695 LINE SMOOTH",
"556 700 OFFCURVE",
"556 698 OFFCURVE",
"559 704 CURVE SMOOTH",
"560 706 OFFCURVE",
"566 715 OFFCURVE",
"564 727 CURVE SMOOTH",
"562 740 LINE",
"445 740 LINE",
"445 234 LINE",
"159 739 LINE",
"54 739 LINE",
"54 0 LINE"
);
}
);
width = 613;
},
{
layerId = "99972075-B5E0-48DB-B31E-BE77C67EF09D";
name = "Bold Italic";
paths = (
{
closed = 1;
nodes = (
"165 0 LINE",
"260 538 LINE",
"466 -1 LINE",
"556 -1 LINE",
"679 695 LINE SMOOTH",
"680 700 OFFCURVE",
"679 698 OFFCURVE",
"683 704 CURVE",
"685 706 OFFCURVE",
"692 715 OFFCURVE",
"692 727 CURVE",
"693 740 LINE",
"576 740 LINE",
"487 234 LINE",
"290 739 LINE",
"185 739 LINE",
"54 0 LINE"
);
}
);
width = 613;
}
);
note = N;
unicode = 004E;
},
{
glyphname = O;
lastChange = "2016-10-27 22:44:17 +0000";
layers = (
{
layerId = "0945ADEB-DFBA-48BC-A89F-108FA066EBC6";
name = Regular;
paths = (
{
closed = 1;
nodes = (
"569 437 OFFCURVE",
"564 529 OFFCURVE",
"524 608 CURVE SMOOTH",
"476 703 OFFCURVE",
"391 748 OFFCURVE",
"311 748 CURVE SMOOTH",
"201 748 OFFCURVE",
"45 662 OFFCURVE",
"45 371 CURVE SMOOTH",
"45 80 OFFCURVE",
"199 -11 OFFCURVE",
"312 -11 CURVE SMOOTH",
"392 -11 OFFCURVE",
"476 34 OFFCURVE",
"525 132 CURVE SMOOTH",
"564 211 OFFCURVE",
"569 303 OFFCURVE",
"569 368 CURVE SMOOTH"
);
},
{
closed = 1;
nodes = (
"360 670 OFFCURVE",
"424 639 OFFCURVE",
"458 553 CURVE SMOOTH",
"483 491 OFFCURVE",
"486 420 OFFCURVE",
"486 357 CURVE SMOOTH",
"486 309 OFFCURVE",
"483 233 OFFCURVE",
"453 170 CURVE SMOOTH",
"419 98 OFFCURVE",
"362 70 OFFCURVE",
"312 70 CURVE SMOOTH",
"229 70 OFFCURVE",
"127 148 OFFCURVE",
"127 382 CURVE SMOOTH",
"127 602 OFFCURVE",
"230 670 OFFCURVE",
"308 670 CURVE SMOOTH"
);
}
);
width = 613;
},
{
layerId = "BAF923F9-5AD6-4831-8548-4755EA67E8F3";
name = Italic;
paths = (
{
closed = 1;
nodes = (
"646 437 OFFCURVE",
"657 529 OFFCURVE",
"631 608 CURVE SMOOTH",
"599 703 OFFCURVE",
"523 748 OFFCURVE",
"443 748 CURVE SMOOTH",
"333 748 OFFCURVE",
"161 662 OFFCURVE",
"110 371 CURVE SMOOTH",
"59 80 OFFCURVE",
"197 -11 OFFCURVE",
"310 -11 CURVE SMOOTH",
"390 -11 OFFCURVE",
"483 34 OFFCURVE",
"549 132 CURVE SMOOTH",
"602 211 OFFCURVE",
"623 303 OFFCURVE",
"634 368 CURVE SMOOTH"
);
},
{
closed = 1;
nodes = (
"478 670 OFFCURVE",
"536 639 OFFCURVE",
"555 553 CURVE SMOOTH",
"569 491 OFFCURVE",
"560 420 OFFCURVE",
"549 357 CURVE SMOOTH",
"540 309 OFFCURVE",
"525 234 OFFCURVE",
"483 170 CURVE SMOOTH",
"436 98 OFFCURVE",
"374 70 OFFCURVE",
"324 70 CURVE SMOOTH",
"241 70 OFFCURVE",
"153 147 OFFCURVE",
"194 382 CURVE SMOOTH",
"233 602 OFFCURVE",
"348 670 OFFCURVE",
"426 670 CURVE SMOOTH"
);
}
);
width = 613;
},
{
layerId = "C881373A-603B-4244-9A15-33852008E0AB";
name = Bold;
paths = (
{
closed = 1;
nodes = (
"487 702 OFFCURVE",
"397 748 OFFCURVE",
"311 748 CURVE SMOOTH",
"192 748 OFFCURVE",
"30 657 OFFCURVE",
"30 371 CURVE SMOOTH",
"30 86 OFFCURVE",
"189 -11 OFFCURVE",
"312 -11 CURVE SMOOTH",
"398 -11 OFFCURVE",
"488 35 OFFCURVE",
"539 134 CURVE SMOOTH",
"580 214 OFFCURVE",
"585 305 OFFCURVE",
"585 368 CURVE SMOOTH",
"585 435 OFFCURVE",
"580 526 OFFCURVE",
"538 606 CURVE SMOOTH"
);
},
{
closed = 1;
nodes = (
"467 482 OFFCURVE",
"471 417 OFFCURVE",
"471 358 CURVE SMOOTH",
"471 313 OFFCURVE",
"468 244 OFFCURVE",
"440 187 CURVE SMOOTH",
"408 124 OFFCURVE",
"356 100 OFFCURVE",
"312 100 CURVE SMOOTH",
"240 100 OFFCURVE",
"142 162 OFFCURVE",
"142 381 CURVE SMOOTH",
"142 585 OFFCURVE",
"241 639 OFFCURVE",
"308 639 CURVE SMOOTH",
"354 639 OFFCURVE",
"411 614 OFFCURVE",
"443 538 CURVE SMOOTH"
);
}
);
width = 613;
},
{
layerId = "99972075-B5E0-48DB-B31E-BE77C67EF09D";
name = "Bold Italic";
paths = (
{
closed = 1;
nodes = (
"611 702 OFFCURVE",
"529 748 OFFCURVE",
"443 748 CURVE SMOOTH",
"324 748 OFFCURVE",
"145 657 OFFCURVE",
"95 371 CURVE SMOOTH",
"45 86 OFFCURVE",
"187 -11 OFFCURVE",
"310 -11 CURVE SMOOTH",
"396 -11 OFFCURVE",
"494 35 OFFCURVE",
"563 134 CURVE SMOOTH",
"618 214 OFFCURVE",
"639 305 OFFCURVE",
"650 368 CURVE SMOOTH",
"662 435 OFFCURVE",
"673 526 OFFCURVE",
"645 606 CURVE SMOOTH"
);
},
{
closed = 1;
nodes = (
"552 482 OFFCURVE",
"544 417 OFFCURVE",
"534 358 CURVE SMOOTH",
"526 313 OFFCURVE",
"510 244 OFFCURVE",
"472 187 CURVE SMOOTH",
"429 124 OFFCURVE",
"374 100 OFFCURVE",
"330 100 CURVE SMOOTH",
"258 100 OFFCURVE",
"170 162 OFFCURVE",
"209 381 CURVE SMOOTH",
"245 585 OFFCURVE",
"353 639 OFFCURVE",
"420 639 CURVE SMOOTH",
"466 639 OFFCURVE",
"519 614 OFFCURVE",
"538 538 CURVE SMOOTH"
);
}
);
width = 613;
}
);
note = O;
unicode = 004F;
},
{
glyphname = P;
lastChange = "2016-10-27 22:44:17 +0000";
layers = (
{
layerId = "0945ADEB-DFBA-48BC-A89F-108FA066EBC6";
name = Regular;
paths = (
{
closed = 1;
nodes = (
"166 662 LINE",
"305 662 LINE SMOOTH",
"336 662 OFFCURVE",
"365 660 OFFCURVE",
"396 645 CURVE SMOOTH",
"442 622 OFFCURVE",
"466 575 OFFCURVE",
"466 527 CURVE SMOOTH",
"466 480 OFFCURVE",
"443 437 OFFCURVE",
"400 415 CURVE SMOOTH",
"371 401 OFFCURVE",
"343 399 OFFCURVE",
"314 399 CURVE SMOOTH",
"165 399 LINE"
);
},
{
closed = 1;
nodes = (
"80 739 LINE",
"80 0 LINE",
"166 0 LINE",
"166 327 LINE",
"311 327 LINE SMOOTH",
"357 327 OFFCURVE",
"401 327 OFFCURVE",
"446 350 CURVE SMOOTH",
"515 385 OFFCURVE",
"551 456 OFFCURVE",
"551 531 CURVE SMOOTH",
"551 606 OFFCURVE",
"515 678 OFFCURVE",
"445 714 CURVE SMOOTH",
"398 739 OFFCURVE",
"353 739 OFFCURVE",
"305 739 CURVE SMOOTH"
);
}
);
width = 613;
},
{
layerId = "BAF923F9-5AD6-4831-8548-4755EA67E8F3";
name = Italic;
paths = (
{
closed = 1;
nodes = (
"283 662 LINE",
"422 662 LINE SMOOTH",
"453 662 OFFCURVE",
"482 660 OFFCURVE",
"510 645 CURVE SMOOTH",
"552 622 OFFCURVE",
"567 575 OFFCURVE",
"559 527 CURVE SMOOTH",
"551 480 OFFCURVE",
"521 437 OFFCURVE",
"474 415 CURVE SMOOTH",
"443 401 OFFCURVE",
"414 399 OFFCURVE",
"385 399 CURVE SMOOTH",
"235 399 LINE"
);
},
{
closed = 1;
nodes = (
"210 739 LINE",
"80 0 LINE",
"166 0 LINE",
"223 327 LINE",
"369 327 LINE SMOOTH",
"415 327 OFFCURVE",
"459 327 OFFCURVE",
"508 350 CURVE SMOOTH",
"583 385 OFFCURVE",
"632 456 OFFCURVE",
"645 531 CURVE SMOOTH",
"658 606 OFFCURVE",
"634 678 OFFCURVE",
"571 714 CURVE SMOOTH",
"528 739 OFFCURVE",
"484 739 OFFCURVE",
"436 739 CURVE SMOOTH"
);
}
);
width = 613;
},
{
layerId = "C881373A-603B-4244-9A15-33852008E0AB";
name = Bold;
paths = (
{
closed = 1;
nodes = (
"305 631 LINE SMOOTH",
"336 631 OFFCURVE",
"362 630 OFFCURVE",
"389 617 CURVE SMOOTH",
"429 599 OFFCURVE",
"451 560 OFFCURVE",
"451 520 CURVE SMOOTH",
"451 480 OFFCURVE",
"431 445 OFFCURVE",
"394 428 CURVE SMOOTH",
"369 416 OFFCURVE",
"342 415 OFFCURVE",
"314 415 CURVE SMOOTH",
"180 415 LINE",
"181 631 LINE"
);
},
{
closed = 1;
nodes = (
"65 0 LINE",
"181 0 LINE",
"181 311 LINE",
"311 311 LINE SMOOTH",
"357 311 OFFCURVE",
"404 312 OFFCURVE",
"453 336 CURVE SMOOTH",
"528 373 OFFCURVE",
"566 447 OFFCURVE",
"566 524 CURVE SMOOTH",
"566 601 OFFCURVE",
"528 676 OFFCURVE",
"453 713 CURVE SMOOTH",
"402 738 OFFCURVE",
"353 739 OFFCURVE",
"305 739 CURVE SMOOTH",
"65 739 LINE"
);
}
);
width = 613;
},
{
layerId = "99972075-B5E0-48DB-B31E-BE77C67EF09D";
name = "Bold Italic";
paths = (
{
closed = 1;
nodes = (
"416 631 LINE SMOOTH",
"447 631 OFFCURVE",
"473 630 OFFCURVE",
"498 617 CURVE SMOOTH",
"535 599 OFFCURVE",
"549 560 OFFCURVE",
"542 520 CURVE SMOOTH",
"535 480 OFFCURVE",
"509 445 OFFCURVE",
"469 428 CURVE SMOOTH",
"442 416 OFFCURVE",
"415 415 OFFCURVE",
"387 415 CURVE SMOOTH",
"253 415 LINE",
"292 631 LINE"
);
},
{
closed = 1;
nodes = (
"65 0 LINE",
"181 0 LINE",
"236 311 LINE",
"366 311 LINE SMOOTH",
"412 311 OFFCURVE",
"460 312 OFFCURVE",
"513 336 CURVE SMOOTH",
"594 373 OFFCURVE",
"645 447 OFFCURVE",
"659 524 CURVE SMOOTH",
"673 601 OFFCURVE",
"647 676 OFFCURVE",
"578 713 CURVE SMOOTH",
"532 738 OFFCURVE",
"484 739 OFFCURVE",
"436 739 CURVE SMOOTH",
"195 739 LINE"
);
}
);
width = 613;
}
);
note = P;
unicode = 0050;
},
{
glyphname = Q;
lastChange = "2016-10-27 22:44:17 +0000";
layers = (
{
layerId = "0945ADEB-DFBA-48BC-A89F-108FA066EBC6";
name = Regular;
paths = (
{
closed = 1;
nodes = (
"359 672 OFFCURVE",
"424 641 OFFCURVE",
"460 554 CURVE SMOOTH",
"486 491 OFFCURVE",
"489 418 OFFCURVE",
"489 356 CURVE SMOOTH",
"489 110 OFFCURVE",
"374 66 OFFCURVE",
"312 66 CURVE SMOOTH",
"226 66 OFFCURVE",
"126 149 OFFCURVE",
"126 383 CURVE SMOOTH",
"126 600 OFFCURVE",
"227 672 OFFCURVE",
"307 672 CURVE SMOOTH"
);
},
{
closed = 1;
nodes = (
"569 437 OFFCURVE",
"564 527 OFFCURVE",
"525 606 CURVE SMOOTH",
"477 702 OFFCURVE",
"392 748 OFFCURVE",
"311 748 CURVE SMOOTH",
"200 748 OFFCURVE",
"45 662 OFFCURVE",
"45 371 CURVE SMOOTH",
"45 108 OFFCURVE",
"171 8 OFFCURVE",
"279 -8 CURVE",
"279 -13 LINE SMOOTH",
"279 -79 OFFCURVE",
"297 -128 OFFCURVE",
"349 -154 CURVE SMOOTH",
"382 -170 OFFCURVE",
"417 -172 OFFCURVE",
"465 -172 CURVE SMOOTH",
"509 -172 LINE",
"532 -172 LINE",
"535 -91 LINE",
"497 -93 OFFCURVE",
"465 -97 OFFCURVE",
"438 -97 CURVE SMOOTH",
"363 -97 OFFCURVE",
"352 -49 OFFCURVE",
"351 -8 CURVE",
"419 4 OFFCURVE",
"484 49 OFFCURVE",
"525 131 CURVE SMOOTH",
"564 210 OFFCURVE",
"569 301 OFFCURVE",
"569 367 CURVE SMOOTH"
);
}
);
width = 613;
},
{
layerId = "BAF923F9-5AD6-4831-8548-4755EA67E8F3";
name = Italic;
paths = (
{
closed = 1;
nodes = (
"478 672 OFFCURVE",
"537 641 OFFCURVE",
"557 554 CURVE SMOOTH",
"571 491 OFFCURVE",
"563 418 OFFCURVE",
"552 356 CURVE SMOOTH",
"509 110 OFFCURVE",
"386 66 OFFCURVE",
"324 66 CURVE SMOOTH",
"238 66 OFFCURVE",
"152 149 OFFCURVE",
"193 383 CURVE SMOOTH",
"231 600 OFFCURVE",
"346 672 OFFCURVE",
"426 672 CURVE SMOOTH"
);
},
{
closed = 1;
nodes = (
"646 437 OFFCURVE",
"657 527 OFFCURVE",
"632 606 CURVE SMOOTH",
"601 702 OFFCURVE",
"524 748 OFFCURVE",
"443 748 CURVE SMOOTH",
"332 748 OFFCURVE",
"161 662 OFFCURVE",
"110 371 CURVE SMOOTH",
"64 108 OFFCURVE",
"172 8 OFFCURVE",
"277 -8 CURVE",
"277 -10 OFFCURVE",
"276 -11 OFFCURVE",
"276 -13 CURVE",
"264 -79 OFFCURVE",
"274 -128 OFFCURVE",
"322 -154 CURVE SMOOTH",
"352 -170 OFFCURVE",
"387 -172 OFFCURVE",
"435 -172 CURVE SMOOTH",
"479 -172 LINE",
"502 -172 LINE",
"518 -91 LINE",
"480 -93 OFFCURVE",
"448 -97 OFFCURVE",
"421 -97 CURVE SMOOTH",
"346 -97 OFFCURVE",
"344 -49 OFFCURVE",
"350 -8 CURVE",
"420 4 OFFCURVE",
"493 49 OFFCURVE",
"548 131 CURVE SMOOTH",
"601 210 OFFCURVE",
"622 301 OFFCURVE",
"634 367 CURVE SMOOTH"
);
}
);
width = 613;
},
{
layerId = "C881373A-603B-4244-9A15-33852008E0AB";
name = Bold;
paths = (
{
closed = 1;
nodes = (
"470 482 OFFCURVE",
"474 416 OFFCURVE",
"474 357 CURVE SMOOTH",
"474 130 OFFCURVE",
"365 96 OFFCURVE",
"312 96 CURVE SMOOTH",
"238 96 OFFCURVE",
"141 163 OFFCURVE",
"141 382 CURVE SMOOTH",
"141 583 OFFCURVE",
"238 641 OFFCURVE",
"307 641 CURVE SMOOTH",
"353 641 OFFCURVE",
"412 616 OFFCURVE",
"446 539 CURVE SMOOTH"
);
},
{
closed = 1;
nodes = (
"488 701 OFFCURVE",
"398 748 OFFCURVE",
"311 748 CURVE SMOOTH",
"191 748 OFFCURVE",
"30 657 OFFCURVE",
"30 371 CURVE SMOOTH",
"30 123 OFFCURVE",
"149 17 OFFCURVE",
"263 -6 CURVE",
"264 -70 OFFCURVE",
"285 -124 OFFCURVE",
"342 -152 CURVE SMOOTH",
"378 -170 OFFCURVE",
"417 -172 OFFCURVE",
"465 -172 CURVE SMOOTH",
"547 -172 LINE",
"550 -60 LINE",
"534 -60 LINE",
"495 -62 OFFCURVE",
"463 -67 OFFCURVE",
"438 -67 CURVE SMOOTH",
"381 -67 OFFCURVE",
"370 -39 OFFCURVE",
"367 -5 CURVE",
"434 11 OFFCURVE",
"499 56 OFFCURVE",
"539 134 CURVE SMOOTH",
"580 213 OFFCURVE",
"585 303 OFFCURVE",
"585 367 CURVE SMOOTH",
"585 435 OFFCURVE",
"580 525 OFFCURVE",
"539 604 CURVE SMOOTH"
);
}
);
width = 613;
},
{
layerId = "99972075-B5E0-48DB-B31E-BE77C67EF09D";
name = "Bold Italic";
paths = (
{
closed = 1;
nodes = (
"555 482 OFFCURVE",
"547 416 OFFCURVE",
"537 357 CURVE SMOOTH",
"497 130 OFFCURVE",
"382 96 OFFCURVE",
"329 96 CURVE SMOOTH",
"255 96 OFFCURVE",
"170 163 OFFCURVE",
"209 382 CURVE SMOOTH",
"244 583 OFFCURVE",
"351 641 OFFCURVE",
"420 641 CURVE SMOOTH",
"466 641 OFFCURVE",
"521 616 OFFCURVE",
"541 539 CURVE SMOOTH"
);
},
{
closed = 1;
nodes = (
"612 701 OFFCURVE",
"530 748 OFFCURVE",
"443 748 CURVE SMOOTH",
"323 748 OFFCURVE",
"145 657 OFFCURVE",
"95 371 CURVE SMOOTH",
"51 123 OFFCURVE",
"152 17 OFFCURVE",
"262 -6 CURVE",
"252 -70 OFFCURVE",
"264 -124 OFFCURVE",
"316 -152 CURVE SMOOTH",
"349 -170 OFFCURVE",
"387 -172 OFFCURVE",
"435 -172 CURVE SMOOTH",
"517 -172 LINE",
"540 -60 LINE",
"523 -60 LINE",
"484 -62 OFFCURVE",
"452 -67 OFFCURVE",
"427 -67 CURVE SMOOTH",
"370 -67 OFFCURVE",
"363 -39 OFFCURVE",
"366 -5 CURVE",
"436 11 OFFCURVE",
"509 56 OFFCURVE",
"563 134 CURVE SMOOTH",
"618 213 OFFCURVE",
"638 303 OFFCURVE",
"649 367 CURVE SMOOTH",
"661 435 OFFCURVE",
"672 525 OFFCURVE",
"645 604 CURVE SMOOTH"
);
}
);
width = 613;
}
);
note = Q;
unicode = 0051;
},
{
glyphname = R;
lastChange = "2016-10-27 22:44:17 +0000";
layers = (
{
layerId = "0945ADEB-DFBA-48BC-A89F-108FA066EBC6";
name = Regular;
paths = (
{
closed = 1;
nodes = (
"77 739 LINE",
"77 0 LINE",
"161 0 LINE",
"161 327 LINE",
"304 327 LINE",
"468 0 LINE",
"561 0 LINE",
"390 330 LINE",
"480 354 OFFCURVE",
"541 439 OFFCURVE",
"541 537 CURVE SMOOTH",
"541 611 OFFCURVE",
"504 679 OFFCURVE",
"436 714 CURVE SMOOTH",
"389 738 OFFCURVE",
"343 739 OFFCURVE",
"295 739 CURVE SMOOTH"
);
},
{
closed = 1;
nodes = (
"161 662 LINE",
"295 662 LINE SMOOTH",
"326 662 OFFCURVE",
"356 661 OFFCURVE",
"386 646 CURVE SMOOTH",
"432 623 OFFCURVE",
"456 575 OFFCURVE",
"456 527 CURVE SMOOTH",
"456 480 OFFCURVE",
"433 436 OFFCURVE",
"390 414 CURVE SMOOTH",
"361 400 OFFCURVE",
"333 399 OFFCURVE",
"304 399 CURVE SMOOTH",
"161 399 LINE"
);
}
);
width = 613;
},
{
layerId = "BAF923F9-5AD6-4831-8548-4755EA67E8F3";
name = Italic;
paths = (
{
closed = 1;
nodes = (
"207 739 LINE",
"77 0 LINE",
"161 0 LINE",
"218 327 LINE",
"362 327 LINE",
"468 0 LINE",
"561 0 LINE",
"448 330 LINE",
"542 354 OFFCURVE",
"618 439 OFFCURVE",
"635 537 CURVE SMOOTH",
"648 611 OFFCURVE",
"624 679 OFFCURVE",
"562 714 CURVE SMOOTH",
"519 738 OFFCURVE",
"473 739 OFFCURVE",
"425 739 CURVE SMOOTH"
);
},
{
closed = 1;
nodes = (
"277 662 LINE",
"412 662 LINE SMOOTH",
"443 662 OFFCURVE",
"473 661 OFFCURVE",
"500 646 CURVE SMOOTH",
"542 623 OFFCURVE",
"557 575 OFFCURVE",
"549 527 CURVE SMOOTH",
"541 480 OFFCURVE",
"510 436 OFFCURVE",
"463 414 CURVE SMOOTH",
"432 400 OFFCURVE",
"404 399 OFFCURVE",
"375 399 CURVE SMOOTH",
"231 399 LINE"
);
}
);
width = 613;
},
{
layerId = "C881373A-603B-4244-9A15-33852008E0AB";
name = Bold;
paths = (
{
closed = 1;
nodes = (
"61 0 LINE",
"176 0 LINE",
"176 311 LINE",
"295 311 LINE",
"458 0 LINE",
"586 0 LINE",
"412 323 LINE",
"498 354 OFFCURVE",
"556 436 OFFCURVE",
"556 530 CURVE SMOOTH",
"556 606 OFFCURVE",
"517 678 OFFCURVE",
"443 714 CURVE SMOOTH",
"393 739 OFFCURVE",
"343 739 OFFCURVE",
"295 739 CURVE SMOOTH",
"61 739 LINE"
);
},
{
closed = 1;
nodes = (
"295 631 LINE SMOOTH",
"326 631 OFFCURVE",
"352 629 OFFCURVE",
"379 617 CURVE SMOOTH",
"419 598 OFFCURVE",
"440 560 OFFCURVE",
"440 520 CURVE SMOOTH",
"440 481 OFFCURVE",
"420 444 OFFCURVE",
"383 427 CURVE SMOOTH",
"358 415 OFFCURVE",
"333 415 OFFCURVE",
"304 415 CURVE SMOOTH",
"176 415 LINE",
"176 631 LINE"
);
}
);
width = 613;
},
{
layerId = "99972075-B5E0-48DB-B31E-BE77C67EF09D";
name = "Bold Italic";
paths = (
{
closed = 1;
nodes = (
"61 0 LINE",
"176 0 LINE",
"231 311 LINE",
"350 311 LINE",
"458 0 LINE",
"586 0 LINE",
"469 323 LINE",
"560 354 OFFCURVE",
"633 436 OFFCURVE",
"650 530 CURVE SMOOTH",
"663 606 OFFCURVE",
"636 678 OFFCURVE",
"569 714 CURVE SMOOTH",
"523 739 OFFCURVE",
"473 739 OFFCURVE",
"425 739 CURVE SMOOTH",
"192 739 LINE"
);
},
{
closed = 1;
nodes = (
"406 631 LINE SMOOTH",
"437 631 OFFCURVE",
"464 629 OFFCURVE",
"488 617 CURVE SMOOTH",
"525 598 OFFCURVE",
"539 560 OFFCURVE",
"532 520 CURVE SMOOTH",
"525 481 OFFCURVE",
"498 444 OFFCURVE",
"458 427 CURVE SMOOTH",
"431 415 OFFCURVE",
"406 415 OFFCURVE",
"377 415 CURVE SMOOTH",
"249 415 LINE",
"287 631 LINE"
);
}
);
width = 613;
}
);
note = R;
unicode = 0052;
},
{
glyphname = S;
lastChange = "2016-10-27 22:44:17 +0000";
layers = (
{
layerId = "0945ADEB-DFBA-48BC-A89F-108FA066EBC6";
name = Regular;
paths = (
{
closed = 1;
nodes = (
"526 651 LINE",
"476 710 OFFCURVE",
"402 743 OFFCURVE",
"321 743 CURVE SMOOTH",
"187 743 OFFCURVE",
"96 655 OFFCURVE",
"96 554 CURVE SMOOTH",
"96 511 OFFCURVE",
"113 456 OFFCURVE",
"175 410 CURVE SMOOTH",
"243 359 OFFCURVE",
"350 334 OFFCURVE",
"406 299 CURVE SMOOTH",
"454 269 OFFCURVE",
"468 230 OFFCURVE",
"468 197 CURVE SMOOTH",
"468 134 OFFCURVE",
"412 62 OFFCURVE",
"306 62 CURVE SMOOTH",
"225 62 OFFCURVE",
"163 102 OFFCURVE",
"130 144 CURVE SMOOTH",
"126 149 OFFCURVE",
"126 152 OFFCURVE",
"126 157 CURVE SMOOTH",
"126 159 OFFCURVE",
"127 165 OFFCURVE",
"121 168 CURVE",
"72 83 LINE",
"130 20 OFFCURVE",
"213 -12 OFFCURVE",
"304 -12 CURVE SMOOTH",
"484 -12 OFFCURVE",
"550 108 OFFCURVE",
"550 201 CURVE SMOOTH",
"550 240 OFFCURVE",
"539 291 OFFCURVE",
"493 335 CURVE SMOOTH",
"430 396 OFFCURVE",
"325 416 OFFCURVE",
"257 456 CURVE SMOOTH",
"195 492 OFFCURVE",
"181 537 OFFCURVE",
"181 567 CURVE SMOOTH",
"181 624 OFFCURVE",
"230 675 OFFCURVE",
"315 675 CURVE SMOOTH",
"384 675 OFFCURVE",
"436 644 OFFCURVE",
"465 602 CURVE",
"468 597 OFFCURVE",
"468 594 OFFCURVE",
"468 590 CURVE SMOOTH",
"468 583 OFFCURVE",
"471 582 OFFCURVE",
"474 581 CURVE"
);
}
);
width = 613;
},
{
layerId = "BAF923F9-5AD6-4831-8548-4755EA67E8F3";
name = Italic;
paths = (
{
closed = 1;
nodes = (
"641 651 LINE",
"601 710 OFFCURVE",
"533 743 OFFCURVE",
"452 743 CURVE SMOOTH",
"318 743 OFFCURVE",
"212 655 OFFCURVE",
"194 554 CURVE SMOOTH",
"186 511 OFFCURVE",
"193 456 OFFCURVE",
"247 410 CURVE SMOOTH",
"307 359 OFFCURVE",
"408 334 OFFCURVE",
"458 299 CURVE SMOOTH",
"501 269 OFFCURVE",
"508 230 OFFCURVE",
"502 197 CURVE SMOOTH",
"491 133 OFFCURVE",
"424 62 OFFCURVE",
"317 62 CURVE SMOOTH",
"236 62 OFFCURVE",
"181 102 OFFCURVE",
"155 144 CURVE SMOOTH",
"152 149 OFFCURVE",
"153 152 OFFCURVE",
"154 157 CURVE",
"154 159 OFFCURVE",
"155 165 OFFCURVE",
"150 168 CURVE",
"86 83 LINE",
"133 20 OFFCURVE",
"211 -12 OFFCURVE",
"302 -12 CURVE SMOOTH",
"482 -12 OFFCURVE",
"570 108 OFFCURVE",
"586 201 CURVE SMOOTH",
"593 240 OFFCURVE",
"591 291 OFFCURVE",
"552 335 CURVE SMOOTH",
"498 396 OFFCURVE",
"398 416 OFFCURVE",
"337 456 CURVE SMOOTH",
"282 492 OFFCURVE",
"276 537 OFFCURVE",
"281 567 CURVE SMOOTH",
"291 624 OFFCURVE",
"349 675 OFFCURVE",
"434 675 CURVE SMOOTH",
"503 675 OFFCURVE",
"550 644 OFFCURVE",
"571 602 CURVE",
"573 597 OFFCURVE",
"573 594 OFFCURVE",
"572 590 CURVE",
"571 583 OFFCURVE",
"574 582 OFFCURVE",
"576 581 CURVE"
);
}
);
width = 613;
},
{
layerId = "C881373A-603B-4244-9A15-33852008E0AB";
name = Bold;
paths = (
{
closed = 1;
nodes = (
"538 646 LINE SMOOTH",
"485 709 OFFCURVE",
"406 743 OFFCURVE",
"321 743 CURVE SMOOTH",
"181 743 OFFCURVE",
"81 654 OFFCURVE",
"81 548 CURVE SMOOTH",
"81 503 OFFCURVE",
"99 444 OFFCURVE",
"165 398 CURVE SMOOTH",
"237 347 OFFCURVE",
"346 323 OFFCURVE",
"398 292 CURVE SMOOTH",
"442 266 OFFCURVE",
"452 234 OFFCURVE",
"452 207 CURVE SMOOTH",
"452 154 OFFCURVE",
"406 93 OFFCURVE",
"306 93 CURVE SMOOTH",
"230 93 OFFCURVE",
"172 131 OFFCURVE",
"142 169 CURVE",
"142 172 LINE SMOOTH",
"142 173 OFFCURVE",
"143 189 OFFCURVE",
"128 197 CURVE SMOOTH",
"115 204 LINE",
"53 96 LINE",
"60 88 LINE SMOOTH",
"121 21 OFFCURVE",
"209 -12 OFFCURVE",
"304 -12 CURVE SMOOTH",
"493 -12 OFFCURVE",
"566 110 OFFCURVE",
"566 206 CURVE SMOOTH",
"566 246 OFFCURVE",
"553 300 OFFCURVE",
"503 345 CURVE SMOOTH",
"434 407 OFFCURVE",
"328 427 OFFCURVE",
"264 463 CURVE SMOOTH",
"206 495 OFFCURVE",
"197 531 OFFCURVE",
"197 555 CURVE SMOOTH",
"197 600 OFFCURVE",
"237 644 OFFCURVE",
"315 644 CURVE SMOOTH",
"379 644 OFFCURVE",
"425 616 OFFCURVE",
"452 578 CURVE",
"452 578 OFFCURVE",
"453 576 OFFCURVE",
"453 574 CURVE SMOOTH",
"453 561 OFFCURVE",
"462 553 OFFCURVE",
"470 551 CURVE",
"480 547 LINE",
"546 637 LINE"
);
}
);
width = 613;
},
{
layerId = "99972075-B5E0-48DB-B31E-BE77C67EF09D";
name = "Bold Italic";
paths = (
{
closed = 1;
nodes = (
"652 646 LINE SMOOTH",
"610 709 OFFCURVE",
"537 743 OFFCURVE",
"452 743 CURVE SMOOTH",
"312 743 OFFCURVE",
"196 654 OFFCURVE",
"177 548 CURVE SMOOTH",
"169 503 OFFCURVE",
"178 444 OFFCURVE",
"236 398 CURVE SMOOTH",
"299 347 OFFCURVE",
"402 323 OFFCURVE",
"449 292 CURVE SMOOTH",
"488 266 OFFCURVE",
"494 234 OFFCURVE",
"489 207 CURVE SMOOTH",
"480 154 OFFCURVE",
"423 93 OFFCURVE",
"323 93 CURVE SMOOTH",
"247 93 OFFCURVE",
"195 131 OFFCURVE",
"171 169 CURVE",
"171 169 OFFCURVE",
"172 170 OFFCURVE",
"172 172 CURVE SMOOTH",
"172 173 OFFCURVE",
"177 189 OFFCURVE",
"163 197 CURVE SMOOTH",
"151 204 LINE",
"70 96 LINE",
"76 88 LINE SMOOTH",
"126 21 OFFCURVE",
"207 -12 OFFCURVE",
"302 -12 CURVE SMOOTH",
"491 -12 OFFCURVE",
"585 110 OFFCURVE",
"602 206 CURVE SMOOTH",
"609 246 OFFCURVE",
"606 300 OFFCURVE",
"564 345 CURVE SMOOTH",
"506 407 OFFCURVE",
"404 427 OFFCURVE",
"346 463 CURVE SMOOTH",
"294 495 OFFCURVE",
"290 531 OFFCURVE",
"294 555 CURVE SMOOTH",
"302 600 OFFCURVE",
"350 644 OFFCURVE",
"428 644 CURVE SMOOTH",
"492 644 OFFCURVE",
"534 616 OFFCURVE",
"554 578 CURVE",
"554 574 LINE",
"552 561 OFFCURVE",
"560 553 OFFCURVE",
"567 551 CURVE",
"577 547 LINE",
"658 637 LINE"
);
}
);
width = 613;
}
);
note = S;
unicode = 0053;
},
{
glyphname = T;
lastChange = "2016-10-27 22:44:17 +0000";
layers = (
{
layerId = "0945ADEB-DFBA-48BC-A89F-108FA066EBC6";
name = Regular;
paths = (
{
closed = 1;
nodes = (
"47 740 LINE",
"47 666 LINE",
"257 666 LINE",
"257 -1 LINE",
"341 -1 LINE",
"341 666 LINE",
"559 666 LINE",
"559 740 LINE"
);
}
);
width = 613;
},
{
layerId = "BAF923F9-5AD6-4831-8548-4755EA67E8F3";
name = Italic;
paths = (
{
closed = 1;
nodes = (
"178 740 LINE",
"164 666 LINE",
"374 666 LINE",
"257 -1 LINE",
"341 -1 LINE",
"458 666 LINE",
"676 666 LINE",
"690 740 LINE"
);
}
);
width = 613;
},
{
layerId = "C881373A-603B-4244-9A15-33852008E0AB";
name = Bold;
paths = (
{
closed = 1;
nodes = (
"32 635 LINE",
"242 635 LINE",
"242 -1 LINE",
"356 -1 LINE",
"356 635 LINE",
"574 635 LINE",
"574 740 LINE",
"32 740 LINE"
);
}
);
width = 613;
},
{
layerId = "99972075-B5E0-48DB-B31E-BE77C67EF09D";
name = "Bold Italic";
paths = (
{
closed = 1;
nodes = (
"144 635 LINE",
"354 635 LINE",
"241 -1 LINE",
"356 -1 LINE",
"468 635 LINE",
"686 635 LINE",
"705 740 LINE",
"162 740 LINE"
);
}
);
width = 613;
}
);
note = T;
unicode = 0054;
},
{
glyphname = U;
lastChange = "2016-10-27 22:44:17 +0000";
layers = (
{
layerId = "0945ADEB-DFBA-48BC-A89F-108FA066EBC6";
name = Regular;
paths = (
{
closed = 1;
nodes = (
"70 739 LINE",
"70 255 LINE SMOOTH",
"70 203 OFFCURVE",
"71 153 OFFCURVE",
"98 102 CURVE SMOOTH",
"139 26 OFFCURVE",
"222 -13 OFFCURVE",
"309 -13 CURVE SMOOTH",
"394 -13 OFFCURVE",
"477 24 OFFCURVE",
"519 102 CURVE SMOOTH",
"547 154 OFFCURVE",
"549 205 OFFCURVE",
"549 259 CURVE SMOOTH",
"549 739 LINE",
"470 739 LINE",
"470 257 LINE SMOOTH",
"470 219 OFFCURVE",
"469 182 OFFCURVE",
"451 144 CURVE SMOOTH",
"424 87 OFFCURVE",
"368 57 OFFCURVE",
"310 57 CURVE SMOOTH",
"251 57 OFFCURVE",
"196 88 OFFCURVE",
"169 145 CURVE SMOOTH",
"152 181 OFFCURVE",
"152 217 OFFCURVE",
"152 254 CURVE SMOOTH",
"152 701 LINE SMOOTH",
"152 706 OFFCURVE",
"152 711 OFFCURVE",
"156 717 CURVE",
"159 721 OFFCURVE",
"164 726 OFFCURVE",
"164 733 CURVE SMOOTH",
"164 735 OFFCURVE",
"164 737 OFFCURVE",
"163 739 CURVE"
);
}
);
width = 613;
},
{
layerId = "BAF923F9-5AD6-4831-8548-4755EA67E8F3";
name = Italic;
paths = (
{
closed = 1;
nodes = (
"200 739 LINE",
"115 255 LINE SMOOTH",
"106 203 OFFCURVE",
"98 153 OFFCURVE",
"116 102 CURVE SMOOTH",
"144 26 OFFCURVE",
"219 -13 OFFCURVE",
"306 -13 CURVE SMOOTH",
"391 -13 OFFCURVE",
"481 24 OFFCURVE",
"537 102 CURVE SMOOTH",
"574 154 OFFCURVE",
"585 205 OFFCURVE",
"595 259 CURVE SMOOTH",
"679 739 LINE",
"600 739 LINE",
"515 257 LINE SMOOTH",
"508 219 OFFCURVE",
"501 182 OFFCURVE",
"476 144 CURVE SMOOTH",
"439 87 OFFCURVE",
"378 57 OFFCURVE",
"320 57 CURVE SMOOTH",
"261 57 OFFCURVE",
"212 88 OFFCURVE",
"195 145 CURVE SMOOTH",
"184 181 OFFCURVE",
"190 217 OFFCURVE",
"196 254 CURVE SMOOTH",
"275 701 LINE SMOOTH",
"276 706 OFFCURVE",
"278 711 OFFCURVE",
"283 717 CURVE",
"287 721 OFFCURVE",
"292 726 OFFCURVE",
"293 733 CURVE",
"293 739 LINE"
);
}
);
width = 613;
},
{
layerId = "C881373A-603B-4244-9A15-33852008E0AB";
name = Bold;
paths = (
{
closed = 1;
nodes = (
"54 259 LINE SMOOTH",
"54 209 OFFCURVE",
"56 157 OFFCURVE",
"85 105 CURVE SMOOTH",
"129 26 OFFCURVE",
"217 -13 OFFCURVE",
"309 -13 CURVE SMOOTH",
"399 -13 OFFCURVE",
"488 25 OFFCURVE",
"533 105 CURVE SMOOTH",
"563 158 OFFCURVE",
"564 211 OFFCURVE",
"564 263 CURVE SMOOTH",
"564 739 LINE",
"455 739 LINE",
"455 264 LINE SMOOTH",
"455 228 OFFCURVE",
"453 195 OFFCURVE",
"437 162 CURVE SMOOTH",
"412 113 OFFCURVE",
"362 88 OFFCURVE",
"310 88 CURVE SMOOTH",
"257 88 OFFCURVE",
"207 114 OFFCURVE",
"183 163 CURVE SMOOTH",
"168 194 OFFCURVE",
"167 226 OFFCURVE",
"167 261 CURVE SMOOTH",
"167 688 LINE SMOOTH",
"167 692 OFFCURVE",
"167 691 OFFCURVE",
"169 694 CURVE",
"171 696 OFFCURVE",
"179 706 OFFCURVE",
"179 719 CURVE SMOOTH",
"179 723 OFFCURVE",
"179 726 OFFCURVE",
"177 730 CURVE",
"173 739 LINE",
"54 739 LINE"
);
}
);
width = 613;
},
{
layerId = "99972075-B5E0-48DB-B31E-BE77C67EF09D";
name = "Bold Italic";
paths = (
{
closed = 1;
nodes = (
"100 259 LINE SMOOTH",
"91 209 OFFCURVE",
"83 157 OFFCURVE",
"103 105 CURVE SMOOTH",
"133 26 OFFCURVE",
"214 -13 OFFCURVE",
"306 -13 CURVE SMOOTH",
"396 -13 OFFCURVE",
"492 25 OFFCURVE",
"551 105 CURVE SMOOTH",
"590 158 OFFCURVE",
"602 211 OFFCURVE",
"611 263 CURVE SMOOTH",
"695 739 LINE",
"585 739 LINE",
"501 264 LINE SMOOTH",
"495 228 OFFCURVE",
"488 195 OFFCURVE",
"466 162 CURVE SMOOTH",
"433 113 OFFCURVE",
"378 88 OFFCURVE",
"326 88 CURVE SMOOTH",
"273 88 OFFCURVE",
"227 114 OFFCURVE",
"212 163 CURVE SMOOTH",
"202 194 OFFCURVE",
"207 226 OFFCURVE",
"213 261 CURVE SMOOTH",
"288 688 LINE",
"289 692 OFFCURVE",
"288 691 OFFCURVE",
"291 694 CURVE SMOOTH",
"293 696 OFFCURVE",
"304 706 OFFCURVE",
"306 719 CURVE",
"307 723 OFFCURVE",
"307 726 OFFCURVE",
"306 730 CURVE",
"303 739 LINE",
"185 739 LINE"
);
}
);
width = 613;
}
);
note = U;
unicode = 0055;
},
{
glyphname = V;
lastChange = "2016-10-27 22:44:17 +0000";
layers = (
{
layerId = "0945ADEB-DFBA-48BC-A89F-108FA066EBC6";
name = Regular;
paths = (
{
closed = 1;
nodes = (
"40 740 LINE",
"292 -5 LINE",
"330 -5 LINE",
"578 739 LINE",
"496 739 LINE",
"316 172 LINE",
"127 740 LINE"
);
}
);
width = 613;
},
{
layerId = "BAF923F9-5AD6-4831-8548-4755EA67E8F3";
name = Italic;
paths = (
{
closed = 1;
nodes = (
"170 740 LINE",
"291 -5 LINE",
"329 -5 LINE",
"708 739 LINE",
"626 739 LINE",
"347 172 LINE",
"258 740 LINE"
);
}
);
width = 613;
},
{
layerId = "C881373A-603B-4244-9A15-33852008E0AB";
name = Bold;
paths = (
{
closed = 1;
nodes = (
"281 -5 LINE",
"341 -5 LINE",
"599 739 LINE",
"484 739 LINE",
"316 206 LINE",
"138 740 LINE",
"19 740 LINE"
);
}
);
width = 613;
},
{
layerId = "99972075-B5E0-48DB-B31E-BE77C67EF09D";
name = "Bold Italic";
paths = (
{
closed = 1;
nodes = (
"280 -5 LINE",
"340 -5 LINE",
"729 739 LINE",
"615 739 LINE",
"352 206 LINE",
"269 740 LINE",
"149 740 LINE"
);
}
);
width = 613;
}
);
note = V;
unicode = 0056;
},
{
glyphname = W;
lastChange = "2016-10-27 22:44:17 +0000";
layers = (
{
layerId = "0945ADEB-DFBA-48BC-A89F-108FA066EBC6";
name = Regular;
paths = (
{
closed = 1;
nodes = (
"31 739 LINE",
"150 -5 LINE",
"183 -5 LINE",
"312 483 LINE",
"439 -5 LINE",
"472 -5 LINE",
"589 739 LINE",
"519 739 LINE",
"452 238 LINE",
"332 685 LINE",
"306 685 LINE",
"187 240 LINE",
"108 739 LINE"
);
}
);
width = 613;
},
{
layerId = "BAF923F9-5AD6-4831-8548-4755EA67E8F3";
name = Italic;
paths = (
{
closed = 1;
nodes = (
"161 739 LINE",
"149 -5 LINE",
"182 -5 LINE",
"398 483 LINE",
"438 -5 LINE",
"471 -5 LINE",
"719 739 LINE",
"650 739 LINE",
"493 238 LINE",
"453 685 LINE",
"427 685 LINE",
"230 240 LINE",
"238 739 LINE"
);
}
);
width = 613;
},
{
layerId = "C881373A-603B-4244-9A15-33852008E0AB";
name = Bold;
paths = (
{
closed = 1;
nodes = (
"136 -5 LINE",
"195 -5 LINE",
"312 438 LINE",
"427 -5 LINE",
"485 -5 LINE",
"607 739 LINE",
"506 739 LINE",
"447 300 LINE",
"344 685 LINE",
"294 685 LINE",
"191 298 LINE",
"121 739 LINE",
"13 739 LINE"
);
}
);
width = 613;
},
{
layerId = "99972075-B5E0-48DB-B31E-BE77C67EF09D";
name = "Bold Italic";
paths = (
{
closed = 1;
nodes = (
"135 -5 LINE",
"194 -5 LINE",
"389 438 LINE",
"427 -5 LINE",
"484 -5 LINE",
"737 739 LINE",
"636 739 LINE",
"500 300 LINE",
"464 685 LINE",
"415 685 LINE",
"244 298 LINE",
"251 739 LINE",
"143 739 LINE"
);
}
);
width = 613;
}
);
note = W;
unicode = 0057;
},
{
glyphname = X;
lastChange = "2016-10-27 22:44:17 +0000";
layers = (
{
layerId = "0945ADEB-DFBA-48BC-A89F-108FA066EBC6";
name = Regular;
paths = (
{
closed = 1;
nodes = (
"460 740 LINE",
"307 459 LINE",
"152 740 LINE",
"62 740 LINE",
"261 377 LINE",
"58 0 LINE",
"150 0 LINE",
"308 293 LINE",
"472 0 LINE",
"565 0 LINE",
"356 379 LINE",
"543 740 LINE"
);
}
);
width = 613;
},
{
layerId = "BAF923F9-5AD6-4831-8548-4755EA67E8F3";
name = Italic;
paths = (
{
closed = 1;
nodes = (
"590 740 LINE",
"388 459 LINE",
"282 740 LINE",
"193 740 LINE",
"327 377 LINE",
"58 0 LINE",
"150 0 LINE",
"359 293 LINE",
"472 0 LINE",
"565 0 LINE",
"422 379 LINE",
"673 740 LINE"
);
}
);
width = 613;
},
{
layerId = "C881373A-603B-4244-9A15-33852008E0AB";
name = Bold;
paths = (
{
closed = 1;
nodes = (
"307 476 LINE",
"161 740 LINE",
"37 740 LINE",
"243 377 LINE",
"33 0 LINE",
"159 0 LINE",
"308 277 LINE",
"463 0 LINE",
"591 0 LINE",
"373 379 LINE",
"568 740 LINE",
"451 740 LINE"
);
}
);
width = 613;
},
{
layerId = "99972075-B5E0-48DB-B31E-BE77C67EF09D";
name = "Bold Italic";
paths = (
{
closed = 1;
nodes = (
"391 476 LINE",
"291 740 LINE",
"167 740 LINE",
"310 377 LINE",
"33 0 LINE",
"159 0 LINE",
"357 277 LINE",
"463 0 LINE",
"591 0 LINE",
"440 379 LINE",
"699 740 LINE",
"581 740 LINE"
);
}
);
width = 613;
}
);
note = X;
unicode = 0058;
},
{
glyphname = Y;
lastChange = "2016-10-27 22:44:17 +0000";
layers = (
{
layerId = "0945ADEB-DFBA-48BC-A89F-108FA066EBC6";
name = Regular;
paths = (
{
closed = 1;
nodes = (
"44 740 LINE",
"271 292 LINE",
"271 0 LINE",
"361 0 LINE",
"361 292 LINE",
"571 739 LINE",
"483 739 LINE",
"319 381 LINE",
"138 740 LINE"
);
}
);
width = 613;
},
{
layerId = "BAF923F9-5AD6-4831-8548-4755EA67E8F3";
name = Italic;
paths = (
{
closed = 1;
nodes = (
"175 740 LINE",
"323 292 LINE",
"271 0 LINE",
"361 0 LINE",
"413 292 LINE",
"702 739 LINE",
"614 739 LINE",
"387 381 LINE",
"269 740 LINE"
);
}
);
width = 613;
},
{
layerId = "C881373A-603B-4244-9A15-33852008E0AB";
name = Bold;
paths = (
{
closed = 1;
nodes = (
"256 291 LINE",
"256 0 LINE",
"377 0 LINE",
"377 292 LINE",
"596 739 LINE",
"473 739 LINE",
"319 401 LINE",
"148 740 LINE",
"19 740 LINE"
);
}
);
width = 613;
},
{
layerId = "99972075-B5E0-48DB-B31E-BE77C67EF09D";
name = "Bold Italic";
paths = (
{
closed = 1;
nodes = (
"307 291 LINE",
"256 0 LINE",
"377 0 LINE",
"428 292 LINE",
"726 739 LINE",
"604 739 LINE",
"390 401 LINE",
"278 740 LINE",
"150 740 LINE"
);
}
);
width = 613;
}
);
note = Y;
unicode = 0059;
},
{
glyphname = Z;
lastChange = "2016-10-27 22:44:17 +0000";
layers = (
{
layerId = "0945ADEB-DFBA-48BC-A89F-108FA066EBC6";
name = Regular;
paths = (
{
closed = 1;
nodes = (
"84 739 LINE",
"84 665 LINE",
"442 665 LINE",
"70 57 LINE",
"70 -1 LINE",
"559 -1 LINE",
"559 80 LINE",
"555 80 LINE SMOOTH",
"544 80 OFFCURVE",
"537 73 OFFCURVE",
"523 73 CURVE SMOOTH",
"174 73 LINE",
"540 681 LINE",
"541 739 LINE"
);
}
);
width = 613;
},
{
layerId = "BAF923F9-5AD6-4831-8548-4755EA67E8F3";
name = Italic;
paths = (
{
closed = 1;
nodes = (
"214 739 LINE",
"201 665 LINE",
"560 665 LINE",
"80 57 LINE",
"69 -1 LINE",
"559 -1 LINE",
"573 80 LINE",
"569 80 LINE SMOOTH",
"558 80 OFFCURVE",
"550 73 OFFCURVE",
"536 73 CURVE SMOOTH",
"187 73 LINE",
"660 681 LINE",
"671 739 LINE"
);
}
);
width = 613;
},
{
layerId = "C881373A-603B-4244-9A15-33852008E0AB";
name = Bold;
paths = (
{
closed = 1;
nodes = (
"69 634 LINE",
"415 634 LINE",
"54 73 LINE",
"54 -1 LINE",
"574 -1 LINE",
"574 111 LINE",
"555 111 LINE SMOOTH",
"536 111 OFFCURVE",
"531 103 OFFCURVE",
"523 103 CURVE SMOOTH",
"201 103 LINE",
"555 665 LINE",
"556 739 LINE",
"69 739 LINE"
);
}
);
width = 613;
},
{
layerId = "99972075-B5E0-48DB-B31E-BE77C67EF09D";
name = "Bold Italic";
paths = (
{
closed = 1;
nodes = (
"180 634 LINE",
"527 634 LINE",
"67 73 LINE",
"54 -1 LINE",
"574 -1 LINE",
"594 111 LINE",
"575 111 LINE SMOOTH",
"556 111 OFFCURVE",
"550 103 OFFCURVE",
"542 103 CURVE SMOOTH",
"219 103 LINE",
"672 665 LINE",
"687 739 LINE",
"199 739 LINE"
);
}
);
width = 613;
}
);
note = Z;
unicode = 005A;
},
{
glyphname = bracketleft;
lastChange = "2016-10-27 22:44:17 +0000";
layers = (
{
layerId = "0945ADEB-DFBA-48BC-A89F-108FA066EBC6";
name = Regular;
paths = (
{
closed = 1;
nodes = (
"166 795 LINE",
"166 -105 LINE",
"506 -105 LINE",
"506 -38 LINE",
"242 -38 LINE",
"242 724 LINE",
"505 724 LINE",
"505 795 LINE"
);
}
);
width = 613;
},
{
layerId = "BAF923F9-5AD6-4831-8548-4755EA67E8F3";
name = Italic;
paths = (
{
closed = 1;
nodes = (
"306 795 LINE",
"147 -105 LINE",
"487 -105 LINE",
"499 -38 LINE",
"235 -38 LINE",
"369 724 LINE",
"632 724 LINE",
"645 795 LINE"
);
}
);
width = 613;
},
{
layerId = "C881373A-603B-4244-9A15-33852008E0AB";
name = Bold;
paths = (
{
closed = 1;
nodes = (
"151 -105 LINE",
"521 -105 LINE",
"521 -7 LINE",
"257 -7 LINE",
"257 693 LINE",
"520 693 LINE",
"520 795 LINE",
"151 795 LINE"
);
}
);
width = 613;
},
{
layerId = "99972075-B5E0-48DB-B31E-BE77C67EF09D";
name = "Bold Italic";
paths = (
{
closed = 1;
nodes = (
"132 -105 LINE",
"503 -105 LINE",
"520 -7 LINE",
"256 -7 LINE",
"379 693 LINE",
"642 693 LINE",
"660 795 LINE",
"291 795 LINE"
);
}
);
width = 613;
}
);
note = bracketleft;
unicode = 005B;
},
{
glyphname = backslash;
lastChange = "2016-10-27 22:44:17 +0000";
layers = (
{
layerId = "0945ADEB-DFBA-48BC-A89F-108FA066EBC6";
name = Regular;
paths = (
{
closed = 1;
nodes = (
"528 -15 LINE",
"157 788 LINE",
"86 753 LINE",
"459 -50 LINE"
);
}
);
width = 613;
},
{
layerId = "BAF923F9-5AD6-4831-8548-4755EA67E8F3";
name = Italic;
paths = (
{
closed = 1;
nodes = (
"526 -15 LINE",
"296 788 LINE",
"219 753 LINE",
"450 -50 LINE"
);
}
);
width = 613;
},
{
layerId = "C881373A-603B-4244-9A15-33852008E0AB";
name = Bold;
paths = (
{
closed = 1;
nodes = (
"164 794 LINE",
"66 746 LINE",
"451 -56 LINE",
"549 -7 LINE"
);
}
);
width = 613;
},
{
layerId = "99972075-B5E0-48DB-B31E-BE77C67EF09D";
name = "Bold Italic";
paths = (
{
closed = 1;
nodes = (
"304 794 LINE",
"197 746 LINE",
"442 -56 LINE",
"547 -7 LINE"
);
}
);
width = 613;
}
);
note = backslash;
unicode = 005C;
},
{
glyphname = bracketright;
lastChange = "2016-10-27 22:44:17 +0000";
layers = (
{
layerId = "0945ADEB-DFBA-48BC-A89F-108FA066EBC6";
name = Regular;
paths = (
{
closed = 1;
nodes = (
"449 795 LINE",
"110 795 LINE",
"110 724 LINE",
"373 724 LINE",
"373 -38 LINE",
"109 -38 LINE",
"109 -105 LINE",
"449 -105 LINE"
);
}
);
width = 613;
},
{
layerId = "BAF923F9-5AD6-4831-8548-4755EA67E8F3";
name = Italic;
paths = (
{
closed = 1;
nodes = (
"589 795 LINE",
"250 795 LINE",
"237 724 LINE",
"500 724 LINE",
"366 -38 LINE",
"102 -38 LINE",
"90 -105 LINE",
"430 -105 LINE"
);
}
);
width = 613;
},
{
layerId = "C881373A-603B-4244-9A15-33852008E0AB";
name = Bold;
paths = (
{
closed = 1;
nodes = (
"94 795 LINE",
"94 693 LINE",
"357 693 LINE",
"357 -7 LINE",
"93 -7 LINE",
"93 -105 LINE",
"464 -105 LINE",
"464 795 LINE"
);
}
);
width = 613;
},
{
layerId = "99972075-B5E0-48DB-B31E-BE77C67EF09D";
name = "Bold Italic";
paths = (
{
closed = 1;
nodes = (
"234 795 LINE",
"216 693 LINE",
"480 693 LINE",
"356 -7 LINE",
"92 -7 LINE",
"75 -105 LINE",
"445 -105 LINE",
"604 795 LINE"
);
}
);
width = 613;
}
);
note = bracketright;
unicode = 005D;
},
{
glyphname = asciicircum;
lastChange = "2016-10-27 22:44:17 +0000";
layers = (
{
layerId = "0945ADEB-DFBA-48BC-A89F-108FA066EBC6";
name = Regular;
paths = (
{
closed = 1;
nodes = (
"121 435 LINE",
"180 407 LINE",
"310 614 LINE",
"425 407 LINE",
"488 436 LINE",
"328 739 LINE",
"302 739 LINE"
);
}
);
width = 613;
},
{
layerId = "BAF923F9-5AD6-4831-8548-4755EA67E8F3";
name = Italic;
paths = (
{
closed = 1;
nodes = (
"198 435 LINE",
"252 407 LINE",
"419 614 LINE",
"497 407 LINE",
"565 436 LINE",
"458 739 LINE",
"432 739 LINE"
);
}
);
width = 613;
},
{
layerId = "C881373A-603B-4244-9A15-33852008E0AB";
name = Bold;
paths = (
{
closed = 1;
nodes = (
"186 402 LINE",
"309 599 LINE",
"418 402 LINE",
"510 445 LINE",
"337 739 LINE",
"293 739 LINE",
"99 444 LINE"
);
}
);
width = 613;
},
{
layerId = "99972075-B5E0-48DB-B31E-BE77C67EF09D";
name = "Bold Italic";
paths = (
{
closed = 1;
nodes = (
"257 402 LINE",
"415 599 LINE",
"489 402 LINE",
"588 445 LINE",
"467 739 LINE",
"424 739 LINE",
"177 444 LINE"
);
}
);
width = 613;
}
);
note = asciicircum;
unicode = 005E;
},
{
glyphname = underscore;
lastChange = "2016-10-27 22:44:17 +0000";
layers = (
{
layerId = "0945ADEB-DFBA-48BC-A89F-108FA066EBC6";
name = Regular;
paths = (
{
closed = 1;
nodes = (
"51 -23 LINE",
"51 -95 LINE",
"563 -95 LINE",
"563 -23 LINE"
);
}
);
width = 613;
},
{
layerId = "BAF923F9-5AD6-4831-8548-4755EA67E8F3";
name = Italic;
paths = (
{
closed = 1;
nodes = (
"47 -23 LINE",
"34 -95 LINE",
"546 -95 LINE",
"559 -23 LINE"
);
}
);
width = 613;
},
{
layerId = "C881373A-603B-4244-9A15-33852008E0AB";
name = Bold;
paths = (
{
closed = 1;
nodes = (
"36 -126 LINE",
"579 -126 LINE",
"579 -23 LINE",
"36 -23 LINE"
);
}
);
width = 613;
},
{
layerId = "99972075-B5E0-48DB-B31E-BE77C67EF09D";
name = "Bold Italic";
paths = (
{
closed = 1;
nodes = (
"14 -126 LINE",
"556 -126 LINE",
"575 -23 LINE",
"32 -23 LINE"
);
}
);
width = 613;
}
);
note = underscore;
unicode = 005F;
},
{
glyphname = grave;
lastChange = "2016-10-27 22:44:17 +0000";
layers = (
{
layerId = "0945ADEB-DFBA-48BC-A89F-108FA066EBC6";
name = Regular;
paths = (
{
closed = 1;
nodes = (
"300 362 LINE SMOOTH",
"331 308 OFFCURVE",
"339 335 OFFCURVE",
"338 378 CURVE SMOOTH",
"337 420 OFFCURVE",
"325 503 OFFCURVE",
"298 550 CURVE SMOOTH",
"264 610 LINE SMOOTH",
"251 633 OFFCURVE",
"243 631 OFFCURVE",
"231 663 CURVE",
"202 710 OFFCURVE",
"201 718 OFFCURVE",
"172 762 CURVE",
"174 577 LINE",
"235 474 LINE"
);
}
);
width = 613;
},
{
layerId = "BAF923F9-5AD6-4831-8548-4755EA67E8F3";
name = Italic;
paths = (
{
closed = 1;
nodes = (
"300 362 LINE SMOOTH",
"331 308 OFFCURVE",
"339 335 OFFCURVE",
"338 378 CURVE SMOOTH",
"337 420 OFFCURVE",
"325 503 OFFCURVE",
"298 550 CURVE SMOOTH",
"264 610 LINE SMOOTH",
"251 633 OFFCURVE",
"243 631 OFFCURVE",
"231 663 CURVE",
"202 710 OFFCURVE",
"201 718 OFFCURVE",
"172 762 CURVE",
"174 577 LINE",
"235 474 LINE"
);
}
);
width = 613;
},
{
layerId = "C881373A-603B-4244-9A15-33852008E0AB";
name = Bold;
paths = (
{
closed = 1;
nodes = (
"287 361 LINE",
"298 345 OFFCURVE",
"315 321 OFFCURVE",
"338 333 CURVE SMOOTH",
"356 342 OFFCURVE",
"353 362 OFFCURVE",
"353 378 CURVE",
"352 424 OFFCURVE",
"340 513 OFFCURVE",
"311 566 CURVE",
"277 617 LINE",
"261 645 OFFCURVE",
"256 640 OFFCURVE",
"245 669 CURVE",
"245 670 LINE",
"244 671 LINE",
"215 713 OFFCURVE",
"215 721 OFFCURVE",
"185 762 CURVE",
"156 805 LINE",
"159 580 LINE",
"222 474 LINE"
);
}
);
width = 613;
},
{
layerId = "99972075-B5E0-48DB-B31E-BE77C67EF09D";
name = "Bold Italic";
paths = (
{
closed = 1;
nodes = (
"287 361 LINE",
"298 345 OFFCURVE",
"315 321 OFFCURVE",
"338 333 CURVE SMOOTH",
"356 342 OFFCURVE",
"353 362 OFFCURVE",
"353 378 CURVE",
"352 424 OFFCURVE",
"340 513 OFFCURVE",
"311 566 CURVE",
"277 617 LINE",
"261 645 OFFCURVE",
"256 640 OFFCURVE",
"245 669 CURVE",
"245 670 LINE",
"244 671 LINE",
"215 713 OFFCURVE",
"215 721 OFFCURVE",
"185 762 CURVE",
"156 805 LINE",
"159 580 LINE",
"222 474 LINE"
);
}
);
width = 613;
}
);
note = grave;
unicode = 0060;
},
{
glyphname = a;
lastChange = "2016-10-27 22:44:17 +0000";
layers = (
{
layerId = "0945ADEB-DFBA-48BC-A89F-108FA066EBC6";
name = Regular;
paths = (
{
closed = 1;
nodes = (
"160 424 LINE",
"204 470 OFFCURVE",
"265 484 OFFCURVE",
"315 484 CURVE SMOOTH",
"380 484 OFFCURVE",
"412 458 OFFCURVE",
"427 432 CURVE SMOOTH",
"444 402 OFFCURVE",
"444 368 OFFCURVE",
"444 339 CURVE SMOOTH",
"444 319 LINE",
"427 319 LINE",
"409 319 LINE SMOOTH",
"334 319 OFFCURVE",
"256 319 OFFCURVE",
"193 295 CURVE SMOOTH",
"108 263 OFFCURVE",
"69 200 OFFCURVE",
"69 140 CURVE SMOOTH",
"69 60 OFFCURVE",
"137 -13 OFFCURVE",
"251 -13 CURVE SMOOTH",
"318 -13 OFFCURVE",
"386 11 OFFCURVE",
"445 59 CURVE",
"445 0 LINE",
"526 0 LINE",
"526 336 LINE SMOOTH",
"526 380 OFFCURVE",
"525 422 OFFCURVE",
"500 464 CURVE SMOOTH",
"464 523 OFFCURVE",
"395 554 OFFCURVE",
"311 554 CURVE SMOOTH",
"238 554 OFFCURVE",
"168 530 OFFCURVE",
"118 478 CURVE"
);
},
{
closed = 1;
nodes = (
"447 254 LINE",
"447 218 LINE SMOOTH",
"447 190 OFFCURVE",
"448 155 OFFCURVE",
"411 116 CURVE SMOOTH",
"392 96 OFFCURVE",
"339 52 OFFCURVE",
"268 52 CURVE SMOOTH",
"196 52 OFFCURVE",
"155 97 OFFCURVE",
"155 145 CURVE SMOOTH",
"155 185 OFFCURVE",
"182 230 OFFCURVE",
"250 246 CURVE SMOOTH",
"282 253 OFFCURVE",
"323 254 OFFCURVE",
"364 254 CURVE SMOOTH",
"428 254 LINE"
);
}
);
width = 613;
},
{
layerId = "BAF923F9-5AD6-4831-8548-4755EA67E8F3";
name = Italic;
paths = (
{
closed = 1;
nodes = (
"69 30 OFFCURVE",
"122 -12 OFFCURVE",
"208 -12 CURVE SMOOTH",
"289 -12 OFFCURVE",
"401 0 OFFCURVE",
"480 196 CURVE",
"459 70 OFFCURVE",
"473 -5 OFFCURVE",
"473 -5 CURVE",
"580 0 LINE",
"580 0 OFFCURVE",
"542 61 OFFCURVE",
"560 161 CURVE SMOOTH",
"582 288 OFFCURVE",
"585 307 OFFCURVE",
"607 434 CURVE SMOOTH",
"612 464 OFFCURVE",
"625 492 OFFCURVE",
"630 499 CURVE",
"565 516 OFFCURVE",
"616 543 OFFCURVE",
"463 543 CURVE SMOOTH",
"360 543 OFFCURVE",
"135 403 OFFCURVE",
"90 149 CURVE SMOOTH"
);
},
{
closed = 1;
nodes = (
"208 345 OFFCURVE",
"387 479 OFFCURVE",
"467 479 CURVE SMOOTH",
"522 479 OFFCURVE",
"532 458 OFFCURVE",
"532 458 CURVE",
"524 415 LINE SMOOTH",
"510 339 OFFCURVE",
"490 282 OFFCURVE",
"477 255 CURVE SMOOTH",
"426 151 OFFCURVE",
"326 63 OFFCURVE",
"226 63 CURVE SMOOTH",
"199 63 OFFCURVE",
"164 98 OFFCURVE",
"175 161 CURVE SMOOTH"
);
}
);
width = 613;
},
{
layerId = "C881373A-603B-4244-9A15-33852008E0AB";
name = Bold;
paths = (
{
closed = 1;
nodes = (
"98 464 LINE",
"159 385 LINE",
"171 398 LINE SMOOTH",
"211 440 OFFCURVE",
"267 454 OFFCURVE",
"315 454 CURVE SMOOTH",
"375 454 OFFCURVE",
"401 433 OFFCURVE",
"414 414 CURVE SMOOTH",
"429 392 OFFCURVE",
"429 364 OFFCURVE",
"429 338 CURVE SMOOTH",
"429 335 LINE",
"427 335 LINE",
"409 335 LINE SMOOTH",
"334 335 OFFCURVE",
"255 334 OFFCURVE",
"187 310 CURVE SMOOTH",
"97 278 OFFCURVE",
"53 214 OFFCURVE",
"53 149 CURVE SMOOTH",
"53 63 OFFCURVE",
"130 -13 OFFCURVE",
"251 -13 CURVE SMOOTH",
"312 -13 OFFCURVE",
"373 5 OFFCURVE",
"430 44 CURVE",
"430 0 LINE",
"542 0 LINE",
"542 333 LINE SMOOTH",
"542 375 OFFCURVE",
"540 417 OFFCURVE",
"513 461 CURVE SMOOTH",
"474 523 OFFCURVE",
"399 554 OFFCURVE",
"311 554 CURVE SMOOTH",
"235 554 OFFCURVE",
"161 529 OFFCURVE",
"107 473 CURVE SMOOTH"
);
},
{
closed = 1;
nodes = (
"432 220 LINE SMOOTH",
"432 195 OFFCURVE",
"432 168 OFFCURVE",
"399 136 CURVE SMOOTH",
"381 119 OFFCURVE",
"332 83 OFFCURVE",
"268 83 CURVE SMOOTH",
"203 83 OFFCURVE",
"170 119 OFFCURVE",
"170 154 CURVE SMOOTH",
"170 183 OFFCURVE",
"191 218 OFFCURVE",
"253 232 CURVE SMOOTH",
"282 238 OFFCURVE",
"324 239 OFFCURVE",
"364 239 CURVE SMOOTH",
"428 239 LINE",
"432 239 LINE"
);
}
);
width = 613;
},
{
layerId = "99972075-B5E0-48DB-B31E-BE77C67EF09D";
name = "Bold Italic";
paths = (
{
closed = 1;
nodes = (
"588 30 LINE",
"579 48 OFFCURVE",
"562 95 OFFCURVE",
"575 164 CURVE SMOOTH",
"597 285 OFFCURVE",
"600 303 OFFCURVE",
"622 423 CURVE SMOOTH",
"627 449 OFFCURVE",
"639 473 OFFCURVE",
"642 477 CURVE",
"657 495 LINE",
"634 501 LINE SMOOTH",
"584 514 OFFCURVE",
"616 543 OFFCURVE",
"463 543 CURVE SMOOTH",
"350 543 OFFCURVE",
"120 404 OFFCURVE",
"74 157 CURVE SMOOTH",
"55 56 OFFCURVE",
"95 3 OFFCURVE",
"169 -9 CURVE SMOOTH",
"181 -11 OFFCURVE",
"195 -12 OFFCURVE",
"208 -12 CURVE SMOOTH",
"279 -12 OFFCURVE",
"376 -5 OFFCURVE",
"454 125 CURVE",
"449 51 OFFCURVE",
"458 8 OFFCURVE",
"458 7 CURVE",
"460 -6 LINE",
"580 0 LINE"
);
},
{
closed = 1;
nodes = (
"497 449 OFFCURVE",
"510 443 OFFCURVE",
"515 439 CURVE",
"509 406 LINE SMOOTH",
"495 337 OFFCURVE",
"475 286 OFFCURVE",
"463 263 CURVE SMOOTH",
"413 170 OFFCURVE",
"318 94 OFFCURVE",
"226 94 CURVE SMOOTH",
"214 94 OFFCURVE",
"188 110 OFFCURVE",
"188 149 CURVE SMOOTH",
"188 155 OFFCURVE",
"189 160 OFFCURVE",
"190 167 CURVE",
"221 331 OFFCURVE",
"398 449 OFFCURVE",
"467 449 CURVE SMOOTH"
);
}
);
width = 613;
}
);
note = a;
unicode = 0061;
},
{
glyphname = b;
lastChange = "2016-10-27 22:44:17 +0000";
layers = (
{
layerId = "0945ADEB-DFBA-48BC-A89F-108FA066EBC6";
name = Regular;
paths = (
{
closed = 1;
nodes = (
"81 790 LINE",
"81 0 LINE",
"136 0 LINE",
"166 72 LINE",
"202 19 OFFCURVE",
"261 -13 OFFCURVE",
"327 -13 CURVE SMOOTH",
"438 -13 OFFCURVE",
"553 81 OFFCURVE",
"553 278 CURVE SMOOTH",
"553 467 OFFCURVE",
"441 555 OFFCURVE",
"335 555 CURVE SMOOTH",
"266 555 OFFCURVE",
"203 518 OFFCURVE",
"168 459 CURVE",
"168 763 LINE SMOOTH",
"168 769 OFFCURVE",
"169 772 OFFCURVE",
"175 776 CURVE",
"177 778 OFFCURVE",
"183 783 OFFCURVE",
"181 790 CURVE"
);
},
{
closed = 1;
nodes = (
"356 481 OFFCURVE",
"464 451 OFFCURVE",
"464 260 CURVE SMOOTH",
"464 94 OFFCURVE",
"357 63 OFFCURVE",
"304 63 CURVE SMOOTH",
"267 63 OFFCURVE",
"185 78 OFFCURVE",
"171 181 CURVE SMOOTH",
"168 210 OFFCURVE",
"168 242 OFFCURVE",
"168 289 CURVE SMOOTH",
"168 338 OFFCURVE",
"170 372 OFFCURVE",
"182 402 CURVE SMOOTH",
"202 451 OFFCURVE",
"252 481 OFFCURVE",
"305 481 CURVE SMOOTH"
);
}
);
width = 613;
},
{
layerId = "BAF923F9-5AD6-4831-8548-4755EA67E8F3";
name = Italic;
paths = (
{
closed = 1;
nodes = (
"148 21 OFFCURVE",
"177 0 OFFCURVE",
"314 0 CURVE SMOOTH",
"451 0 OFFCURVE",
"573 114 OFFCURVE",
"602 278 CURVE SMOOTH",
"635 467 OFFCURVE",
"539 555 OFFCURVE",
"433 555 CURVE SMOOTH",
"364 555 OFFCURVE",
"294 518 OFFCURVE",
"249 459 CURVE",
"302 763 LINE SMOOTH",
"303 769 OFFCURVE",
"305 772 OFFCURVE",
"312 776 CURVE",
"314 778 OFFCURVE",
"321 783 OFFCURVE",
"320 790 CURVE",
"220 790 LINE SMOOTH",
"220 790 OFFCURVE",
"139 329 OFFCURVE",
"87 35 CURVE"
);
},
{
closed = 1;
nodes = (
"219 289 LINE SMOOTH",
"228 338 OFFCURVE",
"235 372 OFFCURVE",
"253 402 CURVE SMOOTH",
"282 451 OFFCURVE",
"337 481 OFFCURVE",
"390 481 CURVE SMOOTH",
"441 481 OFFCURVE",
"544 451 OFFCURVE",
"510 260 CURVE SMOOTH",
"486 126 OFFCURVE",
"370 63 OFFCURVE",
"280 63 CURVE SMOOTH",
"190 63 OFFCURVE",
"185 98 OFFCURVE",
"185 98 CURVE"
);
}
);
width = 613;
},
{
layerId = "C881373A-603B-4244-9A15-33852008E0AB";
name = Bold;
paths = (
{
closed = 1;
nodes = (
"449 117 OFFCURVE",
"351 94 OFFCURVE",
"304 94 CURVE SMOOTH",
"270 94 OFFCURVE",
"199 105 OFFCURVE",
"186 190 CURVE SMOOTH",
"183 215 OFFCURVE",
"183 244 OFFCURVE",
"183 287 CURVE SMOOTH",
"183 332 OFFCURVE",
"185 363 OFFCURVE",
"196 387 CURVE SMOOTH",
"214 426 OFFCURVE",
"257 451 OFFCURVE",
"305 451 CURVE SMOOTH",
"349 451 OFFCURVE",
"449 430 OFFCURVE",
"449 261 CURVE SMOOTH"
);
},
{
closed = 1;
nodes = (
"66 0 LINE",
"146 0 LINE",
"170 57 LINE",
"209 13 OFFCURVE",
"266 -13 OFFCURVE",
"327 -13 CURVE SMOOTH",
"447 -13 OFFCURVE",
"568 84 OFFCURVE",
"568 277 CURVE SMOOTH",
"568 463 OFFCURVE",
"451 555 OFFCURVE",
"335 555 CURVE SMOOTH",
"277 555 OFFCURVE",
"222 531 OFFCURVE",
"183 489 CURVE",
"183 748 LINE",
"184 748 LINE",
"185 749 LINE",
"186 750 LINE",
"186 750 OFFCURVE",
"201 759 OFFCURVE",
"196 778 CURVE SMOOTH",
"193 790 LINE",
"66 790 LINE"
);
}
);
width = 613;
},
{
layerId = "99972075-B5E0-48DB-B31E-BE77C67EF09D";
name = "Bold Italic";
paths = (
{
closed = 1;
nodes = (
"234 285 LINE SMOOTH",
"243 330 OFFCURVE",
"250 360 OFFCURVE",
"266 385 CURVE SMOOTH",
"292 426 OFFCURVE",
"342 451 OFFCURVE",
"390 451 CURVE SMOOTH",
"429 451 OFFCURVE",
"501 436 OFFCURVE",
"501 326 CURVE SMOOTH",
"501 308 OFFCURVE",
"500 288 OFFCURVE",
"495 264 CURVE SMOOTH",
"472 148 OFFCURVE",
"364 94 OFFCURVE",
"280 94 CURVE SMOOTH",
"218 94 OFFCURVE",
"204 110 OFFCURVE",
"201 114 CURVE"
);
},
{
closed = 1;
nodes = (
"84 34 LINE SMOOTH",
"142 22 OFFCURVE",
"176 0 OFFCURVE",
"314 0 CURVE SMOOTH",
"460 0 OFFCURVE",
"587 114 OFFCURVE",
"617 275 CURVE SMOOTH",
"648 441 OFFCURVE",
"570 535 OFFCURVE",
"467 552 CURVE SMOOTH",
"456 554 OFFCURVE",
"445 555 OFFCURVE",
"433 555 CURVE SMOOTH",
"376 555 OFFCURVE",
"318 532 OFFCURVE",
"273 492 CURVE",
"318 745 LINE",
"318 746 LINE",
"320 748 LINE",
"321 748 LINE",
"322 749 LINE",
"322 749 OFFCURVE",
"326 751 OFFCURVE",
"330 756 CURVE",
"334 760 OFFCURVE",
"337 767 OFFCURVE",
"336 776 CURVE SMOOTH",
"334 790 LINE",
"207 790 LINE",
"69 37 LINE"
);
}
);
width = 613;
}
);
note = b;
unicode = 0062;
},
{
glyphname = c;
lastChange = "2016-10-27 22:44:17 +0000";
layers = (
{
layerId = "0945ADEB-DFBA-48BC-A89F-108FA066EBC6";
name = Regular;
paths = (
{
closed = 1;
nodes = (
"552 453 LINE",
"509 516 OFFCURVE",
"436 553 OFFCURVE",
"349 553 CURVE SMOOTH",
"190 553 OFFCURVE",
"77 434 OFFCURVE",
"77 271 CURVE SMOOTH",
"77 108 OFFCURVE",
"191 -13 OFFCURVE",
"344 -13 CURVE SMOOTH",
"420 -13 OFFCURVE",
"492 17 OFFCURVE",
"544 73 CURVE",
"495 130 LINE",
"458 88 OFFCURVE",
"405 63 OFFCURVE",
"351 63 CURVE SMOOTH",
"245 63 OFFCURVE",
"165 153 OFFCURVE",
"165 280 CURVE SMOOTH",
"165 404 OFFCURVE",
"244 480 OFFCURVE",
"344 480 CURVE SMOOTH",
"437 480 OFFCURVE",
"481 415 OFFCURVE",
"484 409 CURVE",
"489 400 OFFCURVE",
"483 389 OFFCURVE",
"492 382 CURVE"
);
}
);
width = 613;
},
{
layerId = "BAF923F9-5AD6-4831-8548-4755EA67E8F3";
name = Italic;
paths = (
{
closed = 1;
nodes = (
"96 108 OFFCURVE",
"188 -13 OFFCURVE",
"341 -13 CURVE SMOOTH",
"417 -13 OFFCURVE",
"525 17 OFFCURVE",
"587 73 CURVE",
"548 130 LINE",
"504 88 OFFCURVE",
"416 64 OFFCURVE",
"362 64 CURVE SMOOTH",
"256 64 OFFCURVE",
"192 153 OFFCURVE",
"214 280 CURVE SMOOTH",
"236 404 OFFCURVE",
"329 480 OFFCURVE",
"429 480 CURVE SMOOTH",
"522 480 OFFCURVE",
"554 415 OFFCURVE",
"556 409 CURVE SMOOTH",
"559 400 OFFCURVE",
"551 389 OFFCURVE",
"559 382 CURVE",
"632 453 LINE",
"600 516 OFFCURVE",
"534 553 OFFCURVE",
"447 553 CURVE SMOOTH",
"288 553 OFFCURVE",
"154 434 OFFCURVE",
"125 271 CURVE SMOOTH"
);
}
);
width = 613;
},
{
layerId = "C881373A-603B-4244-9A15-33852008E0AB";
name = Bold;
paths = (
{
closed = 1;
nodes = (
"565 446 LINE",
"519 513 OFFCURVE",
"441 553 OFFCURVE",
"349 553 CURVE SMOOTH",
"181 553 OFFCURVE",
"61 433 OFFCURVE",
"61 271 CURVE SMOOTH",
"61 109 OFFCURVE",
"182 -13 OFFCURVE",
"344 -13 CURVE SMOOTH",
"424 -13 OFFCURVE",
"500 19 OFFCURVE",
"555 78 CURVE SMOOTH",
"564 88 LINE",
"495 169 LINE",
"483 156 LINE SMOOTH",
"449 118 OFFCURVE",
"401 95 OFFCURVE",
"351 95 CURVE SMOOTH",
"255 95 OFFCURVE",
"180 168 OFFCURVE",
"180 279 CURVE SMOOTH",
"180 386 OFFCURVE",
"253 450 OFFCURVE",
"344 450 CURVE SMOOTH",
"425 450 OFFCURVE",
"465 395 OFFCURVE",
"470 387 CURVE",
"470 387 OFFCURVE",
"463 368 OFFCURVE",
"482 354 CURVE",
"494 346 LINE",
"571 436 LINE"
);
}
);
width = 613;
},
{
layerId = "99972075-B5E0-48DB-B31E-BE77C67EF09D";
name = "Bold Italic";
paths = (
{
closed = 1;
nodes = (
"309 -12 OFFCURVE",
"324 -13 OFFCURVE",
"341 -13 CURVE SMOOTH",
"420 -13 OFFCURVE",
"532 18 OFFCURVE",
"598 77 CURVE SMOOTH",
"608 86 LINE",
"551 169 LINE",
"538 157 LINE SMOOTH",
"499 120 OFFCURVE",
"413 95 OFFCURVE",
"362 95 CURVE SMOOTH",
"279 95 OFFCURVE",
"225 149 OFFCURVE",
"225 235 CURVE SMOOTH",
"225 248 OFFCURVE",
"226 262 OFFCURVE",
"229 277 CURVE SMOOTH",
"250 385 OFFCURVE",
"338 450 OFFCURVE",
"429 450 CURVE SMOOTH",
"508 450 OFFCURVE",
"538 399 OFFCURVE",
"542 389 CURVE",
"542 389 OFFCURVE",
"532 370 OFFCURVE",
"549 355 CURVE SMOOTH",
"559 346 LINE",
"651 434 LINE",
"645 444 LINE",
"610 513 OFFCURVE",
"539 553 OFFCURVE",
"447 553 CURVE SMOOTH",
"280 553 OFFCURVE",
"140 435 OFFCURVE",
"110 274 CURVE SMOOTH",
"83 129 OFFCURVE",
"158 13 OFFCURVE",
"293 -9 CURVE SMOOTH"
);
}
);
width = 613;
}
);
note = c;
unicode = 0063;
},
{
glyphname = d;
lastChange = "2016-10-27 22:44:17 +0000";
layers = (
{
layerId = "0945ADEB-DFBA-48BC-A89F-108FA066EBC6";
name = Regular;
paths = (
{
closed = 1;
nodes = (
"451 463 LINE",
"425 519 OFFCURVE",
"367 556 OFFCURVE",
"292 556 CURVE SMOOTH",
"189 556 OFFCURVE",
"63 483 OFFCURVE",
"63 276 CURVE SMOOTH",
"63 76 OFFCURVE",
"174 -12 OFFCURVE",
"279 -12 CURVE SMOOTH",
"348 -12 OFFCURVE",
"412 26 OFFCURVE",
"446 87 CURVE",
"446 40 LINE SMOOTH",
"446 27 OFFCURVE",
"448 13 OFFCURVE",
"452 0 CURVE",
"537 0 LINE",
"533 17 OFFCURVE",
"531 34 OFFCURVE",
"531 50 CURVE",
"530 756 LINE",
"530 762 OFFCURVE",
"531 765 OFFCURVE",
"535 772 CURVE",
"537 776 OFFCURVE",
"542 782 OFFCURVE",
"542 790 CURVE",
"451 790 LINE"
);
},
{
closed = 1;
nodes = (
"344 486 OFFCURVE",
"413 461 OFFCURVE",
"435 381 CURVE SMOOTH",
"442 356 OFFCURVE",
"444 326 OFFCURVE",
"444 265 CURVE SMOOTH",
"444 224 OFFCURVE",
"441 193 OFFCURVE",
"432 166 CURVE SMOOTH",
"410 101 OFFCURVE",
"356 63 OFFCURVE",
"299 63 CURVE SMOOTH",
"238 63 OFFCURVE",
"146 111 OFFCURVE",
"146 290 CURVE SMOOTH",
"146 444 OFFCURVE",
"234 486 OFFCURVE",
"296 486 CURVE SMOOTH"
);
}
);
width = 613;
},
{
layerId = "BAF923F9-5AD6-4831-8548-4755EA67E8F3";
name = Italic;
paths = (
{
closed = 1;
nodes = (
"77 76 OFFCURVE",
"172 -12 OFFCURVE",
"277 -12 CURVE SMOOTH",
"345 -12 OFFCURVE",
"427 39 OFFCURVE",
"472 98 CURVE",
"470 38 OFFCURVE",
"473 -5 OFFCURVE",
"473 -5 CURVE",
"580 0 LINE",
"580 0 OFFCURVE",
"542 61 OFFCURVE",
"560 161 CURVE SMOOTH",
"582 288 OFFCURVE",
"642 629 OFFCURVE",
"664 756 CURVE SMOOTH",
"665 762 OFFCURVE",
"666 765 OFFCURVE",
"671 772 CURVE SMOOTH",
"674 776 OFFCURVE",
"680 782 OFFCURVE",
"681 790 CURVE",
"590 790 LINE",
"542 521 LINE",
"542 521 OFFCURVE",
"498 543 OFFCURVE",
"445 543 CURVE SMOOTH",
"392 543 OFFCURVE",
"151 500 OFFCURVE",
"112 276 CURVE SMOOTH"
);
},
{
closed = 1;
nodes = (
"224 444 OFFCURVE",
"376 479 OFFCURVE",
"433 479 CURVE SMOOTH",
"490 479 OFFCURVE",
"532 458 OFFCURVE",
"532 458 CURVE",
"497 265 LINE SMOOTH",
"490 224 OFFCURVE",
"476 193 OFFCURVE",
"462 166 CURVE SMOOTH",
"430 101 OFFCURVE",
"367 63 OFFCURVE",
"310 63 CURVE SMOOTH",
"249 63 OFFCURVE",
"166 111 OFFCURVE",
"197 290 CURVE SMOOTH"
);
}
);
width = 613;
},
{
layerId = "C881373A-603B-4244-9A15-33852008E0AB";
name = Bold;
paths = (
{
closed = 1;
nodes = (
"181 556 OFFCURVE",
"48 479 OFFCURVE",
"48 275 CURVE SMOOTH",
"48 79 OFFCURVE",
"164 -12 OFFCURVE",
"279 -12 CURVE SMOOTH",
"337 -12 OFFCURVE",
"392 13 OFFCURVE",
"431 55 CURVE",
"431 42 OFFCURVE",
"432 27 OFFCURVE",
"437 11 CURVE",
"440 0 LINE",
"556 0 LINE",
"551 18 LINE SMOOTH",
"547 32 OFFCURVE",
"547 48 OFFCURVE",
"547 63 CURVE",
"546 740 LINE",
"546 745 OFFCURVE",
"545 743 OFFCURVE",
"548 748 CURVE",
"550 751 OFFCURVE",
"558 761 OFFCURVE",
"557 775 CURVE SMOOTH",
"556 790 LINE",
"435 790 LINE",
"435 497 LINE",
"401 533 OFFCURVE",
"351 556 OFFCURVE",
"292 556 CURVE SMOOTH"
);
},
{
closed = 1;
nodes = (
"426 348 OFFCURVE",
"428 322 OFFCURVE",
"428 266 CURVE SMOOTH",
"428 229 OFFCURVE",
"426 202 OFFCURVE",
"418 179 CURVE SMOOTH",
"399 125 OFFCURVE",
"349 94 OFFCURVE",
"299 94 CURVE SMOOTH",
"247 94 OFFCURVE",
"162 129 OFFCURVE",
"162 288 CURVE SMOOTH",
"162 423 OFFCURVE",
"242 456 OFFCURVE",
"296 456 CURVE SMOOTH",
"339 456 OFFCURVE",
"401 435 OFFCURVE",
"420 369 CURVE SMOOTH"
);
}
);
width = 613;
},
{
layerId = "99972075-B5E0-48DB-B31E-BE77C67EF09D";
name = "Bold Italic";
paths = (
{
closed = 1;
nodes = (
"463 452 OFFCURVE",
"491 442 OFFCURVE",
"506 436 CURVE",
"481 283 LINE SMOOTH",
"474 243 OFFCURVE",
"464 214 OFFCURVE",
"451 188 CURVE SMOOTH",
"421 128 OFFCURVE",
"360 94 OFFCURVE",
"310 94 CURVE SMOOTH",
"266 94 OFFCURVE",
"206 121 OFFCURVE",
"206 234 CURVE SMOOTH",
"206 254 OFFCURVE",
"208 277 OFFCURVE",
"213 303 CURVE SMOOTH",
"232 392 OFFCURVE",
"357 451 OFFCURVE",
"427 452 CURVE SMOOTH"
);
},
{
closed = 1;
nodes = (
"588 30 LINE",
"579 48 OFFCURVE",
"562 95 OFFCURVE",
"575 168 CURVE SMOOTH",
"598 293 OFFCURVE",
"657 616 OFFCURVE",
"679 738 CURVE SMOOTH",
"680 743 OFFCURVE",
"679 742 OFFCURVE",
"683 747 CURVE",
"685 750 OFFCURVE",
"694 758 OFFCURVE",
"696 772 CURVE SMOOTH",
"698 790 LINE",
"577 790 LINE",
"531 527 LINE",
"513 533 OFFCURVE",
"481 543 OFFCURVE",
"445 543 CURVE SMOOTH",
"389 543 OFFCURVE",
"139 501 OFFCURVE",
"97 278 CURVE SMOOTH",
"64 102 OFFCURVE",
"141 8 OFFCURVE",
"243 -9 CURVE SMOOTH",
"254 -11 OFFCURVE",
"266 -12 OFFCURVE",
"277 -12 CURVE SMOOTH",
"339 -12 OFFCURVE",
"407 25 OFFCURVE",
"456 73 CURVE",
"456 37 OFFCURVE",
"457 10 OFFCURVE",
"457 9 CURVE",
"458 -6 LINE",
"580 0 LINE"
);
}
);
width = 613;
}
);
note = d;
unicode = 0064;
},
{
glyphname = e;
lastChange = "2016-10-27 22:44:17 +0000";
layers = (
{
layerId = "0945ADEB-DFBA-48BC-A89F-108FA066EBC6";
name = Regular;
paths = (
{
closed = 1;
nodes = (
"187 555 OFFCURVE",
"68 463 OFFCURVE",
"68 265 CURVE SMOOTH",
"68 84 OFFCURVE",
"182 -12 OFFCURVE",
"328 -12 CURVE SMOOTH",
"406 -12 OFFCURVE",
"476 17 OFFCURVE",
"522 72 CURVE",
"475 118 LINE",
"439 78 OFFCURVE",
"389 56 OFFCURVE",
"335 56 CURVE SMOOTH",
"262 56 OFFCURVE",
"158 96 OFFCURVE",
"151 259 CURVE",
"536 259 LINE",
"537 272 OFFCURVE",
"537 285 OFFCURVE",
"537 298 CURVE SMOOTH",
"537 321 OFFCURVE",
"535 342 OFFCURVE",
"531 362 CURVE SMOOTH",
"506 507 OFFCURVE",
"405 555 OFFCURVE",
"317 555 CURVE SMOOTH"
);
},
{
closed = 1;
nodes = (
"154 325 LINE",
"170 453 OFFCURVE",
"253 489 OFFCURVE",
"311 489 CURVE SMOOTH",
"393 489 OFFCURVE",
"453 423 OFFCURVE",
"453 343 CURVE SMOOTH",
"453 337 OFFCURVE",
"453 331 OFFCURVE",
"452 325 CURVE"
);
}
);
width = 613;
},
{
layerId = "BAF923F9-5AD6-4831-8548-4755EA67E8F3";
name = Italic;
paths = (
{
closed = 1;
nodes = (
"82 84 OFFCURVE",
"180 -12 OFFCURVE",
"326 -12 CURVE SMOOTH",
"404 -12 OFFCURVE",
"510 17 OFFCURVE",
"566 72 CURVE",
"527 118 LINE",
"484 78 OFFCURVE",
"399 56 OFFCURVE",
"345 56 CURVE SMOOTH",
"277 56 OFFCURVE",
"186 88 OFFCURVE",
"197 250 CURVE",
"212 250 LINE",
"230 250 LINE SMOOTH",
"305 250 OFFCURVE",
"382 250 OFFCURVE",
"451 274 CURVE SMOOTH",
"542 306 OFFCURVE",
"586 340 OFFCURVE",
"597 400 CURVE SMOOTH",
"605 444 OFFCURVE",
"592 486 OFFCURVE",
"560 515 CURVE SMOOTH",
"533 539 OFFCURVE",
"504 555 OFFCURVE",
"395 555 CURVE SMOOTH",
"286 555 OFFCURVE",
"149 463 OFFCURVE",
"114 265 CURVE SMOOTH"
);
},
{
closed = 1;
nodes = (
"209 315 LINE",
"232 444 OFFCURVE",
"340 489 OFFCURVE",
"413 489 CURVE SMOOTH",
"486 489 OFFCURVE",
"518 443 OFFCURVE",
"510 395 CURVE SMOOTH",
"503 355 OFFCURVE",
"472 340 OFFCURVE",
"402 324 CURVE SMOOTH",
"369 317 OFFCURVE",
"327 315 OFFCURVE",
"286 315 CURVE SMOOTH",
"223 315 LINE"
);
}
);
width = 613;
},
{
layerId = "C881373A-603B-4244-9A15-33852008E0AB";
name = Bold;
paths = (
{
closed = 1;
nodes = (
"52 87 OFFCURVE",
"174 -12 OFFCURVE",
"328 -12 CURVE SMOOTH",
"410 -12 OFFCURVE",
"485 18 OFFCURVE",
"534 77 CURVE SMOOTH",
"543 88 LINE",
"474 155 LINE",
"464 143 LINE SMOOTH",
"431 106 OFFCURVE",
"385 87 OFFCURVE",
"335 87 CURVE SMOOTH",
"270 87 OFFCURVE",
"180 116 OFFCURVE",
"167 244 CURVE",
"550 244 LINE",
"551 257 LINE SMOOTH",
"552 270 OFFCURVE",
"553 282 OFFCURVE",
"553 295 CURVE SMOOTH",
"553 317 OFFCURVE",
"551 340 OFFCURVE",
"547 360 CURVE SMOOTH",
"521 506 OFFCURVE",
"411 555 OFFCURVE",
"317 555 CURVE SMOOTH",
"179 555 OFFCURVE",
"52 461 OFFCURVE",
"52 266 CURVE SMOOTH"
);
},
{
closed = 1;
nodes = (
"384 459 OFFCURVE",
"437 407 OFFCURVE",
"437 343 CURVE SMOOTH",
"437 340 LINE",
"172 340 LINE",
"192 433 OFFCURVE",
"261 459 OFFCURVE",
"311 459 CURVE SMOOTH"
);
}
);
width = 613;
},
{
layerId = "99972075-B5E0-48DB-B31E-BE77C67EF09D";
name = "Bold Italic";
paths = (
{
closed = 1;
nodes = (
"288 -11 OFFCURVE",
"307 -12 OFFCURVE",
"326 -12 CURVE SMOOTH",
"407 -12 OFFCURVE",
"516 16 OFFCURVE",
"576 76 CURVE SMOOTH",
"586 86 LINE",
"528 155 LINE",
"516 144 LINE SMOOTH",
"478 108 OFFCURVE",
"396 87 OFFCURVE",
"345 87 CURVE SMOOTH",
"284 87 OFFCURVE",
"189 97 OFFCURVE",
"212 234 CURVE",
"230 234 LINE SMOOTH",
"305 234 OFFCURVE",
"384 235 OFFCURVE",
"456 259 CURVE SMOOTH",
"548 290 OFFCURVE",
"600 325 OFFCURVE",
"612 390 CURVE SMOOTH",
"620 436 OFFCURVE",
"606 482 OFFCURVE",
"570 513 CURVE SMOOTH",
"540 539 OFFCURVE",
"505 555 OFFCURVE",
"395 555 CURVE SMOOTH",
"277 555 OFFCURVE",
"135 462 OFFCURVE",
"99 269 CURVE SMOOTH",
"70 112 OFFCURVE",
"145 13 OFFCURVE",
"271 -8 CURVE SMOOTH"
);
},
{
closed = 1;
nodes = (
"473 459 OFFCURVE",
"496 431 OFFCURVE",
"496 402 CURVE SMOOTH",
"496 398 OFFCURVE",
"496 395 OFFCURVE",
"495 391 CURVE",
"490 364 OFFCURVE",
"470 353 OFFCURVE",
"399 338 CURVE SMOOTH",
"368 332 OFFCURVE",
"326 330 OFFCURVE",
"286 330 CURVE SMOOTH",
"266 330 OFFCURVE",
"247 331 OFFCURVE",
"228 331 CURVE",
"256 425 OFFCURVE",
"348 459 OFFCURVE",
"413 459 CURVE SMOOTH"
);
}
);
width = 613;
}
);
note = e;
unicode = 0065;
},
{
glyphname = f;
lastChange = "2016-10-27 22:44:17 +0000";
layers = (
{
layerId = "0945ADEB-DFBA-48BC-A89F-108FA066EBC6";
name = Regular;
paths = (
{
closed = 1;
nodes = (
"342 796 OFFCURVE",
"270 762 OFFCURVE",
"232 701 CURVE SMOOTH",
"204 656 OFFCURVE",
"203 611 OFFCURVE",
"203 563 CURVE SMOOTH",
"203 510 LINE",
"85 510 LINE",
"85 442 LINE",
"203 442 LINE",
"203 0 LINE",
"285 0 LINE",
"285 442 LINE",
"462 442 LINE",
"462 510 LINE",
"285 510 LINE",
"285 552 LINE",
"285 563 LINE SMOOTH",
"285 599 OFFCURVE",
"285 636 OFFCURVE",
"304 669 CURVE SMOOTH",
"327 709 OFFCURVE",
"369 729 OFFCURVE",
"414 729 CURVE SMOOTH",
"466 729 OFFCURVE",
"508 702 OFFCURVE",
"531 667 CURVE",
"535 662 OFFCURVE",
"535 658 OFFCURVE",
"536 653 CURVE",
"536 645 OFFCURVE",
"541 643 OFFCURVE",
"545 643 CURVE",
"584 722 LINE",
"545 769 OFFCURVE",
"487 796 OFFCURVE",
"418 796 CURVE SMOOTH"
);
}
);
width = 613;
},
{
layerId = "BAF923F9-5AD6-4831-8548-4755EA67E8F3";
name = Italic;
paths = (
{
closed = 1;
nodes = (
"163 442 LINE",
"281 442 LINE",
"172 -172 LINE",
"254 -172 LINE",
"363 442 LINE",
"540 442 LINE",
"552 510 LINE",
"375 510 LINE",
"382 552 LINE",
"383 556 OFFCURVE",
"383 559 OFFCURVE",
"384 563 CURVE",
"390 599 OFFCURVE",
"398 636 OFFCURVE",
"422 669 CURVE SMOOTH",
"452 709 OFFCURVE",
"497 729 OFFCURVE",
"542 729 CURVE SMOOTH",
"594 729 OFFCURVE",
"633 702 OFFCURVE",
"649 667 CURVE",
"652 662 OFFCURVE",
"651 658 OFFCURVE",
"651 653 CURVE",
"650 645 OFFCURVE",
"654 643 OFFCURVE",
"658 643 CURVE",
"711 722 LINE",
"680 769 OFFCURVE",
"627 796 OFFCURVE",
"558 796 CURVE SMOOTH",
"482 796 OFFCURVE",
"405 762 OFFCURVE",
"356 701 CURVE SMOOTH",
"320 656 OFFCURVE",
"310 611 OFFCURVE",
"302 563 CURVE SMOOTH",
"293 510 LINE",
"175 510 LINE"
);
}
);
width = 613;
},
{
layerId = "C881373A-603B-4244-9A15-33852008E0AB";
name = Bold;
paths = (
{
closed = 1;
nodes = (
"189 645 OFFCURVE",
"187 596 OFFCURVE",
"187 548 CURVE SMOOTH",
"187 512 LINE",
"70 512 LINE",
"70 419 LINE",
"187 419 LINE",
"187 0 LINE",
"300 0 LINE",
"300 418 LINE",
"477 418 LINE",
"477 511 LINE",
"300 511 LINE",
"300 537 LINE",
"300 547 LINE SMOOTH",
"300 583 OFFCURVE",
"301 618 OFFCURVE",
"317 646 CURVE SMOOTH",
"336 681 OFFCURVE",
"374 698 OFFCURVE",
"414 698 CURVE SMOOTH",
"461 698 OFFCURVE",
"499 674 OFFCURVE",
"519 643 CURVE",
"519 642 LINE",
"520 641 LINE",
"520 637 LINE",
"521 622 OFFCURVE",
"534 612 OFFCURVE",
"545 612 CURVE SMOOTH",
"554 612 LINE",
"602 709 LINE",
"596 716 LINE SMOOTH",
"554 767 OFFCURVE",
"491 796 OFFCURVE",
"418 796 CURVE SMOOTH",
"338 796 OFFCURVE",
"260 761 OFFCURVE",
"219 694 CURVE SMOOTH"
);
}
);
width = 613;
},
{
layerId = "99972075-B5E0-48DB-B31E-BE77C67EF09D";
name = "Bold Italic";
paths = (
{
closed = 1;
nodes = (
"262 417 LINE",
"154 -172 LINE",
"267 -172 LINE",
"376 417 LINE",
"553 417 LINE",
"570 511 LINE",
"393 511 LINE",
"397 534 LINE",
"398 538 OFFCURVE",
"398 541 OFFCURVE",
"399 545 CURVE",
"405 581 OFFCURVE",
"412 615 OFFCURVE",
"434 644 CURVE SMOOTH",
"461 680 OFFCURVE",
"502 698 OFFCURVE",
"542 698 CURVE SMOOTH",
"589 698 OFFCURVE",
"621 674 OFFCURVE",
"635 645 CURVE",
"636 644 LINE",
"636 644 OFFCURVE",
"635 642 OFFCURVE",
"635 639 CURVE",
"633 623 OFFCURVE",
"647 612 OFFCURVE",
"658 612 CURVE SMOOTH",
"666 612 LINE",
"729 706 LINE",
"724 715 LINE",
"690 767 OFFCURVE",
"631 796 OFFCURVE",
"558 796 CURVE SMOOTH",
"478 796 OFFCURVE",
"396 762 OFFCURVE",
"344 696 CURVE SMOOTH",
"306 648 OFFCURVE",
"296 599 OFFCURVE",
"287 551 CURVE SMOOTH",
"280 512 LINE",
"162 512 LINE",
"145 417 LINE"
);
}
);
width = 613;
}
);
note = f;
unicode = 0066;
},
